<svg xmlns="http://www.w3.org/2000/svg" xmlns:xlink="http://www.w3.org/1999/xlink" xmlns:lucid="lucid" width="1400" height="981"><g transform="translate(-20 121)" lucid:page-tab-id="0_0"><path d="M580 266a6 6 0 0 1 6-6h268a6 6 0 0 1 6 6v88a6 6 0 0 1-6 6H586a6 6 0 0 1-6-6z" stroke="#3a414a" stroke-width="2" fill="#e3fae3"/><use xlink:href="#a" transform="matrix(1,0,0,1,585,265) translate(77.27430555555557 52.46527777777778)"/><path d="M360 86a6 6 0 0 1 6-6h148a6 6 0 0 1 6 6v108a6 6 0 0 1-6 6H366a6 6 0 0 1-6-6z" stroke="#3a414a" stroke-width="2" fill="#fff3d9"/><use xlink:href="#b" transform="matrix(1,0,0,1,365,85) translate(25.26041666666667 62.77777777777778)"/><path d="M920 86a6 6 0 0 1 6-6h148a6 6 0 0 1 6 6v108a6 6 0 0 1-6 6H926a6 6 0 0 1-6-6z" stroke="#000" stroke-width="2" fill="#fff3d9"/><use xlink:href="#c" transform="matrix(1,0,0,1,925,85) translate(23.893229166666664 62.77777777777778)"/><path d="M640 486a6 6 0 0 1 6-6h148a6 6 0 0 1 6 6v108a6 6 0 0 1-6 6H646a6 6 0 0 1-6-6z" stroke="#3a414a" stroke-width="2" fill="#fff3d9"/><use xlink:href="#d" transform="matrix(1,0,0,1,645,485) translate(27.87000868055555 62.77777777777778)"/><path d="M861.5 310H884a6 6 0 0 0 6-6V146a6 6 0 0 1 6-6h6.62" stroke="#3a414a" fill="none"/><path d="M861.5 310.48h-.5v-.96h.5z" stroke="#3a414a" stroke-width=".05" fill="#3a414a"/><path d="M917.38 140l-14.26 4.63v-9.26z" stroke="#3a414a" fill="#3a414a"/><path d="M578.5 310H556a6 6 0 0 1-6-6V146a6 6 0 0 0-6-6h-6.62" stroke="#3a414a" fill="none"/><path d="M579 310.48h-.5v-.96h.5z" stroke="#3a414a" stroke-width=".05" fill="#3a414a"/><path d="M522.62 140l14.26-4.63v9.26z" stroke="#3a414a" fill="#3a414a"/><path d="M720 361.5v101.12" stroke="#3a414a" fill="none"/><path d="M720.48 361.5h-.96v-.5h.96z" stroke="#3a414a" stroke-width=".05" fill="#3a414a"/><path d="M720 477.38l-4.63-14.26h9.26z" stroke="#3a414a" fill="#3a414a"/><path d="M420 520.8a14.48 14.48 0 0 1 4.24-10.24l26.32-26.32A14.48 14.48 0 0 1 460.8 480h38.4a14.48 14.48 0 0 1 10.24 4.24l26.32 26.32A14.48 14.48 0 0 1 540 520.8v38.4a14.48 14.48 0 0 1-4.24 10.24l-26.32 26.32A14.48 14.48 0 0 1 499.2 600h-38.4a14.48 14.48 0 0 1-10.24-4.24l-26.32-26.32A14.48 14.48 0 0 1 420 559.2z" stroke="#3a414a" stroke-width="2" fill="#fff"/><path d="M380-79.2a14.48 14.48 0 0 1 4.24-10.24l26.32-26.32A14.48 14.48 0 0 1 420.8-120h38.4a14.48 14.48 0 0 1 10.24 4.24l26.32 26.32A14.48 14.48 0 0 1 500-79.2v38.4a14.48 14.48 0 0 1-4.24 10.24L469.44-4.24A14.48 14.48 0 0 1 459.2 0h-38.4a14.48 14.48 0 0 1-10.24-4.24l-26.32-26.32A14.48 14.48 0 0 1 380-40.8z" stroke="#3a414a" stroke-width="2" fill="#edf5ff"/><use xlink:href="#e" transform="matrix(1,0,0,1,385,-115) translate(1.8880208333333286 61.90972222222222)"/><path d="M940-79.2a14.48 14.48 0 0 1 4.24-10.24l26.32-26.32A14.48 14.48 0 0 1 980.8-120h38.4a14.48 14.48 0 0 1 10.24 4.24l26.32 26.32A14.48 14.48 0 0 1 1060-79.2v38.4a14.48 14.48 0 0 1-4.24 10.24l-26.32 26.32A14.48 14.48 0 0 1 1019.2 0h-38.4a14.48 14.48 0 0 1-10.24-4.24l-26.32-26.32A14.48 14.48 0 0 1 940-40.8z" stroke="#3a414a" stroke-width="2" fill="#fff"/><path d="M940-79.2a14.48 14.48 0 0 1 4.24-10.24l26.32-26.32A14.48 14.48 0 0 1 980.8-120h38.4a14.48 14.48 0 0 1 10.24 4.24l26.32 26.32A14.48 14.48 0 0 1 1060-79.2v38.4a14.48 14.48 0 0 1-4.24 10.24l-26.32 26.32A14.48 14.48 0 0 1 1019.2 0h-38.4a14.48 14.48 0 0 1-10.24-4.24l-26.32-26.32A14.48 14.48 0 0 1 940-40.8z" stroke="#3a414a" stroke-width="2" fill="#edf5ff"/><use xlink:href="#e" transform="matrix(1,0,0,1,945,-115) translate(1.8880208333333286 61.90972222222222)"/><path d="M420 520.8a14.48 14.48 0 0 1 4.24-10.24l26.32-26.32A14.48 14.48 0 0 1 460.8 480h38.4a14.48 14.48 0 0 1 10.24 4.24l26.32 26.32A14.48 14.48 0 0 1 540 520.8v38.4a14.48 14.48 0 0 1-4.24 10.24l-26.32 26.32A14.48 14.48 0 0 1 499.2 600h-38.4a14.48 14.48 0 0 1-10.24-4.24l-26.32-26.32A14.48 14.48 0 0 1 420 559.2z" stroke="#3a414a" stroke-width="2" fill="#edf5ff"/><use xlink:href="#e" transform="matrix(1,0,0,1,425,485.00000000000006) translate(1.8880208333333286 61.90972222222222)"/><path d="M440 78.5V17.38" stroke="#3a414a" fill="none"/><path d="M440.48 79h-.96v-.5h.96z" stroke="#3a414a" stroke-width=".05" fill="#3a414a"/><path d="M440 2.62l4.63 14.26h-9.26z" stroke="#3a414a" fill="#3a414a"/><path d="M1000 78.5V17.38" stroke="#3a414a" fill="none"/><path d="M1000.48 79h-.96v-.5h.96z" stroke="#3a414a" stroke-width=".05" fill="#3a414a"/><path d="M1000 2.62l4.63 14.26h-9.26z" stroke="#3a414a" fill="#3a414a"/><path d="M638.5 540h-81.12" stroke="#3a414a" fill="none"/><path d="M639 540.48h-.5v-.96h.5z" stroke="#3a414a" stroke-width=".05" fill="#3a414a"/><path d="M542.62 540l14.26-4.63v9.26z" stroke="#3a414a" fill="#3a414a"/><path d="M480 601.5V764a6 6 0 0 0 6 6h89.75" stroke="#3a414a" fill="none"/><path d="M480.48 601.5h-.96v-.5h.96z" stroke="#3a414a" stroke-width=".05" fill="#3a414a"/><path d="M590.52 770l-14.26 4.63v-9.26z" stroke="#3a414a" fill="#3a414a"/><path d="M378.5-60H156a6 6 0 0 0-6 6v88.5" stroke="#3a414a" fill="none"/><path d="M379-59.52h-.5v-.95h.5z" stroke="#3a414a" stroke-width=".05" fill="#3a414a"/><path d="M150 49.25L145.37 35h9.26z" stroke="#3a414a" fill="#3a414a"/><path d="M1285.07 53.41a8.67 8.67 0 0 1 9.86.02l120.14 83.17a4.15 4.15 0 0 1 0 6.8l-120.14 83.19a8.67 8.67 0 0 1-9.86 0l-120.14-83.19a4.15 4.15 0 0 1 0-6.8z" stroke="#3a414a" stroke-width="2" fill="#fbf0ff"/><use xlink:href="#f" transform="matrix(1,0,0,1,1165,55) translate(109.22266493055555 32.15277777777778)"/><use xlink:href="#g" transform="matrix(1,0,0,1,1165,55) translate(94.71528645833334 59.040798611111114)"/><use xlink:href="#h" transform="matrix(1,0,0,1,1165,55) translate(42.903220486111124 85.92881944444446)"/><use xlink:href="#i" transform="matrix(1,0,0,1,1165,55) translate(167.23047743055554 85.92881944444446)"/><use xlink:href="#j" transform="matrix(1,0,0,1,1165,55) translate(59.16841145833333 112.81684027777777)"/><use xlink:href="#k" transform="matrix(1,0,0,1,1165,55) translate(161.07813368055554 112.81684027777777)"/><use xlink:href="#l" transform="matrix(1,0,0,1,1165,55) translate(89.64258680555555 139.70486111111111)"/><path d="M1061.5-60H1284a6 6 0 0 1 6 6v88.5" stroke="#3a414a" fill="none"/><path d="M1061.5-59.52h-.5v-.95h.5z" stroke="#3a414a" stroke-width=".05" fill="#3a414a"/><path d="M1290 49.25L1285.37 35h9.27z" stroke="#3a414a" fill="#3a414a"/><path d="M145.07 53.41a8.67 8.67 0 0 1 9.86.02l120.14 83.17a4.15 4.15 0 0 1 0 6.8L154.93 226.6a8.67 8.67 0 0 1-9.86 0L24.93 143.4a4.15 4.15 0 0 1 0-6.8z" stroke="#3a414a" stroke-width="2" fill="#fbf0ff"/><g><use xlink:href="#m" transform="matrix(1,0,0,1,25,55) translate(58.0128125 64.02777777777777)"/><use xlink:href="#n" transform="matrix(1,0,0,1,25,55) translate(118.87435763888888 64.02777777777777)"/><use xlink:href="#o" transform="matrix(1,0,0,1,25,55) translate(50.21658854166667 90.91579861111111)"/><use xlink:href="#p" transform="matrix(1,0,0,1,25,55) translate(155.9457552083333 90.91579861111111)"/><use xlink:href="#q" transform="matrix(1,0,0,1,25,55) translate(69.81836805555557 117.80381944444446)"/></g><path d="M715.07 683.4a8.67 8.67 0 0 1 9.86 0l120.14 83.2a4.15 4.15 0 0 1 0 6.8l-120.14 83.2a8.67 8.67 0 0 1-9.86 0l-120.14-83.2a4.15 4.15 0 0 1 0-6.8z" stroke="#3a414a" stroke-width="2" fill="#fbf0ff"/><g><use xlink:href="#r" transform="matrix(1,0,0,1,595,685) translate(110.8008984375 35.3125)"/><use xlink:href="#s" transform="matrix(1,0,0,1,595,685) translate(97.7442578125 59.51171875)"/><use xlink:href="#t" transform="matrix(1,0,0,1,595,685) translate(48.26183593750001 83.7109375)"/><use xlink:href="#u" transform="matrix(1,0,0,1,595,685) translate(139.9805859375 83.7109375)"/><use xlink:href="#v" transform="matrix(1,0,0,1,595,685) translate(165.8594921875 83.7109375)"/><use xlink:href="#w" transform="matrix(1,0,0,1,595,685) translate(37.0020703125 107.91015625)"/></g><defs><path d="M180 0v-1490h270l367 940c28 72 75 218 110 339 35-117 81-264 110-339l362-940h271V0h-187c2-448-5-837 7-1287-157 497-311 829-483 1287H842C666-458 514-784 354-1284c12 438 5 843 7 1284H180" id="x"/><path d="M628 24c-324 0-524-230-524-574 0-343 198-582 503-582 237 0 487 146 487 559v75H286c9 234 145 362 343 362 132 0 231-58 273-172l174 48C1024-91 857 24 628 24zM287-650h624c-17-190-120-322-304-322-192 0-309 151-320 322" id="y"/><path d="M538 24C308 24 148-78 108-271l171-41c32 123 123 178 257 178 156 0 256-77 256-169 0-77-54-128-164-154l-186-44c-203-48-300-148-300-305 0-192 176-326 414-326 230 0 351 112 402 269l-163 42c-31-80-94-158-238-158-133 0-233 69-233 162 0 83 57 129 188 160l169 40c203 48 298 149 298 302 0 196-179 339-441 339" id="z"/><path d="M598-1118v154H368v674c0 100 37 144 132 144 23 0 62-6 92-12L629-6c-37 13-88 20-134 20-193 0-307-107-307-290v-688H20v-154h168v-266h180v266h230" id="A"/><path d="M471 26C259 26 90-98 90-318c0-256 228-303 435-329 202-27 287-16 287-108 0-139-79-219-234-219-161 0-248 86-283 164l-173-57c86-203 278-265 451-265 150 0 419 46 419 395V0H815v-152h-12C765-73 660 26 471 26zm31-159c199 0 310-134 310-271v-155c-30 35-226 55-295 64-131 17-246 59-246 186 0 116 97 176 231 176" id="B"/><path d="M158 0v-1118h180V0H158zm91-1301c-68 0-125-53-125-119s57-119 125-119c69 0 126 53 126 119s-57 119-126 119" id="C"/><path d="M613 24c-304 0-509-231-509-576 0-350 205-580 509-580 305 0 511 230 511 580 0 345-206 576-511 576zm0-161c226 0 329-195 329-415 0-222-103-419-329-419-223 0-326 196-326 419 0 220 103 415 326 415" id="D"/><path d="M338-670V0H158v-1118h173l1 207c72-158 192-221 342-221 226 0 378 139 378 422V0H872v-695c0-172-96-275-252-275-161 0-282 109-282 300" id="E"/><g id="a"><use transform="matrix(0.010850694444444444,0,0,0.010850694444444444,0,0)" xlink:href="#x"/><use transform="matrix(0.010850694444444444,0,0,0.010850694444444444,20.07378472222222,0)" xlink:href="#y"/><use transform="matrix(0.010850694444444444,0,0,0.010850694444444444,33.029513888888886,0)" xlink:href="#z"/><use transform="matrix(0.010850694444444444,0,0,0.010850694444444444,44.75911458333333,0)" xlink:href="#z"/><use transform="matrix(0.010850694444444444,0,0,0.010850694444444444,56.48871527777778,0)" xlink:href="#A"/><use transform="matrix(0.010850694444444444,0,0,0.010850694444444444,63.8671875,0)" xlink:href="#B"/><use transform="matrix(0.010850694444444444,0,0,0.010850694444444444,76.3454861111111,0)" xlink:href="#A"/><use transform="matrix(0.010850694444444444,0,0,0.010850694444444444,83.61545138888887,0)" xlink:href="#C"/><use transform="matrix(0.010850694444444444,0,0,0.010850694444444444,88.99739583333331,0)" xlink:href="#D"/><use transform="matrix(0.010850694444444444,0,0,0.010850694444444444,102.32204861111109,0)" xlink:href="#E"/></g><path d="M657 26c-323 0-524-166-541-416h195c15 169 171 246 346 246 202 0 356-106 356-265 5-203-294-238-475-293-239-73-380-191-380-389 0-252 224-419 512-419 294 0 499 171 508 396H992c-17-145-151-228-328-228-193 0-321 102-321 242 0 156 175 211 284 241l149 41c160 44 422 134 422 412 0 244-197 432-541 432" id="F"/><path d="M158 0v-1118h174v172h12c41-113 157-188 290-188 26 0 70 2 91 3v181c-11-2-60-10-108-10-161 0-279 109-279 260V0H158" id="G"/><g id="b"><use transform="matrix(0.010850694444444444,0,0,0.010850694444444444,0,0)" xlink:href="#F"/><use transform="matrix(0.010850694444444444,0,0,0.010850694444444444,14.2578125,0)" xlink:href="#y"/><use transform="matrix(0.010850694444444444,0,0,0.010850694444444444,27.213541666666664,0)" xlink:href="#E"/><use transform="matrix(0.010850694444444444,0,0,0.010850694444444444,40.34288194444444,0)" xlink:href="#z"/><use transform="matrix(0.010850694444444444,0,0,0.010850694444444444,52.072482638888886,0)" xlink:href="#D"/><use transform="matrix(0.010850694444444444,0,0,0.010850694444444444,65.39713541666666,0)" xlink:href="#G"/><use transform="matrix(0.010850694444444444,0,0,0.010850694444444444,73.39409722222221,0)" xlink:href="#y"/><use transform="matrix(0.010850694444444444,0,0,0.010850694444444444,86.34982638888889,0)" xlink:href="#E"/></g><path d="M180 0v-1490h190v644h782v-644h190V0h-190v-678H370V0H180" id="H"/><path d="M577 24c-279 0-473-224-473-580 0-354 195-576 474-576 218 0 287 134 324 193h14v-551h180V0H922v-173h-20C865-111 790 24 577 24zm27-161c203 0 314-172 314-421 0-247-108-413-314-413-212 0-317 181-317 413 0 235 108 421 317 421" id="I"/><path d="M409 0L70-1118h191c89 329 165 560 243 925 75-353 154-601 240-925h192c85 325 161 564 235 922 77-354 157-598 244-922h191L1267 0h-179c-86-307-176-590-250-913C763-588 675-308 588 0H409" id="J"/><g id="c"><use transform="matrix(0.010850694444444444,0,0,0.010850694444444444,0,0)" xlink:href="#H"/><use transform="matrix(0.010850694444444444,0,0,0.010850694444444444,16.514756944444443,0)" xlink:href="#B"/><use transform="matrix(0.010850694444444444,0,0,0.010850694444444444,28.993055555555554,0)" xlink:href="#G"/><use transform="matrix(0.010850694444444444,0,0,0.010850694444444444,36.99001736111111,0)" xlink:href="#I"/><use transform="matrix(0.010850694444444444,0,0,0.010850694444444444,50.59678819444444,0)" xlink:href="#J"/><use transform="matrix(0.010850694444444444,0,0,0.010850694444444444,68.78255208333333,0)" xlink:href="#B"/><use transform="matrix(0.010850694444444444,0,0,0.010850694444444444,81.26085069444444,0)" xlink:href="#G"/><use transform="matrix(0.010850694444444444,0,0,0.010850694444444444,89.2578125,0)" xlink:href="#y"/></g><path d="M678-1118v154H420V0H240v-964H20v-154h220v-149c0-194 155-293 318-293 85 0 141 18 168 30l-50 154c-19-6-47-17-97-17-111 0-159 58-159 166v109h258" id="K"/><g id="d"><use transform="matrix(0.010850694444444444,0,0,0.010850694444444444,0,0)" xlink:href="#F"/><use transform="matrix(0.010850694444444444,0,0,0.010850694444444444,14.2578125,0)" xlink:href="#D"/><use transform="matrix(0.010850694444444444,0,0,0.010850694444444444,27.58246527777778,0)" xlink:href="#K"/><use transform="matrix(0.010850694444444444,0,0,0.010850694444444444,35.04774305555556,0)" xlink:href="#A"/><use transform="matrix(0.010850694444444444,0,0,0.010850694444444444,42.64322916666667,0)" xlink:href="#J"/><use transform="matrix(0.010850694444444444,0,0,0.010850694444444444,60.82899305555555,0)" xlink:href="#B"/><use transform="matrix(0.010850694444444444,0,0,0.010850694444444444,73.30729166666667,0)" xlink:href="#G"/><use transform="matrix(0.010850694444444444,0,0,0.010850694444444444,81.30425347222223,0)" xlink:href="#y"/></g><path d="M180 0v-1490h908v168H370v486h669v168H370v500h727V0H180" id="L"/><path d="M677 24c-213 0-288-135-325-197h-20V0H158v-1490h180v551h14c37-59 106-193 324-193 279 0 474 222 474 576 0 356-194 580-473 580zm-27-161c209 0 317-186 317-421 0-232-105-413-317-413-206 0-314 166-314 413 0 249 111 421 314 421" id="M"/><path d="M383-449c-3-277 82-343 222-425 88-53 156-134 156-250 0-139-108-227-243-227-118 0-235 70-246 236H82c10-251 200-395 436-395 259 0 427 165 427 393 0 161-74 273-203 352-132 80-180 132-178 316H383zm93 462c-75 0-135-60-135-134 0-75 60-135 135-135 74 0 134 60 134 135 0 74-60 134-134 134" id="N"/><g id="e"><use transform="matrix(0.008680555555555556,0,0,0.008680555555555556,0,0)" xlink:href="#L"/><use transform="matrix(0.008680555555555556,0,0,0.008680555555555556,10.68576388888889,0)" xlink:href="#G"/><use transform="matrix(0.008680555555555556,0,0,0.008680555555555556,17.526041666666668,0)" xlink:href="#J"/><use transform="matrix(0.008680555555555556,0,0,0.008680555555555556,31.75347222222222,0)" xlink:href="#y"/><use transform="matrix(0.008680555555555556,0,0,0.008680555555555556,42.11805555555556,0)" xlink:href="#C"/><use transform="matrix(0.008680555555555556,0,0,0.008680555555555556,46.423611111111114,0)" xlink:href="#A"/><use transform="matrix(0.008680555555555556,0,0,0.008680555555555556,52.06597222222222,0)" xlink:href="#y"/><use transform="matrix(0.008680555555555556,0,0,0.008680555555555556,62.43055555555556,0)" xlink:href="#G"/><use transform="matrix(0.008680555555555556,0,0,0.008680555555555556,69.40104166666667,0)" xlink:href="#M"/><use transform="matrix(0.008680555555555556,0,0,0.008680555555555556,80.46006944444446,0)" xlink:href="#B"/><use transform="matrix(0.008680555555555556,0,0,0.008680555555555556,90.44270833333334,0)" xlink:href="#G"/><use transform="matrix(0.008680555555555556,0,0,0.008680555555555556,97.13541666666667,0)" xlink:href="#N"/></g><path d="M545 20c-263 0-445-160-445-446v-80h190v80c0 182 102 279 255 279 152 0 254-97 254-279v-1064h190v1064c0 286-181 446-444 446" id="O"/><path d="M128 359l88-567h206L266 359H128" id="P"/><g id="f"><use transform="matrix(0.010850694444444444,0,0,0.010850694444444444,0,0)" xlink:href="#O"/><use transform="matrix(0.010850694444444444,0,0,0.010850694444444444,12.684461805555555,0)" xlink:href="#B"/><use transform="matrix(0.010850694444444444,0,0,0.010850694444444444,25.162760416666664,0)" xlink:href="#P"/></g><path d="M537 14c-226 0-379-139-379-422v-710h180v695c0 172 97 275 253 275 160 0 281-109 281-300v-670h181V0H879v-209C806-46 684 14 537 14" id="Q"/><path d="M613 24c-304 0-509-231-509-576 0-350 205-580 509-580 216 0 392 114 453 309l-173 49c-33-115-133-197-280-197-223 0-326 196-326 419 0 220 103 415 326 415 150 0 252-85 285-206l172 49C1010-95 832 24 613 24" id="R"/><path d="M338-670V0H158v-1490h180v566c73-149 190-208 336-208 226 0 379 139 379 422V0H872v-695c0-172-96-275-252-275-161 0-282 109-282 300" id="S"/><g id="g"><use transform="matrix(0.010850694444444444,0,0,0.010850694444444444,0,0)" xlink:href="#I"/><use transform="matrix(0.010850694444444444,0,0,0.010850694444444444,13.606770833333332,0)" xlink:href="#Q"/><use transform="matrix(0.010850694444444444,0,0,0.010850694444444444,26.746961805555554,0)" xlink:href="#G"/><use transform="matrix(0.010850694444444444,0,0,0.010850694444444444,34.74392361111111,0)" xlink:href="#R"/><use transform="matrix(0.010850694444444444,0,0,0.010850694444444444,47.43923611111111,0)" xlink:href="#S"/></g><path d="M180 0v-1490h510c348 0 508 209 508 474 0 266-160 477-507 477H370V0H180zm190-706h312c236 0 327-133 327-310 0-176-91-307-329-307H370v617" id="T"/><path d="M158 0v-1490h180v865h22l478-493h223L593-638 1096 0H865L456-523 338-412V0H158" id="U"/><g id="h"><use transform="matrix(0.010850694444444444,0,0,0.010850694444444444,0,0)" xlink:href="#T"/><use transform="matrix(0.010850694444444444,0,0,0.010850694444444444,14.073350694444445,0)" xlink:href="#D"/><use transform="matrix(0.010850694444444444,0,0,0.010850694444444444,26.99652777777778,0)" xlink:href="#J"/><use transform="matrix(0.010850694444444444,0,0,0.010850694444444444,44.78081597222222,0)" xlink:href="#y"/><use transform="matrix(0.010850694444444444,0,0,0.010850694444444444,57.736545138888886,0)" xlink:href="#G"/><use transform="matrix(0.010850694444444444,0,0,0.010850694444444444,66.44965277777777,0)" xlink:href="#M"/><use transform="matrix(0.010850694444444444,0,0,0.010850694444444444,80.27343749999999,0)" xlink:href="#B"/><use transform="matrix(0.010850694444444444,0,0,0.010850694444444444,92.75173611111111,0)" xlink:href="#E"/><use transform="matrix(0.010850694444444444,0,0,0.010850694444444444,105.88107638888887,0)" xlink:href="#U"/></g><g id="i"><use transform="matrix(0.010850694444444444,0,0,0.010850694444444444,0,0)" xlink:href="#Q"/><use transform="matrix(0.010850694444444444,0,0,0.010850694444444444,13.140190972222221,0)" xlink:href="#E"/><use transform="matrix(0.010850694444444444,0,0,0.010850694444444444,26.26953125,0)" xlink:href="#I"/></g><g id="j"><use transform="matrix(0.010850694444444444,0,0,0.010850694444444444,0,0)" xlink:href="#M"/><use transform="matrix(0.010850694444444444,0,0,0.010850694444444444,13.606770833333332,0)" xlink:href="#y"/><use transform="matrix(0.010850694444444444,0,0,0.010850694444444444,26.5625,0)" xlink:href="#z"/><use transform="matrix(0.010850694444444444,0,0,0.010850694444444444,38.29210069444444,0)" xlink:href="#z"/><use transform="matrix(0.010850694444444444,0,0,0.010850694444444444,50.021701388888886,0)" xlink:href="#y"/><use transform="matrix(0.010850694444444444,0,0,0.010850694444444444,62.97743055555555,0)" xlink:href="#G"/><use transform="matrix(0.010850694444444444,0,0,0.010850694444444444,70.9743923611111,0)" xlink:href="#y"/><use transform="matrix(0.010850694444444444,0,0,0.010850694444444444,83.93012152777777,0)" xlink:href="#z"/></g><path d="M635 20c-292 0-500-160-510-396h192c11 142 145 229 315 229 187 0 323-105 323-260 0-161-125-274-346-274H488v-165h121c174 0 294-100 294-254 0-148-104-245-266-245-152 0-291 85-297 230H157c8-234 222-395 484-395 278 0 448 188 448 400 0 168-95 291-247 336v12c190 31 301 169 301 357 0 244-216 425-508 425" id="V"/><path d="M645 0H180v-1490h484c435 0 692 280 692 742 0 466-257 748-711 748zM370-168h263c363 0 539-218 539-580 0-358-176-574-521-574H370v1154" id="W"/><g id="k"><use transform="matrix(0.010850694444444444,0,0,0.010850694444444444,0,0)" xlink:href="#V"/><use transform="matrix(0.010850694444444444,0,0,0.010850694444444444,13.726128472222221,0)" xlink:href="#W"/></g><path d="M338-1490V0H158v-1490h180" id="X"/><g id="l"><use transform="matrix(0.010850694444444444,0,0,0.010850694444444444,0,0)" xlink:href="#x"/><use transform="matrix(0.010850694444444444,0,0,0.010850694444444444,20.07378472222222,0)" xlink:href="#D"/><use transform="matrix(0.010850694444444444,0,0,0.010850694444444444,33.3984375,0)" xlink:href="#I"/><use transform="matrix(0.010850694444444444,0,0,0.010850694444444444,47.00520833333333,0)" xlink:href="#y"/><use transform="matrix(0.010850694444444444,0,0,0.010850694444444444,59.960937499999986,0)" xlink:href="#X"/><use transform="matrix(0.010850694444444444,0,0,0.010850694444444444,65.34288194444444,0)" xlink:href="#X"/></g><path d="M180 0v-1490h224l606 953c40 63 108 177 176 312-27-437-7-821-13-1265h190V0h-226C860-448 622-778 356-1262c27 476 11 792 15 1262H180" id="Y"/><g id="m"><use transform="matrix(0.010850694444444444,0,0,0.010850694444444444,0,0)" xlink:href="#Y"/><use transform="matrix(0.010850694444444444,0,0,0.010850694444444444,16.74262152777778,0)" xlink:href="#y"/><use transform="matrix(0.010850694444444444,0,0,0.010850694444444444,29.698350694444443,0)" xlink:href="#C"/><use transform="matrix(0.010850694444444444,0,0,0.010850694444444444,35.080295138888886,0)" xlink:href="#E"/><use transform="matrix(0.010850694444444444,0,0,0.010850694444444444,48.209635416666664,0)" xlink:href="#P"/></g><g id="n"><use transform="matrix(0.010850694444444444,0,0,0.010850694444444444,0,0)" xlink:href="#B"/><use transform="matrix(0.010850694444444444,0,0,0.010850694444444444,12.47829861111111,0)" xlink:href="#E"/><use transform="matrix(0.010850694444444444,0,0,0.010850694444444444,25.60763888888889,0)" xlink:href="#I"/><use transform="matrix(0.010850694444444444,0,0,0.010850694444444444,39.214409722222214,0)" xlink:href="#y"/><use transform="matrix(0.010850694444444444,0,0,0.010850694444444444,52.17013888888888,0)" xlink:href="#G"/><use transform="matrix(0.010850694444444444,0,0,0.010850694444444444,60.167100694444436,0)" xlink:href="#y"/></g><g id="o"><use transform="matrix(0.010850694444444444,0,0,0.010850694444444444,0,0)" xlink:href="#F"/><use transform="matrix(0.010850694444444444,0,0,0.010850694444444444,14.2578125,0)" xlink:href="#y"/><use transform="matrix(0.010850694444444444,0,0,0.010850694444444444,27.213541666666664,0)" xlink:href="#E"/><use transform="matrix(0.010850694444444444,0,0,0.010850694444444444,40.34288194444444,0)" xlink:href="#z"/><use transform="matrix(0.010850694444444444,0,0,0.010850694444444444,52.072482638888886,0)" xlink:href="#D"/><use transform="matrix(0.010850694444444444,0,0,0.010850694444444444,65.39713541666666,0)" xlink:href="#G"/><use transform="matrix(0.010850694444444444,0,0,0.010850694444444444,73.39409722222221,0)" xlink:href="#y"/><use transform="matrix(0.010850694444444444,0,0,0.010850694444444444,86.34982638888889,0)" xlink:href="#E"/></g><g id="p"><use transform="matrix(0.010850694444444444,0,0,0.010850694444444444,0,0)" xlink:href="#z"/><use transform="matrix(0.010850694444444444,0,0,0.010850694444444444,11.729600694444445,0)" xlink:href="#C"/><use transform="matrix(0.010850694444444444,0,0,0.010850694444444444,17.11154513888889,0)" xlink:href="#E"/><use transform="matrix(0.010850694444444444,0,0,0.010850694444444444,30.240885416666664,0)" xlink:href="#I"/></g><path d="M692-1560L212 224H46l480-1784h166" id="Z"/><path d="M611 442c-248 0-391-105-460-228l146-94c47 65 117 165 314 165 178 0 307-82 307-266v-224h-17C863-141 792-18 576-18c-268 0-472-195-472-546 0-346 197-568 476-568 216 0 288 133 326 193h17v-179h175V29c0 289-215 413-487 413zm-5-620c203 0 314-146 314-390 0-237-108-403-314-403-213 0-319 180-319 403 0 230 109 390 319 390" id="aa"/><path d="M180 0v-1107c0-250 180-403 436-403 251 0 441 146 441 385 0 166-92 287-234 336v14c193 19 323 160 323 365C1146-173 973 0 709 0H544v-167h165c155 0 255-102 255-245 0-151-110-259-285-259H550v-170h91c144 0 234-124 234-256 0-137-97-246-254-246-150 0-259 98-259 239V0H180" id="ab"/><g id="q"><use transform="matrix(0.010850694444444444,0,0,0.010850694444444444,0,0)" xlink:href="#A"/><use transform="matrix(0.010850694444444444,0,0,0.010850694444444444,7.052951388888888,0)" xlink:href="#y"/><use transform="matrix(0.010850694444444444,0,0,0.010850694444444444,20.008680555555554,0)" xlink:href="#Q"/><use transform="matrix(0.010850694444444444,0,0,0.010850694444444444,33.14887152777777,0)" xlink:href="#y"/><use transform="matrix(0.010850694444444444,0,0,0.010850694444444444,46.104600694444436,0)" xlink:href="#G"/><use transform="matrix(0.010850694444444444,0,0,0.010850694444444444,53.721788194444436,0)" xlink:href="#Z"/><use transform="matrix(0.010850694444444444,0,0,0.010850694444444444,61.729600694444436,0)" xlink:href="#aa"/><use transform="matrix(0.010850694444444444,0,0,0.010850694444444444,75.35807291666666,0)" xlink:href="#G"/><use transform="matrix(0.010850694444444444,0,0,0.010850694444444444,83.35503472222221,0)" xlink:href="#D"/><use transform="matrix(0.010850694444444444,0,0,0.010850694444444444,96.67968749999997,0)" xlink:href="#ab"/></g><g id="r"><use transform="matrix(0.009765625,0,0,0.009765625,0,0)" xlink:href="#O"/><use transform="matrix(0.009765625,0,0,0.009765625,11.416015625,0)" xlink:href="#B"/><use transform="matrix(0.009765625,0,0,0.009765625,22.646484375,0)" xlink:href="#P"/></g><g id="s"><use transform="matrix(0.009765625,0,0,0.009765625,0,0)" xlink:href="#I"/><use transform="matrix(0.009765625,0,0,0.009765625,12.24609375,0)" xlink:href="#Q"/><use transform="matrix(0.009765625,0,0,0.009765625,24.072265625,0)" xlink:href="#G"/><use transform="matrix(0.009765625,0,0,0.009765625,31.26953125,0)" xlink:href="#R"/><use transform="matrix(0.009765625,0,0,0.009765625,42.6953125,0)" xlink:href="#S"/></g><g id="t"><use transform="matrix(0.009765625,0,0,0.009765625,0,0)" xlink:href="#M"/><use transform="matrix(0.009765625,0,0,0.009765625,12.24609375,0)" xlink:href="#y"/><use transform="matrix(0.009765625,0,0,0.009765625,23.90625,0)" xlink:href="#z"/><use transform="matrix(0.009765625,0,0,0.009765625,34.462890625,0)" xlink:href="#z"/><use transform="matrix(0.009765625,0,0,0.009765625,45.01953125,0)" xlink:href="#y"/><use transform="matrix(0.009765625,0,0,0.009765625,56.6796875,0)" xlink:href="#G"/><use transform="matrix(0.009765625,0,0,0.009765625,63.876953125,0)" xlink:href="#y"/><use transform="matrix(0.009765625,0,0,0.009765625,75.537109375,0)" xlink:href="#z"/></g><path d="M763 24c-353 0-583-224-583-531v-983h190v968c0 214 149 370 393 370 243 0 391-156 391-370v-968h190v983c0 307-230 531-581 531" id="ac"/><path d="M370-1490V0H180v-1490h190" id="ad"/><g id="u"><use transform="matrix(0.009765625,0,0,0.009765625,0,0)" xlink:href="#ac"/><use transform="matrix(0.009765625,0,0,0.009765625,14.8828125,0)" xlink:href="#ad"/></g><g id="v"><use transform="matrix(0.009765625,0,0,0.009765625,0,0)" xlink:href="#Q"/><use transform="matrix(0.009765625,0,0,0.009765625,11.826171875,0)" xlink:href="#E"/><use transform="matrix(0.009765625,0,0,0.009765625,23.642578125,0)" xlink:href="#I"/></g><path d="M784 20c-382 0-662-292-662-764 0-473 280-766 662-766s660 293 660 766c0 472-278 764-660 764zm0-176c266 0 475-207 475-588 0-383-209-590-475-590-268 0-477 208-477 590 0 380 209 588 477 588" id="ae"/><path d="M157-1118h181V80c1 225-123 350-364 338V252c126 9 184-48 183-172v-1198zm91-183c-68 0-125-53-125-119s57-119 125-119c69 0 126 53 126 119s-57 119-126 119" id="af"/><g id="w"><use transform="matrix(0.009765625,0,0,0.009765625,0,0)" xlink:href="#ae"/><use transform="matrix(0.009765625,0,0,0.009765625,15.29296875,0)" xlink:href="#M"/><use transform="matrix(0.009765625,0,0,0.009765625,27.5390625,0)" xlink:href="#af"/><use transform="matrix(0.009765625,0,0,0.009765625,32.3828125,0)" xlink:href="#y"/><use transform="matrix(0.009765625,0,0,0.009765625,44.04296875,0)" xlink:href="#U"/><use transform="matrix(0.009765625,0,0,0.009765625,55.01953125,0)" xlink:href="#A"/><use transform="matrix(0.009765625,0,0,0.009765625,61.3671875,0)" xlink:href="#D"/><use transform="matrix(0.009765625,0,0,0.009765625,73.359375,0)" xlink:href="#G"/><use transform="matrix(0.009765625,0,0,0.009765625,81.201171875,0)" xlink:href="#C"/><use transform="matrix(0.009765625,0,0,0.009765625,86.044921875,0)" xlink:href="#y"/><use transform="matrix(0.009765625,0,0,0.009765625,97.705078125,0)" xlink:href="#E"/><use transform="matrix(0.009765625,0,0,0.009765625,109.521484375,0)" xlink:href="#A"/><use transform="matrix(0.009765625,0,0,0.009765625,116.064453125,0)" xlink:href="#C"/><use transform="matrix(0.009765625,0,0,0.009765625,120.908203125,0)" xlink:href="#y"/><use transform="matrix(0.009765625,0,0,0.009765625,132.568359375,0)" xlink:href="#G"/><use transform="matrix(0.009765625,0,0,0.009765625,140.09765625,0)" xlink:href="#Q"/><use transform="matrix(0.009765625,0,0,0.009765625,151.923828125,0)" xlink:href="#E"/><use transform="matrix(0.009765625,0,0,0.009765625,163.740234375,0)" xlink:href="#aa"/></g></defs></g></svg>