G04 #@! TF.GenerationSoftware,KiCad,Pcbnew,8.0.8*
G04 #@! TF.CreationDate,2025-02-20T10:17:20+01:00*
G04 #@! TF.ProjectId,pi_hat,70695f68-6174-42e6-9b69-6361645f7063,rev?*
G04 #@! TF.SameCoordinates,Original*
G04 #@! TF.FileFunction,Copper,L1,Top*
G04 #@! TF.FilePolarity,Positive*
%FSLAX46Y46*%
G04 Gerber Fmt 4.6, Leading zero omitted, Abs format (unit mm)*
G04 Created by KiCad (PCBNEW 8.0.8) date 2025-02-20 10:17:20*
%MOMM*%
%LPD*%
G01*
G04 APERTURE LIST*
G04 #@! TA.AperFunction,ComponentPad*
%ADD10C,1.700000*%
G04 #@! TD*
G04 #@! TA.AperFunction,ComponentPad*
%ADD11R,1.700000X1.700000*%
G04 #@! TD*
G04 #@! TA.AperFunction,ComponentPad*
%ADD12O,1.700000X1.700000*%
G04 #@! TD*
G04 #@! TA.AperFunction,Conductor*
%ADD13C,0.200000*%
G04 #@! TD*
G04 APERTURE END LIST*
D10*
X139000000Y-60420000D03*
X139000000Y-62960000D03*
X139000000Y-65500000D03*
X130000000Y-60500000D03*
X130000000Y-63040000D03*
X130000000Y-65580000D03*
X155000000Y-60420000D03*
X155000000Y-62960000D03*
X155000000Y-65500000D03*
X107000000Y-60140000D03*
X107000000Y-62680000D03*
X107000000Y-65220000D03*
X107000000Y-67760000D03*
X107000000Y-70300000D03*
X107000000Y-72840000D03*
X107000000Y-75380000D03*
X107000000Y-77920000D03*
X107000000Y-80460000D03*
X107000000Y-83000000D03*
X146500000Y-60420000D03*
X146500000Y-62960000D03*
X146500000Y-65500000D03*
D11*
X108370000Y-48770000D03*
D12*
X108370000Y-46230000D03*
X110910000Y-48770000D03*
X110910000Y-46230000D03*
X113450000Y-48770000D03*
X113450000Y-46230000D03*
X115990000Y-48770000D03*
X115990000Y-46230000D03*
X118530000Y-48770000D03*
X118530000Y-46230000D03*
X121070000Y-48770000D03*
X121070000Y-46230000D03*
X123610000Y-48770000D03*
X123610000Y-46230000D03*
X126150000Y-48770000D03*
X126150000Y-46230000D03*
X128690000Y-48770000D03*
X128690000Y-46230000D03*
X131230000Y-48770000D03*
X131230000Y-46230000D03*
X133770000Y-48770000D03*
X133770000Y-46230000D03*
X136310000Y-48770000D03*
X136310000Y-46230000D03*
X138850000Y-48770000D03*
X138850000Y-46230000D03*
X141390000Y-48770000D03*
X141390000Y-46230000D03*
X143930000Y-48770000D03*
X143930000Y-46230000D03*
X146470000Y-48770000D03*
X146470000Y-46230000D03*
X149010000Y-48770000D03*
X149010000Y-46230000D03*
X151550000Y-48770000D03*
X151550000Y-46230000D03*
X154090000Y-48770000D03*
X154090000Y-46230000D03*
X156630000Y-48770000D03*
X156630000Y-46230000D03*
D13*
X107000000Y-67760000D02*
X105150000Y-65910000D01*
X105150000Y-65910000D02*
X105150000Y-54530000D01*
X105150000Y-54530000D02*
X110910000Y-48770000D01*
X113450000Y-58770000D02*
X113450000Y-48770000D01*
X107000000Y-65220000D02*
X113450000Y-58770000D01*
X120200000Y-75380000D02*
X130000000Y-65580000D01*
X107000000Y-75380000D02*
X120200000Y-75380000D01*
X107000000Y-77920000D02*
X126580000Y-77920000D01*
X126580000Y-77920000D02*
X139000000Y-65500000D01*
X131540000Y-80460000D02*
X146500000Y-65500000D01*
X107000000Y-80460000D02*
X131540000Y-80460000D01*
X155000000Y-69369987D02*
X155000000Y-65500000D01*
X107000000Y-83000000D02*
X141369987Y-83000000D01*
X141369987Y-83000000D02*
X155000000Y-69369987D01*
G04 #@! TA.AperFunction,Conductor*
G36*
X162003472Y-44050695D02*
G01*
X162323297Y-44068656D01*
X162337094Y-44070210D01*
X162649457Y-44123283D01*
X162663014Y-44126377D01*
X162967469Y-44214089D01*
X162980593Y-44218682D01*
X163273304Y-44339926D01*
X163285826Y-44345955D01*
X163452594Y-44438125D01*
X163563139Y-44499221D01*
X163574900Y-44506611D01*
X163833314Y-44689966D01*
X163844174Y-44698627D01*
X164080418Y-44909749D01*
X164090250Y-44919581D01*
X164301372Y-45155825D01*
X164310035Y-45166687D01*
X164493385Y-45425094D01*
X164500778Y-45436860D01*
X164654040Y-45714166D01*
X164660073Y-45726695D01*
X164781317Y-46019406D01*
X164785910Y-46032530D01*
X164873622Y-46336985D01*
X164876716Y-46350542D01*
X164929787Y-46662894D01*
X164931344Y-46676712D01*
X164949305Y-46996527D01*
X164949500Y-47003480D01*
X164949500Y-96996519D01*
X164949305Y-97003472D01*
X164931344Y-97323287D01*
X164929787Y-97337105D01*
X164876716Y-97649457D01*
X164873622Y-97663014D01*
X164785910Y-97967469D01*
X164781317Y-97980593D01*
X164660073Y-98273304D01*
X164654040Y-98285833D01*
X164500778Y-98563139D01*
X164493380Y-98574913D01*
X164310043Y-98833302D01*
X164301372Y-98844174D01*
X164090250Y-99080418D01*
X164080418Y-99090250D01*
X163844174Y-99301372D01*
X163833302Y-99310043D01*
X163574913Y-99493380D01*
X163563139Y-99500778D01*
X163285833Y-99654040D01*
X163273304Y-99660073D01*
X162980593Y-99781317D01*
X162967469Y-99785910D01*
X162663014Y-99873622D01*
X162649457Y-99876716D01*
X162337105Y-99929787D01*
X162323287Y-99931344D01*
X162003472Y-99949305D01*
X161996519Y-99949500D01*
X103003481Y-99949500D01*
X102996528Y-99949305D01*
X102676712Y-99931344D01*
X102662894Y-99929787D01*
X102350542Y-99876716D01*
X102336985Y-99873622D01*
X102032530Y-99785910D01*
X102019406Y-99781317D01*
X101726695Y-99660073D01*
X101714166Y-99654040D01*
X101436860Y-99500778D01*
X101425094Y-99493385D01*
X101166687Y-99310035D01*
X101155825Y-99301372D01*
X100919581Y-99090250D01*
X100909749Y-99080418D01*
X100698627Y-98844174D01*
X100689966Y-98833314D01*
X100506611Y-98574900D01*
X100499221Y-98563139D01*
X100345959Y-98285833D01*
X100339926Y-98273304D01*
X100218682Y-97980593D01*
X100214089Y-97967469D01*
X100126377Y-97663014D01*
X100123283Y-97649457D01*
X100094127Y-97477858D01*
X100070210Y-97337094D01*
X100068656Y-97323297D01*
X100050695Y-97003472D01*
X100050500Y-96996519D01*
X100050500Y-83000000D01*
X105944417Y-83000000D01*
X105964699Y-83205932D01*
X105987173Y-83280020D01*
X106024768Y-83403954D01*
X106122315Y-83586450D01*
X106122317Y-83586452D01*
X106253589Y-83746410D01*
X106350209Y-83825702D01*
X106413550Y-83877685D01*
X106596046Y-83975232D01*
X106794066Y-84035300D01*
X106794065Y-84035300D01*
X106812529Y-84037118D01*
X107000000Y-84055583D01*
X107205934Y-84035300D01*
X107403954Y-83975232D01*
X107586450Y-83877685D01*
X107746410Y-83746410D01*
X107877685Y-83586450D01*
X107975232Y-83403954D01*
X107979919Y-83388503D01*
X108018217Y-83330065D01*
X108082030Y-83301609D01*
X108098579Y-83300500D01*
X141409547Y-83300500D01*
X141409549Y-83300500D01*
X141485976Y-83280021D01*
X141554498Y-83240460D01*
X141610447Y-83184511D01*
X143737819Y-81057137D01*
X143799142Y-81023653D01*
X143868834Y-81028637D01*
X143924767Y-81070509D01*
X143949184Y-81135973D01*
X143949500Y-81144819D01*
X143949500Y-95983592D01*
X143949500Y-96000000D01*
X143949500Y-96097343D01*
X143985274Y-96288714D01*
X143985275Y-96288716D01*
X144055600Y-96470248D01*
X144055604Y-96470257D01*
X144158090Y-96635778D01*
X144158092Y-96635780D01*
X144289248Y-96779652D01*
X144370076Y-96840690D01*
X144444614Y-96896979D01*
X144513452Y-96931256D01*
X144618879Y-96983753D01*
X144618883Y-96983754D01*
X144618890Y-96983758D01*
X144806144Y-97037037D01*
X144999999Y-97055000D01*
X145000000Y-97055000D01*
X145000001Y-97055000D01*
X145096928Y-97046018D01*
X145193856Y-97037037D01*
X145381110Y-96983758D01*
X145555386Y-96896979D01*
X145710749Y-96779654D01*
X145841908Y-96635780D01*
X145944397Y-96470254D01*
X146014726Y-96288714D01*
X146050500Y-96097343D01*
X146050500Y-96000000D01*
X146050500Y-95983592D01*
X146050500Y-80979082D01*
X146050500Y-80902657D01*
X146014726Y-80711286D01*
X145944397Y-80529746D01*
X145940155Y-80522895D01*
X145841909Y-80364221D01*
X145841907Y-80364219D01*
X145710751Y-80220347D01*
X145555386Y-80103021D01*
X145381120Y-80016246D01*
X145381107Y-80016241D01*
X145193855Y-79962962D01*
X145125700Y-79956647D01*
X145060763Y-79930860D01*
X145020076Y-79874060D01*
X145016556Y-79804279D01*
X145049459Y-79745497D01*
X155240460Y-69554498D01*
X155240984Y-69553590D01*
X155280021Y-69485976D01*
X155300500Y-69409549D01*
X155300500Y-66598578D01*
X155320185Y-66531539D01*
X155372989Y-66485784D01*
X155388488Y-66479923D01*
X155403954Y-66475232D01*
X155586450Y-66377685D01*
X155746410Y-66246410D01*
X155877685Y-66086450D01*
X155975232Y-65903954D01*
X156035300Y-65705934D01*
X156055583Y-65500000D01*
X156035300Y-65294066D01*
X155975232Y-65096046D01*
X155877685Y-64913550D01*
X155785978Y-64801804D01*
X155746410Y-64753589D01*
X155586452Y-64622317D01*
X155586453Y-64622317D01*
X155586450Y-64622315D01*
X155403954Y-64524768D01*
X155337447Y-64504593D01*
X155279009Y-64466296D01*
X155250553Y-64402484D01*
X155261113Y-64333417D01*
X155307337Y-64281023D01*
X155341350Y-64266158D01*
X155463483Y-64233433D01*
X155463492Y-64233429D01*
X155677580Y-64133599D01*
X155761371Y-64074925D01*
X155129408Y-63442962D01*
X155192993Y-63425925D01*
X155307007Y-63360099D01*
X155400099Y-63267007D01*
X155465925Y-63152993D01*
X155482962Y-63089408D01*
X156114925Y-63721371D01*
X156173599Y-63637580D01*
X156273429Y-63423492D01*
X156273433Y-63423483D01*
X156334567Y-63195326D01*
X156334569Y-63195315D01*
X156355157Y-62960001D01*
X156355157Y-62959998D01*
X156334569Y-62724684D01*
X156334567Y-62724673D01*
X156273433Y-62496516D01*
X156273429Y-62496507D01*
X156173601Y-62282424D01*
X156114925Y-62198626D01*
X155482962Y-62830590D01*
X155465925Y-62767007D01*
X155400099Y-62652993D01*
X155307007Y-62559901D01*
X155192993Y-62494075D01*
X155129409Y-62477037D01*
X155761372Y-61845073D01*
X155677576Y-61786398D01*
X155463492Y-61686570D01*
X155463486Y-61686567D01*
X155341349Y-61653841D01*
X155281689Y-61617476D01*
X155251160Y-61554629D01*
X155259455Y-61485253D01*
X155303940Y-61431375D01*
X155337444Y-61415407D01*
X155403954Y-61395232D01*
X155586450Y-61297685D01*
X155746410Y-61166410D01*
X155877685Y-61006450D01*
X155975232Y-60823954D01*
X156035300Y-60625934D01*
X156055583Y-60420000D01*
X156035300Y-60214066D01*
X155975232Y-60016046D01*
X155877685Y-59833550D01*
X155800830Y-59739901D01*
X155746410Y-59673589D01*
X155586452Y-59542317D01*
X155586453Y-59542317D01*
X155586450Y-59542315D01*
X155403954Y-59444768D01*
X155205934Y-59384700D01*
X155205932Y-59384699D01*
X155205934Y-59384699D01*
X155000000Y-59364417D01*
X154794067Y-59384699D01*
X154596043Y-59444769D01*
X154485898Y-59503643D01*
X154413550Y-59542315D01*
X154413548Y-59542316D01*
X154413547Y-59542317D01*
X154253589Y-59673589D01*
X154122772Y-59832993D01*
X154122315Y-59833550D01*
X154098061Y-59878926D01*
X154024769Y-60016043D01*
X153964699Y-60214067D01*
X153944417Y-60420000D01*
X153964699Y-60625932D01*
X153988967Y-60705932D01*
X154024768Y-60823954D01*
X154122315Y-61006450D01*
X154122317Y-61006452D01*
X154253589Y-61166410D01*
X154350209Y-61245702D01*
X154413550Y-61297685D01*
X154596046Y-61395232D01*
X154662551Y-61415405D01*
X154720989Y-61453702D01*
X154749446Y-61517514D01*
X154738887Y-61586581D01*
X154692663Y-61638975D01*
X154658650Y-61653841D01*
X154536514Y-61686567D01*
X154536507Y-61686570D01*
X154322423Y-61786399D01*
X154322421Y-61786400D01*
X154238627Y-61845073D01*
X154238626Y-61845073D01*
X154870591Y-62477037D01*
X154807007Y-62494075D01*
X154692993Y-62559901D01*
X154599901Y-62652993D01*
X154534075Y-62767007D01*
X154517037Y-62830590D01*
X153885073Y-62198626D01*
X153885073Y-62198627D01*
X153826400Y-62282421D01*
X153826399Y-62282423D01*
X153726570Y-62496507D01*
X153726566Y-62496516D01*
X153665432Y-62724673D01*
X153665430Y-62724684D01*
X153644843Y-62959998D01*
X153644843Y-62960001D01*
X153665430Y-63195315D01*
X153665432Y-63195326D01*
X153726566Y-63423483D01*
X153726570Y-63423492D01*
X153826398Y-63637576D01*
X153885073Y-63721372D01*
X154517037Y-63089408D01*
X154534075Y-63152993D01*
X154599901Y-63267007D01*
X154692993Y-63360099D01*
X154807007Y-63425925D01*
X154870591Y-63442962D01*
X154238626Y-64074926D01*
X154322417Y-64133598D01*
X154322421Y-64133600D01*
X154536507Y-64233429D01*
X154536516Y-64233433D01*
X154658649Y-64266158D01*
X154718310Y-64302523D01*
X154748839Y-64365369D01*
X154740545Y-64434745D01*
X154696059Y-64488623D01*
X154662552Y-64504593D01*
X154596046Y-64524767D01*
X154484122Y-64584593D01*
X154413550Y-64622315D01*
X154413548Y-64622316D01*
X154413547Y-64622317D01*
X154253589Y-64753589D01*
X154122317Y-64913547D01*
X154024769Y-65096043D01*
X153964699Y-65294067D01*
X153944417Y-65500000D01*
X153964699Y-65705932D01*
X153964700Y-65705934D01*
X154024768Y-65903954D01*
X154122315Y-66086450D01*
X154156969Y-66128677D01*
X154253589Y-66246410D01*
X154350209Y-66325702D01*
X154413550Y-66377685D01*
X154596046Y-66475232D01*
X154611496Y-66479918D01*
X154669932Y-66518212D01*
X154698390Y-66582024D01*
X154699500Y-66598578D01*
X154699500Y-69194154D01*
X154679815Y-69261193D01*
X154663181Y-69281835D01*
X141281835Y-82663181D01*
X141220512Y-82696666D01*
X141194154Y-82699500D01*
X108098579Y-82699500D01*
X108031540Y-82679815D01*
X107985785Y-82627011D01*
X107979919Y-82611497D01*
X107979677Y-82610701D01*
X107975232Y-82596046D01*
X107877685Y-82413550D01*
X107825702Y-82350209D01*
X107746410Y-82253589D01*
X107586452Y-82122317D01*
X107586453Y-82122317D01*
X107586450Y-82122315D01*
X107403954Y-82024768D01*
X107205934Y-81964700D01*
X107205932Y-81964699D01*
X107205934Y-81964699D01*
X107000000Y-81944417D01*
X106794067Y-81964699D01*
X106596043Y-82024769D01*
X106485898Y-82083643D01*
X106413550Y-82122315D01*
X106413548Y-82122316D01*
X106413547Y-82122317D01*
X106253589Y-82253589D01*
X106122317Y-82413547D01*
X106024769Y-82596043D01*
X105964699Y-82794067D01*
X105944417Y-83000000D01*
X100050500Y-83000000D01*
X100050500Y-81008115D01*
X100051557Y-80991961D01*
X100063657Y-80899945D01*
X100072013Y-80868726D01*
X100104360Y-80790538D01*
X100120506Y-80762535D01*
X100171963Y-80695373D01*
X100194803Y-80672494D01*
X100203335Y-80665934D01*
X100261872Y-80620922D01*
X100289850Y-80604724D01*
X100367979Y-80572242D01*
X100399189Y-80563832D01*
X100457896Y-80556007D01*
X100491069Y-80551587D01*
X100507449Y-80550500D01*
X104562026Y-80550500D01*
X104682969Y-80522895D01*
X104794737Y-80469071D01*
X104806112Y-80460000D01*
X105944417Y-80460000D01*
X105964699Y-80665932D01*
X105987173Y-80740020D01*
X106024768Y-80863954D01*
X106122315Y-81046450D01*
X106142060Y-81070509D01*
X106253589Y-81206410D01*
X106350209Y-81285702D01*
X106413550Y-81337685D01*
X106596046Y-81435232D01*
X106794066Y-81495300D01*
X106794065Y-81495300D01*
X106812529Y-81497118D01*
X107000000Y-81515583D01*
X107205934Y-81495300D01*
X107403954Y-81435232D01*
X107586450Y-81337685D01*
X107746410Y-81206410D01*
X107877685Y-81046450D01*
X107975232Y-80863954D01*
X107979919Y-80848503D01*
X108018217Y-80790065D01*
X108082030Y-80761609D01*
X108098579Y-80760500D01*
X131579560Y-80760500D01*
X131579562Y-80760500D01*
X131655989Y-80740021D01*
X131724511Y-80700460D01*
X131780460Y-80644511D01*
X145935673Y-66489296D01*
X145996994Y-66455813D01*
X146066686Y-66460797D01*
X146081804Y-66467620D01*
X146082130Y-66467794D01*
X146096046Y-66475232D01*
X146294066Y-66535300D01*
X146294065Y-66535300D01*
X146312529Y-66537118D01*
X146500000Y-66555583D01*
X146705934Y-66535300D01*
X146903954Y-66475232D01*
X147086450Y-66377685D01*
X147246410Y-66246410D01*
X147377685Y-66086450D01*
X147475232Y-65903954D01*
X147535300Y-65705934D01*
X147555583Y-65500000D01*
X147535300Y-65294066D01*
X147475232Y-65096046D01*
X147377685Y-64913550D01*
X147285978Y-64801804D01*
X147246410Y-64753589D01*
X147086452Y-64622317D01*
X147086453Y-64622317D01*
X147086450Y-64622315D01*
X146903954Y-64524768D01*
X146837447Y-64504593D01*
X146779009Y-64466296D01*
X146750553Y-64402484D01*
X146761113Y-64333417D01*
X146807337Y-64281023D01*
X146841350Y-64266158D01*
X146963483Y-64233433D01*
X146963492Y-64233429D01*
X147177580Y-64133599D01*
X147261371Y-64074925D01*
X146629408Y-63442962D01*
X146692993Y-63425925D01*
X146807007Y-63360099D01*
X146900099Y-63267007D01*
X146965925Y-63152993D01*
X146982962Y-63089408D01*
X147614925Y-63721371D01*
X147673599Y-63637580D01*
X147773429Y-63423492D01*
X147773433Y-63423483D01*
X147834567Y-63195326D01*
X147834569Y-63195315D01*
X147855157Y-62960001D01*
X147855157Y-62959998D01*
X147834569Y-62724684D01*
X147834567Y-62724673D01*
X147773433Y-62496516D01*
X147773429Y-62496507D01*
X147673601Y-62282424D01*
X147614925Y-62198626D01*
X146982962Y-62830590D01*
X146965925Y-62767007D01*
X146900099Y-62652993D01*
X146807007Y-62559901D01*
X146692993Y-62494075D01*
X146629409Y-62477037D01*
X147261372Y-61845073D01*
X147177576Y-61786398D01*
X146963492Y-61686570D01*
X146963486Y-61686567D01*
X146841349Y-61653841D01*
X146781689Y-61617476D01*
X146751160Y-61554629D01*
X146759455Y-61485253D01*
X146803940Y-61431375D01*
X146837444Y-61415407D01*
X146903954Y-61395232D01*
X147086450Y-61297685D01*
X147246410Y-61166410D01*
X147377685Y-61006450D01*
X147475232Y-60823954D01*
X147535300Y-60625934D01*
X147555583Y-60420000D01*
X147535300Y-60214066D01*
X147475232Y-60016046D01*
X147377685Y-59833550D01*
X147300830Y-59739901D01*
X147246410Y-59673589D01*
X147086452Y-59542317D01*
X147086453Y-59542317D01*
X147086450Y-59542315D01*
X146903954Y-59444768D01*
X146705934Y-59384700D01*
X146705932Y-59384699D01*
X146705934Y-59384699D01*
X146500000Y-59364417D01*
X146294067Y-59384699D01*
X146096043Y-59444769D01*
X145985898Y-59503643D01*
X145913550Y-59542315D01*
X145913548Y-59542316D01*
X145913547Y-59542317D01*
X145753589Y-59673589D01*
X145622772Y-59832993D01*
X145622315Y-59833550D01*
X145598061Y-59878926D01*
X145524769Y-60016043D01*
X145464699Y-60214067D01*
X145444417Y-60420000D01*
X145464699Y-60625932D01*
X145488967Y-60705932D01*
X145524768Y-60823954D01*
X145622315Y-61006450D01*
X145622317Y-61006452D01*
X145753589Y-61166410D01*
X145850209Y-61245702D01*
X145913550Y-61297685D01*
X146096046Y-61395232D01*
X146162551Y-61415405D01*
X146220989Y-61453702D01*
X146249446Y-61517514D01*
X146238887Y-61586581D01*
X146192663Y-61638975D01*
X146158650Y-61653841D01*
X146036514Y-61686567D01*
X146036507Y-61686570D01*
X145822423Y-61786399D01*
X145822421Y-61786400D01*
X145738627Y-61845073D01*
X145738626Y-61845073D01*
X146370591Y-62477037D01*
X146307007Y-62494075D01*
X146192993Y-62559901D01*
X146099901Y-62652993D01*
X146034075Y-62767007D01*
X146017037Y-62830590D01*
X145385073Y-62198626D01*
X145385073Y-62198627D01*
X145326400Y-62282421D01*
X145326399Y-62282423D01*
X145226570Y-62496507D01*
X145226566Y-62496516D01*
X145165432Y-62724673D01*
X145165430Y-62724684D01*
X145144843Y-62959998D01*
X145144843Y-62960001D01*
X145165430Y-63195315D01*
X145165432Y-63195326D01*
X145226566Y-63423483D01*
X145226570Y-63423492D01*
X145326398Y-63637576D01*
X145385073Y-63721372D01*
X146017037Y-63089408D01*
X146034075Y-63152993D01*
X146099901Y-63267007D01*
X146192993Y-63360099D01*
X146307007Y-63425925D01*
X146370591Y-63442962D01*
X145738626Y-64074926D01*
X145822417Y-64133598D01*
X145822421Y-64133600D01*
X146036507Y-64233429D01*
X146036516Y-64233433D01*
X146158649Y-64266158D01*
X146218310Y-64302523D01*
X146248839Y-64365369D01*
X146240545Y-64434745D01*
X146196059Y-64488623D01*
X146162552Y-64504593D01*
X146096046Y-64524767D01*
X145984122Y-64584593D01*
X145913550Y-64622315D01*
X145913548Y-64622316D01*
X145913547Y-64622317D01*
X145753589Y-64753589D01*
X145622317Y-64913547D01*
X145524769Y-65096043D01*
X145464699Y-65294067D01*
X145444417Y-65500000D01*
X145464699Y-65705932D01*
X145524769Y-65903956D01*
X145532379Y-65918193D01*
X145546620Y-65986596D01*
X145521619Y-66051840D01*
X145510701Y-66064326D01*
X131451848Y-80123181D01*
X131390525Y-80156666D01*
X131364167Y-80159500D01*
X108098579Y-80159500D01*
X108031540Y-80139815D01*
X107985785Y-80087011D01*
X107979919Y-80071497D01*
X107977046Y-80062027D01*
X107975232Y-80056046D01*
X107877685Y-79873550D01*
X107772594Y-79745495D01*
X107746410Y-79713589D01*
X107586452Y-79582317D01*
X107586453Y-79582317D01*
X107586450Y-79582315D01*
X107403954Y-79484768D01*
X107205934Y-79424700D01*
X107205932Y-79424699D01*
X107205934Y-79424699D01*
X107000000Y-79404417D01*
X106794067Y-79424699D01*
X106596043Y-79484769D01*
X106485898Y-79543643D01*
X106413550Y-79582315D01*
X106413548Y-79582316D01*
X106413547Y-79582317D01*
X106253589Y-79713589D01*
X106122317Y-79873547D01*
X106122315Y-79873550D01*
X106091682Y-79930860D01*
X106024769Y-80056043D01*
X105964699Y-80254067D01*
X105944417Y-80460000D01*
X104806112Y-80460000D01*
X104891725Y-80391725D01*
X104969071Y-80294737D01*
X105022895Y-80182969D01*
X105050500Y-80062026D01*
X105050500Y-80000000D01*
X105050500Y-79983592D01*
X105050500Y-77920000D01*
X105944417Y-77920000D01*
X105964699Y-78125932D01*
X105987173Y-78200020D01*
X106024768Y-78323954D01*
X106122315Y-78506450D01*
X106122317Y-78506452D01*
X106253589Y-78666410D01*
X106350209Y-78745702D01*
X106413550Y-78797685D01*
X106596046Y-78895232D01*
X106794066Y-78955300D01*
X106794065Y-78955300D01*
X106812529Y-78957118D01*
X107000000Y-78975583D01*
X107205934Y-78955300D01*
X107403954Y-78895232D01*
X107586450Y-78797685D01*
X107746410Y-78666410D01*
X107877685Y-78506450D01*
X107975232Y-78323954D01*
X107979919Y-78308503D01*
X108018217Y-78250065D01*
X108082030Y-78221609D01*
X108098579Y-78220500D01*
X126619560Y-78220500D01*
X126619562Y-78220500D01*
X126695989Y-78200021D01*
X126764511Y-78160460D01*
X126820460Y-78104511D01*
X138435673Y-66489296D01*
X138496994Y-66455813D01*
X138566686Y-66460797D01*
X138581804Y-66467620D01*
X138582130Y-66467794D01*
X138596046Y-66475232D01*
X138794066Y-66535300D01*
X138794065Y-66535300D01*
X138812529Y-66537118D01*
X139000000Y-66555583D01*
X139205934Y-66535300D01*
X139403954Y-66475232D01*
X139586450Y-66377685D01*
X139746410Y-66246410D01*
X139877685Y-66086450D01*
X139975232Y-65903954D01*
X140035300Y-65705934D01*
X140055583Y-65500000D01*
X140035300Y-65294066D01*
X139975232Y-65096046D01*
X139877685Y-64913550D01*
X139785978Y-64801804D01*
X139746410Y-64753589D01*
X139586452Y-64622317D01*
X139586453Y-64622317D01*
X139586450Y-64622315D01*
X139403954Y-64524768D01*
X139337447Y-64504593D01*
X139279009Y-64466296D01*
X139250553Y-64402484D01*
X139261113Y-64333417D01*
X139307337Y-64281023D01*
X139341350Y-64266158D01*
X139463483Y-64233433D01*
X139463492Y-64233429D01*
X139677580Y-64133599D01*
X139761371Y-64074925D01*
X139129408Y-63442962D01*
X139192993Y-63425925D01*
X139307007Y-63360099D01*
X139400099Y-63267007D01*
X139465925Y-63152993D01*
X139482962Y-63089408D01*
X140114925Y-63721371D01*
X140173599Y-63637580D01*
X140273429Y-63423492D01*
X140273433Y-63423483D01*
X140334567Y-63195326D01*
X140334569Y-63195315D01*
X140355157Y-62960001D01*
X140355157Y-62959998D01*
X140334569Y-62724684D01*
X140334567Y-62724673D01*
X140273433Y-62496516D01*
X140273429Y-62496507D01*
X140173601Y-62282424D01*
X140114925Y-62198626D01*
X139482962Y-62830590D01*
X139465925Y-62767007D01*
X139400099Y-62652993D01*
X139307007Y-62559901D01*
X139192993Y-62494075D01*
X139129409Y-62477037D01*
X139761372Y-61845073D01*
X139677576Y-61786398D01*
X139463492Y-61686570D01*
X139463486Y-61686567D01*
X139341349Y-61653841D01*
X139281689Y-61617476D01*
X139251160Y-61554629D01*
X139259455Y-61485253D01*
X139303940Y-61431375D01*
X139337444Y-61415407D01*
X139403954Y-61395232D01*
X139586450Y-61297685D01*
X139746410Y-61166410D01*
X139877685Y-61006450D01*
X139975232Y-60823954D01*
X140035300Y-60625934D01*
X140055583Y-60420000D01*
X140035300Y-60214066D01*
X139975232Y-60016046D01*
X139877685Y-59833550D01*
X139800830Y-59739901D01*
X139746410Y-59673589D01*
X139586452Y-59542317D01*
X139586453Y-59542317D01*
X139586450Y-59542315D01*
X139403954Y-59444768D01*
X139205934Y-59384700D01*
X139205932Y-59384699D01*
X139205934Y-59384699D01*
X139000000Y-59364417D01*
X138794067Y-59384699D01*
X138596043Y-59444769D01*
X138485898Y-59503643D01*
X138413550Y-59542315D01*
X138413548Y-59542316D01*
X138413547Y-59542317D01*
X138253589Y-59673589D01*
X138122772Y-59832993D01*
X138122315Y-59833550D01*
X138098061Y-59878926D01*
X138024769Y-60016043D01*
X137964699Y-60214067D01*
X137944417Y-60420000D01*
X137964699Y-60625932D01*
X137988967Y-60705932D01*
X138024768Y-60823954D01*
X138122315Y-61006450D01*
X138122317Y-61006452D01*
X138253589Y-61166410D01*
X138350209Y-61245702D01*
X138413550Y-61297685D01*
X138596046Y-61395232D01*
X138662551Y-61415405D01*
X138720989Y-61453702D01*
X138749446Y-61517514D01*
X138738887Y-61586581D01*
X138692663Y-61638975D01*
X138658650Y-61653841D01*
X138536514Y-61686567D01*
X138536507Y-61686570D01*
X138322423Y-61786399D01*
X138322421Y-61786400D01*
X138238627Y-61845073D01*
X138238626Y-61845073D01*
X138870591Y-62477037D01*
X138807007Y-62494075D01*
X138692993Y-62559901D01*
X138599901Y-62652993D01*
X138534075Y-62767007D01*
X138517037Y-62830590D01*
X137885073Y-62198626D01*
X137885073Y-62198627D01*
X137826400Y-62282421D01*
X137826399Y-62282423D01*
X137726570Y-62496507D01*
X137726566Y-62496516D01*
X137665432Y-62724673D01*
X137665430Y-62724684D01*
X137644843Y-62959998D01*
X137644843Y-62960001D01*
X137665430Y-63195315D01*
X137665432Y-63195326D01*
X137726566Y-63423483D01*
X137726570Y-63423492D01*
X137826398Y-63637576D01*
X137885073Y-63721372D01*
X138517037Y-63089408D01*
X138534075Y-63152993D01*
X138599901Y-63267007D01*
X138692993Y-63360099D01*
X138807007Y-63425925D01*
X138870591Y-63442962D01*
X138238626Y-64074926D01*
X138322417Y-64133598D01*
X138322421Y-64133600D01*
X138536507Y-64233429D01*
X138536516Y-64233433D01*
X138658649Y-64266158D01*
X138718310Y-64302523D01*
X138748839Y-64365369D01*
X138740545Y-64434745D01*
X138696059Y-64488623D01*
X138662552Y-64504593D01*
X138596046Y-64524767D01*
X138484122Y-64584593D01*
X138413550Y-64622315D01*
X138413548Y-64622316D01*
X138413547Y-64622317D01*
X138253589Y-64753589D01*
X138122317Y-64913547D01*
X138024769Y-65096043D01*
X137964699Y-65294067D01*
X137944417Y-65500000D01*
X137964699Y-65705932D01*
X138024769Y-65903956D01*
X138032379Y-65918193D01*
X138046620Y-65986596D01*
X138021619Y-66051840D01*
X138010701Y-66064326D01*
X126491848Y-77583181D01*
X126430525Y-77616666D01*
X126404167Y-77619500D01*
X108098579Y-77619500D01*
X108031540Y-77599815D01*
X107985785Y-77547011D01*
X107979919Y-77531497D01*
X107979677Y-77530701D01*
X107975232Y-77516046D01*
X107877685Y-77333550D01*
X107825702Y-77270209D01*
X107746410Y-77173589D01*
X107586452Y-77042317D01*
X107586453Y-77042317D01*
X107586450Y-77042315D01*
X107403954Y-76944768D01*
X107205934Y-76884700D01*
X107205932Y-76884699D01*
X107205934Y-76884699D01*
X107000000Y-76864417D01*
X106794067Y-76884699D01*
X106596043Y-76944769D01*
X106485898Y-77003643D01*
X106413550Y-77042315D01*
X106413548Y-77042316D01*
X106413547Y-77042317D01*
X106253589Y-77173589D01*
X106122317Y-77333547D01*
X106024769Y-77516043D01*
X105964699Y-77714067D01*
X105944417Y-77920000D01*
X105050500Y-77920000D01*
X105050500Y-75380000D01*
X105944417Y-75380000D01*
X105964699Y-75585932D01*
X105987173Y-75660020D01*
X106024768Y-75783954D01*
X106122315Y-75966450D01*
X106122317Y-75966452D01*
X106253589Y-76126410D01*
X106350209Y-76205702D01*
X106413550Y-76257685D01*
X106596046Y-76355232D01*
X106794066Y-76415300D01*
X106794065Y-76415300D01*
X106812529Y-76417118D01*
X107000000Y-76435583D01*
X107205934Y-76415300D01*
X107403954Y-76355232D01*
X107586450Y-76257685D01*
X107746410Y-76126410D01*
X107877685Y-75966450D01*
X107975232Y-75783954D01*
X107979919Y-75768503D01*
X108018217Y-75710065D01*
X108082030Y-75681609D01*
X108098579Y-75680500D01*
X120239560Y-75680500D01*
X120239562Y-75680500D01*
X120315989Y-75660021D01*
X120384511Y-75620460D01*
X120440460Y-75564511D01*
X129435673Y-66569296D01*
X129496994Y-66535813D01*
X129566686Y-66540797D01*
X129581804Y-66547620D01*
X129590493Y-66552264D01*
X129596046Y-66555232D01*
X129794066Y-66615300D01*
X129794065Y-66615300D01*
X129812529Y-66617118D01*
X130000000Y-66635583D01*
X130205934Y-66615300D01*
X130403954Y-66555232D01*
X130586450Y-66457685D01*
X130746410Y-66326410D01*
X130877685Y-66166450D01*
X130975232Y-65983954D01*
X131035300Y-65785934D01*
X131055583Y-65580000D01*
X131035300Y-65374066D01*
X130975232Y-65176046D01*
X130877685Y-64993550D01*
X130812029Y-64913547D01*
X130746410Y-64833589D01*
X130624329Y-64733401D01*
X130586450Y-64702315D01*
X130403954Y-64604768D01*
X130337447Y-64584593D01*
X130279009Y-64546296D01*
X130250553Y-64482484D01*
X130261113Y-64413417D01*
X130307337Y-64361023D01*
X130341350Y-64346158D01*
X130463483Y-64313433D01*
X130463492Y-64313429D01*
X130677580Y-64213599D01*
X130761371Y-64154925D01*
X130129408Y-63522962D01*
X130192993Y-63505925D01*
X130307007Y-63440099D01*
X130400099Y-63347007D01*
X130465925Y-63232993D01*
X130482962Y-63169408D01*
X131114925Y-63801371D01*
X131173599Y-63717580D01*
X131273429Y-63503492D01*
X131273433Y-63503483D01*
X131334567Y-63275326D01*
X131334569Y-63275315D01*
X131355157Y-63040001D01*
X131355157Y-63039998D01*
X131334569Y-62804684D01*
X131334567Y-62804673D01*
X131273433Y-62576516D01*
X131273429Y-62576507D01*
X131173601Y-62362424D01*
X131114925Y-62278626D01*
X130482962Y-62910590D01*
X130465925Y-62847007D01*
X130400099Y-62732993D01*
X130307007Y-62639901D01*
X130192993Y-62574075D01*
X130129409Y-62557037D01*
X130761372Y-61925073D01*
X130677576Y-61866398D01*
X130463492Y-61766570D01*
X130463486Y-61766567D01*
X130341349Y-61733841D01*
X130281689Y-61697476D01*
X130251160Y-61634629D01*
X130259455Y-61565253D01*
X130303940Y-61511375D01*
X130337444Y-61495407D01*
X130403954Y-61475232D01*
X130586450Y-61377685D01*
X130746410Y-61246410D01*
X130877685Y-61086450D01*
X130975232Y-60903954D01*
X131035300Y-60705934D01*
X131055583Y-60500000D01*
X131035300Y-60294066D01*
X130975232Y-60096046D01*
X130877685Y-59913550D01*
X130782061Y-59797031D01*
X130746410Y-59753589D01*
X130586452Y-59622317D01*
X130586453Y-59622317D01*
X130586450Y-59622315D01*
X130403954Y-59524768D01*
X130205934Y-59464700D01*
X130205932Y-59464699D01*
X130205934Y-59464699D01*
X130000000Y-59444417D01*
X129794067Y-59464699D01*
X129596043Y-59524769D01*
X129563214Y-59542317D01*
X129413550Y-59622315D01*
X129413548Y-59622316D01*
X129413547Y-59622317D01*
X129253589Y-59753589D01*
X129122317Y-59913547D01*
X129024769Y-60096043D01*
X128964699Y-60294067D01*
X128944417Y-60500000D01*
X128964699Y-60705932D01*
X128964700Y-60705934D01*
X129024768Y-60903954D01*
X129122315Y-61086450D01*
X129122317Y-61086452D01*
X129253589Y-61246410D01*
X129335462Y-61313600D01*
X129413550Y-61377685D01*
X129596046Y-61475232D01*
X129662551Y-61495405D01*
X129720989Y-61533702D01*
X129749446Y-61597514D01*
X129738887Y-61666581D01*
X129692663Y-61718975D01*
X129658650Y-61733841D01*
X129536514Y-61766567D01*
X129536507Y-61766570D01*
X129322423Y-61866399D01*
X129322421Y-61866400D01*
X129238627Y-61925073D01*
X129238626Y-61925073D01*
X129870591Y-62557037D01*
X129807007Y-62574075D01*
X129692993Y-62639901D01*
X129599901Y-62732993D01*
X129534075Y-62847007D01*
X129517037Y-62910590D01*
X128885073Y-62278626D01*
X128885073Y-62278627D01*
X128826400Y-62362421D01*
X128826399Y-62362423D01*
X128726570Y-62576507D01*
X128726566Y-62576516D01*
X128665432Y-62804673D01*
X128665430Y-62804684D01*
X128644843Y-63039998D01*
X128644843Y-63040001D01*
X128665430Y-63275315D01*
X128665432Y-63275326D01*
X128726566Y-63503483D01*
X128726570Y-63503492D01*
X128826398Y-63717576D01*
X128885073Y-63801372D01*
X129517037Y-63169408D01*
X129534075Y-63232993D01*
X129599901Y-63347007D01*
X129692993Y-63440099D01*
X129807007Y-63505925D01*
X129870591Y-63522962D01*
X129238626Y-64154926D01*
X129322417Y-64213598D01*
X129322421Y-64213600D01*
X129536507Y-64313429D01*
X129536516Y-64313433D01*
X129658649Y-64346158D01*
X129718310Y-64382523D01*
X129748839Y-64445369D01*
X129740545Y-64514745D01*
X129696059Y-64568623D01*
X129662552Y-64584593D01*
X129596046Y-64604767D01*
X129465358Y-64674622D01*
X129413550Y-64702315D01*
X129413548Y-64702316D01*
X129413547Y-64702317D01*
X129253589Y-64833589D01*
X129122317Y-64993547D01*
X129122315Y-64993550D01*
X129083643Y-65065898D01*
X129024769Y-65176043D01*
X128964699Y-65374067D01*
X128944417Y-65580000D01*
X128964699Y-65785932D01*
X128964700Y-65785934D01*
X129014335Y-65949562D01*
X129024769Y-65983956D01*
X129032379Y-65998193D01*
X129046620Y-66066596D01*
X129021619Y-66131840D01*
X129010701Y-66144326D01*
X120111848Y-75043181D01*
X120050525Y-75076666D01*
X120024167Y-75079500D01*
X108098579Y-75079500D01*
X108031540Y-75059815D01*
X107985785Y-75007011D01*
X107979919Y-74991497D01*
X107979677Y-74990701D01*
X107975232Y-74976046D01*
X107877685Y-74793550D01*
X107825702Y-74730209D01*
X107746410Y-74633589D01*
X107586452Y-74502317D01*
X107586453Y-74502317D01*
X107586450Y-74502315D01*
X107403954Y-74404768D01*
X107205934Y-74344700D01*
X107205932Y-74344699D01*
X107205934Y-74344699D01*
X107000000Y-74324417D01*
X106794067Y-74344699D01*
X106596043Y-74404769D01*
X106485898Y-74463643D01*
X106413550Y-74502315D01*
X106413548Y-74502316D01*
X106413547Y-74502317D01*
X106253589Y-74633589D01*
X106122317Y-74793547D01*
X106024769Y-74976043D01*
X105964699Y-75174067D01*
X105944417Y-75380000D01*
X105050500Y-75380000D01*
X105050500Y-72840000D01*
X105944417Y-72840000D01*
X105964699Y-73045932D01*
X105964700Y-73045934D01*
X106024768Y-73243954D01*
X106122315Y-73426450D01*
X106122317Y-73426452D01*
X106253589Y-73586410D01*
X106350209Y-73665702D01*
X106413550Y-73717685D01*
X106596046Y-73815232D01*
X106794066Y-73875300D01*
X106794065Y-73875300D01*
X106812529Y-73877118D01*
X107000000Y-73895583D01*
X107205934Y-73875300D01*
X107403954Y-73815232D01*
X107586450Y-73717685D01*
X107746410Y-73586410D01*
X107877685Y-73426450D01*
X107975232Y-73243954D01*
X108035300Y-73045934D01*
X108055583Y-72840000D01*
X108035300Y-72634066D01*
X107975232Y-72436046D01*
X107877685Y-72253550D01*
X107825702Y-72190209D01*
X107746410Y-72093589D01*
X107586452Y-71962317D01*
X107586453Y-71962317D01*
X107586450Y-71962315D01*
X107403954Y-71864768D01*
X107205934Y-71804700D01*
X107205932Y-71804699D01*
X107205934Y-71804699D01*
X107000000Y-71784417D01*
X106794067Y-71804699D01*
X106596043Y-71864769D01*
X106485898Y-71923643D01*
X106413550Y-71962315D01*
X106413548Y-71962316D01*
X106413547Y-71962317D01*
X106253589Y-72093589D01*
X106122317Y-72253547D01*
X106024769Y-72436043D01*
X105964699Y-72634067D01*
X105944417Y-72840000D01*
X105050500Y-72840000D01*
X105050500Y-70300000D01*
X105944417Y-70300000D01*
X105964699Y-70505932D01*
X105964700Y-70505934D01*
X106024768Y-70703954D01*
X106122315Y-70886450D01*
X106122317Y-70886452D01*
X106253589Y-71046410D01*
X106350209Y-71125702D01*
X106413550Y-71177685D01*
X106596046Y-71275232D01*
X106794066Y-71335300D01*
X106794065Y-71335300D01*
X106812529Y-71337118D01*
X107000000Y-71355583D01*
X107205934Y-71335300D01*
X107403954Y-71275232D01*
X107586450Y-71177685D01*
X107746410Y-71046410D01*
X107877685Y-70886450D01*
X107975232Y-70703954D01*
X108035300Y-70505934D01*
X108055583Y-70300000D01*
X108035300Y-70094066D01*
X107975232Y-69896046D01*
X107877685Y-69713550D01*
X107825702Y-69650209D01*
X107746410Y-69553589D01*
X107586452Y-69422317D01*
X107586453Y-69422317D01*
X107586450Y-69422315D01*
X107403954Y-69324768D01*
X107205934Y-69264700D01*
X107205932Y-69264699D01*
X107205934Y-69264699D01*
X107000000Y-69244417D01*
X106794067Y-69264699D01*
X106596043Y-69324769D01*
X106485898Y-69383643D01*
X106413550Y-69422315D01*
X106413548Y-69422316D01*
X106413547Y-69422317D01*
X106253589Y-69553589D01*
X106122317Y-69713547D01*
X106024769Y-69896043D01*
X105964699Y-70094067D01*
X105944417Y-70300000D01*
X105050500Y-70300000D01*
X105050500Y-66534833D01*
X105070185Y-66467794D01*
X105122989Y-66422039D01*
X105192147Y-66412095D01*
X105255703Y-66441120D01*
X105262181Y-66447152D01*
X106010701Y-67195672D01*
X106044186Y-67256995D01*
X106039202Y-67326687D01*
X106032381Y-67341800D01*
X106024770Y-67356039D01*
X105964699Y-67554067D01*
X105944417Y-67760000D01*
X105964699Y-67965932D01*
X105964700Y-67965934D01*
X106024768Y-68163954D01*
X106122315Y-68346450D01*
X106122317Y-68346452D01*
X106253589Y-68506410D01*
X106350209Y-68585702D01*
X106413550Y-68637685D01*
X106596046Y-68735232D01*
X106794066Y-68795300D01*
X106794065Y-68795300D01*
X106812529Y-68797118D01*
X107000000Y-68815583D01*
X107205934Y-68795300D01*
X107403954Y-68735232D01*
X107586450Y-68637685D01*
X107746410Y-68506410D01*
X107877685Y-68346450D01*
X107975232Y-68163954D01*
X108035300Y-67965934D01*
X108055583Y-67760000D01*
X108035300Y-67554066D01*
X107975232Y-67356046D01*
X107877685Y-67173550D01*
X107825702Y-67110209D01*
X107746410Y-67013589D01*
X107586452Y-66882317D01*
X107586453Y-66882317D01*
X107586450Y-66882315D01*
X107403954Y-66784768D01*
X107205934Y-66724700D01*
X107205932Y-66724699D01*
X107205934Y-66724699D01*
X107000000Y-66704417D01*
X106794067Y-66724699D01*
X106596039Y-66784770D01*
X106581800Y-66792381D01*
X106513397Y-66806620D01*
X106448154Y-66781616D01*
X106435672Y-66770701D01*
X105486819Y-65821848D01*
X105453334Y-65760525D01*
X105450500Y-65734167D01*
X105450500Y-65220000D01*
X105944417Y-65220000D01*
X105964699Y-65425932D01*
X105964700Y-65425934D01*
X106024768Y-65623954D01*
X106122315Y-65806450D01*
X106122317Y-65806452D01*
X106253589Y-65966410D01*
X106350209Y-66045702D01*
X106413550Y-66097685D01*
X106596046Y-66195232D01*
X106794066Y-66255300D01*
X106794065Y-66255300D01*
X106812529Y-66257118D01*
X107000000Y-66275583D01*
X107205934Y-66255300D01*
X107403954Y-66195232D01*
X107586450Y-66097685D01*
X107746410Y-65966410D01*
X107877685Y-65806450D01*
X107975232Y-65623954D01*
X108035300Y-65425934D01*
X108055583Y-65220000D01*
X108035300Y-65014066D01*
X107975232Y-64816046D01*
X107972264Y-64810493D01*
X107967620Y-64801804D01*
X107953379Y-64733401D01*
X107978380Y-64668157D01*
X107989290Y-64655679D01*
X113690460Y-58954511D01*
X113730021Y-58885989D01*
X113750500Y-58809562D01*
X113750500Y-49868578D01*
X113770185Y-49801539D01*
X113822989Y-49755784D01*
X113838488Y-49749923D01*
X113853954Y-49745232D01*
X114036450Y-49647685D01*
X114196410Y-49516410D01*
X114327685Y-49356450D01*
X114425232Y-49173954D01*
X114485300Y-48975934D01*
X114505583Y-48770000D01*
X114934417Y-48770000D01*
X114954699Y-48975932D01*
X114954700Y-48975934D01*
X115014768Y-49173954D01*
X115112315Y-49356450D01*
X115112317Y-49356452D01*
X115243589Y-49516410D01*
X115340209Y-49595702D01*
X115403550Y-49647685D01*
X115586046Y-49745232D01*
X115784066Y-49805300D01*
X115784065Y-49805300D01*
X115802529Y-49807118D01*
X115990000Y-49825583D01*
X116195934Y-49805300D01*
X116393954Y-49745232D01*
X116576450Y-49647685D01*
X116736410Y-49516410D01*
X116867685Y-49356450D01*
X116965232Y-49173954D01*
X117025300Y-48975934D01*
X117045583Y-48770000D01*
X117474417Y-48770000D01*
X117494699Y-48975932D01*
X117494700Y-48975934D01*
X117554768Y-49173954D01*
X117652315Y-49356450D01*
X117652317Y-49356452D01*
X117783589Y-49516410D01*
X117880209Y-49595702D01*
X117943550Y-49647685D01*
X118126046Y-49745232D01*
X118324066Y-49805300D01*
X118324065Y-49805300D01*
X118342529Y-49807118D01*
X118530000Y-49825583D01*
X118735934Y-49805300D01*
X118933954Y-49745232D01*
X119116450Y-49647685D01*
X119276410Y-49516410D01*
X119407685Y-49356450D01*
X119505232Y-49173954D01*
X119565300Y-48975934D01*
X119585583Y-48770000D01*
X120014417Y-48770000D01*
X120034699Y-48975932D01*
X120034700Y-48975934D01*
X120094768Y-49173954D01*
X120192315Y-49356450D01*
X120192317Y-49356452D01*
X120323589Y-49516410D01*
X120420209Y-49595702D01*
X120483550Y-49647685D01*
X120666046Y-49745232D01*
X120864066Y-49805300D01*
X120864065Y-49805300D01*
X120882529Y-49807118D01*
X121070000Y-49825583D01*
X121275934Y-49805300D01*
X121473954Y-49745232D01*
X121656450Y-49647685D01*
X121816410Y-49516410D01*
X121947685Y-49356450D01*
X122045232Y-49173954D01*
X122105300Y-48975934D01*
X122125583Y-48770000D01*
X122554417Y-48770000D01*
X122574699Y-48975932D01*
X122574700Y-48975934D01*
X122634768Y-49173954D01*
X122732315Y-49356450D01*
X122732317Y-49356452D01*
X122863589Y-49516410D01*
X122960209Y-49595702D01*
X123023550Y-49647685D01*
X123206046Y-49745232D01*
X123404066Y-49805300D01*
X123404065Y-49805300D01*
X123422529Y-49807118D01*
X123610000Y-49825583D01*
X123815934Y-49805300D01*
X124013954Y-49745232D01*
X124196450Y-49647685D01*
X124356410Y-49516410D01*
X124487685Y-49356450D01*
X124585232Y-49173954D01*
X124645300Y-48975934D01*
X124665583Y-48770000D01*
X125094417Y-48770000D01*
X125114699Y-48975932D01*
X125114700Y-48975934D01*
X125174768Y-49173954D01*
X125272315Y-49356450D01*
X125272317Y-49356452D01*
X125403589Y-49516410D01*
X125500209Y-49595702D01*
X125563550Y-49647685D01*
X125746046Y-49745232D01*
X125944066Y-49805300D01*
X125944065Y-49805300D01*
X125962529Y-49807118D01*
X126150000Y-49825583D01*
X126355934Y-49805300D01*
X126553954Y-49745232D01*
X126736450Y-49647685D01*
X126896410Y-49516410D01*
X127027685Y-49356450D01*
X127125232Y-49173954D01*
X127145406Y-49107446D01*
X127183702Y-49049010D01*
X127247514Y-49020553D01*
X127316581Y-49031112D01*
X127368975Y-49077336D01*
X127383841Y-49111349D01*
X127416567Y-49233486D01*
X127416570Y-49233492D01*
X127516399Y-49447578D01*
X127651894Y-49641082D01*
X127818917Y-49808105D01*
X128012421Y-49943600D01*
X128226507Y-50043429D01*
X128226516Y-50043433D01*
X128440000Y-50100634D01*
X128440000Y-49203012D01*
X128497007Y-49235925D01*
X128624174Y-49270000D01*
X128755826Y-49270000D01*
X128882993Y-49235925D01*
X128940000Y-49203012D01*
X128940000Y-50100633D01*
X129153483Y-50043433D01*
X129153492Y-50043429D01*
X129367578Y-49943600D01*
X129561082Y-49808105D01*
X129728105Y-49641082D01*
X129863600Y-49447578D01*
X129963429Y-49233492D01*
X129963433Y-49233483D01*
X129996158Y-49111350D01*
X130032522Y-49051690D01*
X130095369Y-49021160D01*
X130164745Y-49029454D01*
X130218623Y-49073939D01*
X130234593Y-49107447D01*
X130254768Y-49173954D01*
X130352315Y-49356450D01*
X130352317Y-49356452D01*
X130483589Y-49516410D01*
X130580209Y-49595702D01*
X130643550Y-49647685D01*
X130826046Y-49745232D01*
X131024066Y-49805300D01*
X131024065Y-49805300D01*
X131042529Y-49807118D01*
X131230000Y-49825583D01*
X131435934Y-49805300D01*
X131633954Y-49745232D01*
X131816450Y-49647685D01*
X131976410Y-49516410D01*
X132107685Y-49356450D01*
X132205232Y-49173954D01*
X132265300Y-48975934D01*
X132285583Y-48770000D01*
X132714417Y-48770000D01*
X132734699Y-48975932D01*
X132734700Y-48975934D01*
X132794768Y-49173954D01*
X132892315Y-49356450D01*
X132892317Y-49356452D01*
X133023589Y-49516410D01*
X133120209Y-49595702D01*
X133183550Y-49647685D01*
X133366046Y-49745232D01*
X133564066Y-49805300D01*
X133564065Y-49805300D01*
X133582529Y-49807118D01*
X133770000Y-49825583D01*
X133975934Y-49805300D01*
X134173954Y-49745232D01*
X134356450Y-49647685D01*
X134516410Y-49516410D01*
X134647685Y-49356450D01*
X134745232Y-49173954D01*
X134805300Y-48975934D01*
X134825583Y-48770000D01*
X135254417Y-48770000D01*
X135274699Y-48975932D01*
X135274700Y-48975934D01*
X135334768Y-49173954D01*
X135432315Y-49356450D01*
X135432317Y-49356452D01*
X135563589Y-49516410D01*
X135660209Y-49595702D01*
X135723550Y-49647685D01*
X135906046Y-49745232D01*
X136104066Y-49805300D01*
X136104065Y-49805300D01*
X136122529Y-49807118D01*
X136310000Y-49825583D01*
X136515934Y-49805300D01*
X136713954Y-49745232D01*
X136896450Y-49647685D01*
X137056410Y-49516410D01*
X137187685Y-49356450D01*
X137285232Y-49173954D01*
X137345300Y-48975934D01*
X137365583Y-48770000D01*
X137794417Y-48770000D01*
X137814699Y-48975932D01*
X137814700Y-48975934D01*
X137874768Y-49173954D01*
X137972315Y-49356450D01*
X137972317Y-49356452D01*
X138103589Y-49516410D01*
X138200209Y-49595702D01*
X138263550Y-49647685D01*
X138446046Y-49745232D01*
X138644066Y-49805300D01*
X138644065Y-49805300D01*
X138662529Y-49807118D01*
X138850000Y-49825583D01*
X139055934Y-49805300D01*
X139253954Y-49745232D01*
X139436450Y-49647685D01*
X139596410Y-49516410D01*
X139727685Y-49356450D01*
X139825232Y-49173954D01*
X139885300Y-48975934D01*
X139905583Y-48770000D01*
X140334417Y-48770000D01*
X140354699Y-48975932D01*
X140354700Y-48975934D01*
X140414768Y-49173954D01*
X140512315Y-49356450D01*
X140512317Y-49356452D01*
X140643589Y-49516410D01*
X140740209Y-49595702D01*
X140803550Y-49647685D01*
X140986046Y-49745232D01*
X141184066Y-49805300D01*
X141184065Y-49805300D01*
X141202529Y-49807118D01*
X141390000Y-49825583D01*
X141595934Y-49805300D01*
X141793954Y-49745232D01*
X141976450Y-49647685D01*
X142136410Y-49516410D01*
X142267685Y-49356450D01*
X142365232Y-49173954D01*
X142425300Y-48975934D01*
X142445583Y-48770000D01*
X142874417Y-48770000D01*
X142894699Y-48975932D01*
X142894700Y-48975934D01*
X142954768Y-49173954D01*
X143052315Y-49356450D01*
X143052317Y-49356452D01*
X143183589Y-49516410D01*
X143280209Y-49595702D01*
X143343550Y-49647685D01*
X143526046Y-49745232D01*
X143724066Y-49805300D01*
X143724065Y-49805300D01*
X143742529Y-49807118D01*
X143930000Y-49825583D01*
X144135934Y-49805300D01*
X144333954Y-49745232D01*
X144516450Y-49647685D01*
X144676410Y-49516410D01*
X144807685Y-49356450D01*
X144905232Y-49173954D01*
X144965300Y-48975934D01*
X144985583Y-48770000D01*
X145414417Y-48770000D01*
X145434699Y-48975932D01*
X145434700Y-48975934D01*
X145494768Y-49173954D01*
X145592315Y-49356450D01*
X145592317Y-49356452D01*
X145723589Y-49516410D01*
X145820209Y-49595702D01*
X145883550Y-49647685D01*
X146066046Y-49745232D01*
X146264066Y-49805300D01*
X146264065Y-49805300D01*
X146282529Y-49807118D01*
X146470000Y-49825583D01*
X146675934Y-49805300D01*
X146873954Y-49745232D01*
X147056450Y-49647685D01*
X147216410Y-49516410D01*
X147347685Y-49356450D01*
X147445232Y-49173954D01*
X147505300Y-48975934D01*
X147525583Y-48770000D01*
X147954417Y-48770000D01*
X147974699Y-48975932D01*
X147974700Y-48975934D01*
X148034768Y-49173954D01*
X148132315Y-49356450D01*
X148132317Y-49356452D01*
X148263589Y-49516410D01*
X148360209Y-49595702D01*
X148423550Y-49647685D01*
X148606046Y-49745232D01*
X148804066Y-49805300D01*
X148804065Y-49805300D01*
X148822529Y-49807118D01*
X149010000Y-49825583D01*
X149215934Y-49805300D01*
X149413954Y-49745232D01*
X149596450Y-49647685D01*
X149756410Y-49516410D01*
X149887685Y-49356450D01*
X149985232Y-49173954D01*
X150045300Y-48975934D01*
X150065583Y-48770000D01*
X150494417Y-48770000D01*
X150514699Y-48975932D01*
X150514700Y-48975934D01*
X150574768Y-49173954D01*
X150672315Y-49356450D01*
X150672317Y-49356452D01*
X150803589Y-49516410D01*
X150900209Y-49595702D01*
X150963550Y-49647685D01*
X151146046Y-49745232D01*
X151344066Y-49805300D01*
X151344065Y-49805300D01*
X151362529Y-49807118D01*
X151550000Y-49825583D01*
X151755934Y-49805300D01*
X151953954Y-49745232D01*
X152136450Y-49647685D01*
X152296410Y-49516410D01*
X152427685Y-49356450D01*
X152525232Y-49173954D01*
X152585300Y-48975934D01*
X152605583Y-48770000D01*
X153034417Y-48770000D01*
X153054699Y-48975932D01*
X153054700Y-48975934D01*
X153114768Y-49173954D01*
X153212315Y-49356450D01*
X153212317Y-49356452D01*
X153343589Y-49516410D01*
X153440209Y-49595702D01*
X153503550Y-49647685D01*
X153686046Y-49745232D01*
X153884066Y-49805300D01*
X153884065Y-49805300D01*
X153902529Y-49807118D01*
X154090000Y-49825583D01*
X154295934Y-49805300D01*
X154493954Y-49745232D01*
X154676450Y-49647685D01*
X154836410Y-49516410D01*
X154967685Y-49356450D01*
X155065232Y-49173954D01*
X155125300Y-48975934D01*
X155145583Y-48770000D01*
X155574417Y-48770000D01*
X155594699Y-48975932D01*
X155594700Y-48975934D01*
X155654768Y-49173954D01*
X155752315Y-49356450D01*
X155752317Y-49356452D01*
X155883589Y-49516410D01*
X155980209Y-49595702D01*
X156043550Y-49647685D01*
X156226046Y-49745232D01*
X156424066Y-49805300D01*
X156424065Y-49805300D01*
X156442529Y-49807118D01*
X156630000Y-49825583D01*
X156835934Y-49805300D01*
X157033954Y-49745232D01*
X157216450Y-49647685D01*
X157376410Y-49516410D01*
X157507685Y-49356450D01*
X157605232Y-49173954D01*
X157665300Y-48975934D01*
X157685583Y-48770000D01*
X157665300Y-48564066D01*
X157605232Y-48366046D01*
X157507685Y-48183550D01*
X157432897Y-48092420D01*
X157376410Y-48023589D01*
X157258677Y-47926969D01*
X157216450Y-47892315D01*
X157033954Y-47794768D01*
X156835934Y-47734700D01*
X156835932Y-47734699D01*
X156835934Y-47734699D01*
X156630000Y-47714417D01*
X156424067Y-47734699D01*
X156226043Y-47794769D01*
X156192634Y-47812627D01*
X156043550Y-47892315D01*
X156043548Y-47892316D01*
X156043547Y-47892317D01*
X155883589Y-48023589D01*
X155752317Y-48183547D01*
X155654769Y-48366043D01*
X155594699Y-48564067D01*
X155574417Y-48770000D01*
X155145583Y-48770000D01*
X155125300Y-48564066D01*
X155065232Y-48366046D01*
X154967685Y-48183550D01*
X154892897Y-48092420D01*
X154836410Y-48023589D01*
X154718677Y-47926969D01*
X154676450Y-47892315D01*
X154493954Y-47794768D01*
X154295934Y-47734700D01*
X154295932Y-47734699D01*
X154295934Y-47734699D01*
X154090000Y-47714417D01*
X153884067Y-47734699D01*
X153686043Y-47794769D01*
X153652634Y-47812627D01*
X153503550Y-47892315D01*
X153503548Y-47892316D01*
X153503547Y-47892317D01*
X153343589Y-48023589D01*
X153212317Y-48183547D01*
X153114769Y-48366043D01*
X153054699Y-48564067D01*
X153034417Y-48770000D01*
X152605583Y-48770000D01*
X152585300Y-48564066D01*
X152525232Y-48366046D01*
X152427685Y-48183550D01*
X152352897Y-48092420D01*
X152296410Y-48023589D01*
X152178677Y-47926969D01*
X152136450Y-47892315D01*
X151953954Y-47794768D01*
X151755934Y-47734700D01*
X151755932Y-47734699D01*
X151755934Y-47734699D01*
X151550000Y-47714417D01*
X151344067Y-47734699D01*
X151146043Y-47794769D01*
X151112634Y-47812627D01*
X150963550Y-47892315D01*
X150963548Y-47892316D01*
X150963547Y-47892317D01*
X150803589Y-48023589D01*
X150672317Y-48183547D01*
X150574769Y-48366043D01*
X150514699Y-48564067D01*
X150494417Y-48770000D01*
X150065583Y-48770000D01*
X150045300Y-48564066D01*
X149985232Y-48366046D01*
X149887685Y-48183550D01*
X149812897Y-48092420D01*
X149756410Y-48023589D01*
X149638677Y-47926969D01*
X149596450Y-47892315D01*
X149413954Y-47794768D01*
X149215934Y-47734700D01*
X149215932Y-47734699D01*
X149215934Y-47734699D01*
X149010000Y-47714417D01*
X148804067Y-47734699D01*
X148606043Y-47794769D01*
X148572634Y-47812627D01*
X148423550Y-47892315D01*
X148423548Y-47892316D01*
X148423547Y-47892317D01*
X148263589Y-48023589D01*
X148132317Y-48183547D01*
X148034769Y-48366043D01*
X147974699Y-48564067D01*
X147954417Y-48770000D01*
X147525583Y-48770000D01*
X147505300Y-48564066D01*
X147445232Y-48366046D01*
X147347685Y-48183550D01*
X147272897Y-48092420D01*
X147216410Y-48023589D01*
X147098677Y-47926969D01*
X147056450Y-47892315D01*
X146873954Y-47794768D01*
X146675934Y-47734700D01*
X146675932Y-47734699D01*
X146675934Y-47734699D01*
X146470000Y-47714417D01*
X146264067Y-47734699D01*
X146066043Y-47794769D01*
X146032634Y-47812627D01*
X145883550Y-47892315D01*
X145883548Y-47892316D01*
X145883547Y-47892317D01*
X145723589Y-48023589D01*
X145592317Y-48183547D01*
X145494769Y-48366043D01*
X145434699Y-48564067D01*
X145414417Y-48770000D01*
X144985583Y-48770000D01*
X144965300Y-48564066D01*
X144905232Y-48366046D01*
X144807685Y-48183550D01*
X144732897Y-48092420D01*
X144676410Y-48023589D01*
X144558677Y-47926969D01*
X144516450Y-47892315D01*
X144333954Y-47794768D01*
X144135934Y-47734700D01*
X144135932Y-47734699D01*
X144135934Y-47734699D01*
X143930000Y-47714417D01*
X143724067Y-47734699D01*
X143526043Y-47794769D01*
X143492634Y-47812627D01*
X143343550Y-47892315D01*
X143343548Y-47892316D01*
X143343547Y-47892317D01*
X143183589Y-48023589D01*
X143052317Y-48183547D01*
X142954769Y-48366043D01*
X142894699Y-48564067D01*
X142874417Y-48770000D01*
X142445583Y-48770000D01*
X142425300Y-48564066D01*
X142365232Y-48366046D01*
X142267685Y-48183550D01*
X142192897Y-48092420D01*
X142136410Y-48023589D01*
X142018677Y-47926969D01*
X141976450Y-47892315D01*
X141793954Y-47794768D01*
X141595934Y-47734700D01*
X141595932Y-47734699D01*
X141595934Y-47734699D01*
X141390000Y-47714417D01*
X141184067Y-47734699D01*
X140986043Y-47794769D01*
X140952634Y-47812627D01*
X140803550Y-47892315D01*
X140803548Y-47892316D01*
X140803547Y-47892317D01*
X140643589Y-48023589D01*
X140512317Y-48183547D01*
X140414769Y-48366043D01*
X140354699Y-48564067D01*
X140334417Y-48770000D01*
X139905583Y-48770000D01*
X139885300Y-48564066D01*
X139825232Y-48366046D01*
X139727685Y-48183550D01*
X139652897Y-48092420D01*
X139596410Y-48023589D01*
X139478677Y-47926969D01*
X139436450Y-47892315D01*
X139253954Y-47794768D01*
X139055934Y-47734700D01*
X139055932Y-47734699D01*
X139055934Y-47734699D01*
X138850000Y-47714417D01*
X138644067Y-47734699D01*
X138446043Y-47794769D01*
X138412634Y-47812627D01*
X138263550Y-47892315D01*
X138263548Y-47892316D01*
X138263547Y-47892317D01*
X138103589Y-48023589D01*
X137972317Y-48183547D01*
X137874769Y-48366043D01*
X137814699Y-48564067D01*
X137794417Y-48770000D01*
X137365583Y-48770000D01*
X137345300Y-48564066D01*
X137285232Y-48366046D01*
X137187685Y-48183550D01*
X137112897Y-48092420D01*
X137056410Y-48023589D01*
X136938677Y-47926969D01*
X136896450Y-47892315D01*
X136713954Y-47794768D01*
X136515934Y-47734700D01*
X136515932Y-47734699D01*
X136515934Y-47734699D01*
X136310000Y-47714417D01*
X136104067Y-47734699D01*
X135906043Y-47794769D01*
X135872634Y-47812627D01*
X135723550Y-47892315D01*
X135723548Y-47892316D01*
X135723547Y-47892317D01*
X135563589Y-48023589D01*
X135432317Y-48183547D01*
X135334769Y-48366043D01*
X135274699Y-48564067D01*
X135254417Y-48770000D01*
X134825583Y-48770000D01*
X134805300Y-48564066D01*
X134745232Y-48366046D01*
X134647685Y-48183550D01*
X134572897Y-48092420D01*
X134516410Y-48023589D01*
X134398677Y-47926969D01*
X134356450Y-47892315D01*
X134173954Y-47794768D01*
X133975934Y-47734700D01*
X133975932Y-47734699D01*
X133975934Y-47734699D01*
X133770000Y-47714417D01*
X133564067Y-47734699D01*
X133366043Y-47794769D01*
X133332634Y-47812627D01*
X133183550Y-47892315D01*
X133183548Y-47892316D01*
X133183547Y-47892317D01*
X133023589Y-48023589D01*
X132892317Y-48183547D01*
X132794769Y-48366043D01*
X132734699Y-48564067D01*
X132714417Y-48770000D01*
X132285583Y-48770000D01*
X132265300Y-48564066D01*
X132205232Y-48366046D01*
X132107685Y-48183550D01*
X132032897Y-48092420D01*
X131976410Y-48023589D01*
X131858677Y-47926969D01*
X131816450Y-47892315D01*
X131633954Y-47794768D01*
X131435934Y-47734700D01*
X131435932Y-47734699D01*
X131435934Y-47734699D01*
X131230000Y-47714417D01*
X131024067Y-47734699D01*
X130826043Y-47794769D01*
X130792634Y-47812627D01*
X130643550Y-47892315D01*
X130643548Y-47892316D01*
X130643547Y-47892317D01*
X130483589Y-48023589D01*
X130352317Y-48183547D01*
X130254767Y-48366046D01*
X130234593Y-48432552D01*
X130196296Y-48490990D01*
X130132483Y-48519447D01*
X130063416Y-48508886D01*
X130011023Y-48462661D01*
X129996158Y-48428649D01*
X129963433Y-48306516D01*
X129963429Y-48306507D01*
X129863600Y-48092422D01*
X129863599Y-48092420D01*
X129728113Y-47898926D01*
X129728108Y-47898920D01*
X129561082Y-47731894D01*
X129367578Y-47596399D01*
X129153492Y-47496570D01*
X129153486Y-47496567D01*
X129031349Y-47463841D01*
X128971689Y-47427476D01*
X128941160Y-47364629D01*
X128949455Y-47295253D01*
X128993940Y-47241375D01*
X129027444Y-47225407D01*
X129093954Y-47205232D01*
X129276450Y-47107685D01*
X129436410Y-46976410D01*
X129567685Y-46816450D01*
X129665232Y-46633954D01*
X129725300Y-46435934D01*
X129745583Y-46230000D01*
X130174417Y-46230000D01*
X130194699Y-46435932D01*
X130194700Y-46435934D01*
X130254768Y-46633954D01*
X130352315Y-46816450D01*
X130352317Y-46816452D01*
X130483589Y-46976410D01*
X130580209Y-47055702D01*
X130643550Y-47107685D01*
X130826046Y-47205232D01*
X131024066Y-47265300D01*
X131024065Y-47265300D01*
X131042529Y-47267118D01*
X131230000Y-47285583D01*
X131435934Y-47265300D01*
X131633954Y-47205232D01*
X131816450Y-47107685D01*
X131976410Y-46976410D01*
X132107685Y-46816450D01*
X132205232Y-46633954D01*
X132265300Y-46435934D01*
X132285583Y-46230000D01*
X132714417Y-46230000D01*
X132734699Y-46435932D01*
X132734700Y-46435934D01*
X132794768Y-46633954D01*
X132892315Y-46816450D01*
X132892317Y-46816452D01*
X133023589Y-46976410D01*
X133120209Y-47055702D01*
X133183550Y-47107685D01*
X133366046Y-47205232D01*
X133564066Y-47265300D01*
X133564065Y-47265300D01*
X133582529Y-47267118D01*
X133770000Y-47285583D01*
X133975934Y-47265300D01*
X134173954Y-47205232D01*
X134356450Y-47107685D01*
X134516410Y-46976410D01*
X134647685Y-46816450D01*
X134745232Y-46633954D01*
X134805300Y-46435934D01*
X134825583Y-46230000D01*
X135254417Y-46230000D01*
X135274699Y-46435932D01*
X135274700Y-46435934D01*
X135334768Y-46633954D01*
X135432315Y-46816450D01*
X135432317Y-46816452D01*
X135563589Y-46976410D01*
X135660209Y-47055702D01*
X135723550Y-47107685D01*
X135906046Y-47205232D01*
X136104066Y-47265300D01*
X136104065Y-47265300D01*
X136122529Y-47267118D01*
X136310000Y-47285583D01*
X136515934Y-47265300D01*
X136713954Y-47205232D01*
X136896450Y-47107685D01*
X137056410Y-46976410D01*
X137187685Y-46816450D01*
X137285232Y-46633954D01*
X137345300Y-46435934D01*
X137365583Y-46230000D01*
X137794417Y-46230000D01*
X137814699Y-46435932D01*
X137814700Y-46435934D01*
X137874768Y-46633954D01*
X137972315Y-46816450D01*
X137972317Y-46816452D01*
X138103589Y-46976410D01*
X138200209Y-47055702D01*
X138263550Y-47107685D01*
X138446046Y-47205232D01*
X138644066Y-47265300D01*
X138644065Y-47265300D01*
X138662529Y-47267118D01*
X138850000Y-47285583D01*
X139055934Y-47265300D01*
X139253954Y-47205232D01*
X139436450Y-47107685D01*
X139596410Y-46976410D01*
X139727685Y-46816450D01*
X139825232Y-46633954D01*
X139885300Y-46435934D01*
X139905583Y-46230000D01*
X140334417Y-46230000D01*
X140354699Y-46435932D01*
X140354700Y-46435934D01*
X140414768Y-46633954D01*
X140512315Y-46816450D01*
X140512317Y-46816452D01*
X140643589Y-46976410D01*
X140740209Y-47055702D01*
X140803550Y-47107685D01*
X140986046Y-47205232D01*
X141184066Y-47265300D01*
X141184065Y-47265300D01*
X141202529Y-47267118D01*
X141390000Y-47285583D01*
X141595934Y-47265300D01*
X141793954Y-47205232D01*
X141976450Y-47107685D01*
X142136410Y-46976410D01*
X142267685Y-46816450D01*
X142365232Y-46633954D01*
X142425300Y-46435934D01*
X142445583Y-46230000D01*
X142874417Y-46230000D01*
X142894699Y-46435932D01*
X142894700Y-46435934D01*
X142954768Y-46633954D01*
X143052315Y-46816450D01*
X143052317Y-46816452D01*
X143183589Y-46976410D01*
X143280209Y-47055702D01*
X143343550Y-47107685D01*
X143526046Y-47205232D01*
X143724066Y-47265300D01*
X143724065Y-47265300D01*
X143742529Y-47267118D01*
X143930000Y-47285583D01*
X144135934Y-47265300D01*
X144333954Y-47205232D01*
X144516450Y-47107685D01*
X144676410Y-46976410D01*
X144807685Y-46816450D01*
X144905232Y-46633954D01*
X144965300Y-46435934D01*
X144985583Y-46230000D01*
X145414417Y-46230000D01*
X145434699Y-46435932D01*
X145434700Y-46435934D01*
X145494768Y-46633954D01*
X145592315Y-46816450D01*
X145592317Y-46816452D01*
X145723589Y-46976410D01*
X145820209Y-47055702D01*
X145883550Y-47107685D01*
X146066046Y-47205232D01*
X146264066Y-47265300D01*
X146264065Y-47265300D01*
X146282529Y-47267118D01*
X146470000Y-47285583D01*
X146675934Y-47265300D01*
X146873954Y-47205232D01*
X147056450Y-47107685D01*
X147216410Y-46976410D01*
X147347685Y-46816450D01*
X147445232Y-46633954D01*
X147505300Y-46435934D01*
X147525583Y-46230000D01*
X147954417Y-46230000D01*
X147974699Y-46435932D01*
X147974700Y-46435934D01*
X148034768Y-46633954D01*
X148132315Y-46816450D01*
X148132317Y-46816452D01*
X148263589Y-46976410D01*
X148360209Y-47055702D01*
X148423550Y-47107685D01*
X148606046Y-47205232D01*
X148804066Y-47265300D01*
X148804065Y-47265300D01*
X148822529Y-47267118D01*
X149010000Y-47285583D01*
X149215934Y-47265300D01*
X149413954Y-47205232D01*
X149596450Y-47107685D01*
X149756410Y-46976410D01*
X149887685Y-46816450D01*
X149985232Y-46633954D01*
X150045300Y-46435934D01*
X150065583Y-46230000D01*
X150494417Y-46230000D01*
X150514699Y-46435932D01*
X150514700Y-46435934D01*
X150574768Y-46633954D01*
X150672315Y-46816450D01*
X150672317Y-46816452D01*
X150803589Y-46976410D01*
X150900209Y-47055702D01*
X150963550Y-47107685D01*
X151146046Y-47205232D01*
X151344066Y-47265300D01*
X151344065Y-47265300D01*
X151362529Y-47267118D01*
X151550000Y-47285583D01*
X151755934Y-47265300D01*
X151953954Y-47205232D01*
X152136450Y-47107685D01*
X152296410Y-46976410D01*
X152427685Y-46816450D01*
X152525232Y-46633954D01*
X152585300Y-46435934D01*
X152605583Y-46230000D01*
X153034417Y-46230000D01*
X153054699Y-46435932D01*
X153054700Y-46435934D01*
X153114768Y-46633954D01*
X153212315Y-46816450D01*
X153212317Y-46816452D01*
X153343589Y-46976410D01*
X153440209Y-47055702D01*
X153503550Y-47107685D01*
X153686046Y-47205232D01*
X153884066Y-47265300D01*
X153884065Y-47265300D01*
X153902529Y-47267118D01*
X154090000Y-47285583D01*
X154295934Y-47265300D01*
X154493954Y-47205232D01*
X154676450Y-47107685D01*
X154836410Y-46976410D01*
X154967685Y-46816450D01*
X155065232Y-46633954D01*
X155125300Y-46435934D01*
X155145583Y-46230000D01*
X155574417Y-46230000D01*
X155594699Y-46435932D01*
X155594700Y-46435934D01*
X155654768Y-46633954D01*
X155752315Y-46816450D01*
X155752317Y-46816452D01*
X155883589Y-46976410D01*
X155980209Y-47055702D01*
X156043550Y-47107685D01*
X156226046Y-47205232D01*
X156424066Y-47265300D01*
X156424065Y-47265300D01*
X156442529Y-47267118D01*
X156630000Y-47285583D01*
X156835934Y-47265300D01*
X157033954Y-47205232D01*
X157216450Y-47107685D01*
X157376410Y-46976410D01*
X157507685Y-46816450D01*
X157605232Y-46633954D01*
X157665300Y-46435934D01*
X157685583Y-46230000D01*
X157665300Y-46024066D01*
X157605232Y-45826046D01*
X157507685Y-45643550D01*
X157455702Y-45580209D01*
X157376410Y-45483589D01*
X157216452Y-45352317D01*
X157216453Y-45352317D01*
X157216450Y-45352315D01*
X157033954Y-45254768D01*
X156835934Y-45194700D01*
X156835932Y-45194699D01*
X156835934Y-45194699D01*
X156630000Y-45174417D01*
X156424067Y-45194699D01*
X156226043Y-45254769D01*
X156115898Y-45313643D01*
X156043550Y-45352315D01*
X156043548Y-45352316D01*
X156043547Y-45352317D01*
X155883589Y-45483589D01*
X155752317Y-45643547D01*
X155654769Y-45826043D01*
X155594699Y-46024067D01*
X155574417Y-46230000D01*
X155145583Y-46230000D01*
X155125300Y-46024066D01*
X155065232Y-45826046D01*
X154967685Y-45643550D01*
X154915702Y-45580209D01*
X154836410Y-45483589D01*
X154676452Y-45352317D01*
X154676453Y-45352317D01*
X154676450Y-45352315D01*
X154493954Y-45254768D01*
X154295934Y-45194700D01*
X154295932Y-45194699D01*
X154295934Y-45194699D01*
X154090000Y-45174417D01*
X153884067Y-45194699D01*
X153686043Y-45254769D01*
X153575898Y-45313643D01*
X153503550Y-45352315D01*
X153503548Y-45352316D01*
X153503547Y-45352317D01*
X153343589Y-45483589D01*
X153212317Y-45643547D01*
X153114769Y-45826043D01*
X153054699Y-46024067D01*
X153034417Y-46230000D01*
X152605583Y-46230000D01*
X152585300Y-46024066D01*
X152525232Y-45826046D01*
X152427685Y-45643550D01*
X152375702Y-45580209D01*
X152296410Y-45483589D01*
X152136452Y-45352317D01*
X152136453Y-45352317D01*
X152136450Y-45352315D01*
X151953954Y-45254768D01*
X151755934Y-45194700D01*
X151755932Y-45194699D01*
X151755934Y-45194699D01*
X151550000Y-45174417D01*
X151344067Y-45194699D01*
X151146043Y-45254769D01*
X151035898Y-45313643D01*
X150963550Y-45352315D01*
X150963548Y-45352316D01*
X150963547Y-45352317D01*
X150803589Y-45483589D01*
X150672317Y-45643547D01*
X150574769Y-45826043D01*
X150514699Y-46024067D01*
X150494417Y-46230000D01*
X150065583Y-46230000D01*
X150045300Y-46024066D01*
X149985232Y-45826046D01*
X149887685Y-45643550D01*
X149835702Y-45580209D01*
X149756410Y-45483589D01*
X149596452Y-45352317D01*
X149596453Y-45352317D01*
X149596450Y-45352315D01*
X149413954Y-45254768D01*
X149215934Y-45194700D01*
X149215932Y-45194699D01*
X149215934Y-45194699D01*
X149010000Y-45174417D01*
X148804067Y-45194699D01*
X148606043Y-45254769D01*
X148495898Y-45313643D01*
X148423550Y-45352315D01*
X148423548Y-45352316D01*
X148423547Y-45352317D01*
X148263589Y-45483589D01*
X148132317Y-45643547D01*
X148034769Y-45826043D01*
X147974699Y-46024067D01*
X147954417Y-46230000D01*
X147525583Y-46230000D01*
X147505300Y-46024066D01*
X147445232Y-45826046D01*
X147347685Y-45643550D01*
X147295702Y-45580209D01*
X147216410Y-45483589D01*
X147056452Y-45352317D01*
X147056453Y-45352317D01*
X147056450Y-45352315D01*
X146873954Y-45254768D01*
X146675934Y-45194700D01*
X146675932Y-45194699D01*
X146675934Y-45194699D01*
X146470000Y-45174417D01*
X146264067Y-45194699D01*
X146066043Y-45254769D01*
X145955898Y-45313643D01*
X145883550Y-45352315D01*
X145883548Y-45352316D01*
X145883547Y-45352317D01*
X145723589Y-45483589D01*
X145592317Y-45643547D01*
X145494769Y-45826043D01*
X145434699Y-46024067D01*
X145414417Y-46230000D01*
X144985583Y-46230000D01*
X144965300Y-46024066D01*
X144905232Y-45826046D01*
X144807685Y-45643550D01*
X144755702Y-45580209D01*
X144676410Y-45483589D01*
X144516452Y-45352317D01*
X144516453Y-45352317D01*
X144516450Y-45352315D01*
X144333954Y-45254768D01*
X144135934Y-45194700D01*
X144135932Y-45194699D01*
X144135934Y-45194699D01*
X143930000Y-45174417D01*
X143724067Y-45194699D01*
X143526043Y-45254769D01*
X143415898Y-45313643D01*
X143343550Y-45352315D01*
X143343548Y-45352316D01*
X143343547Y-45352317D01*
X143183589Y-45483589D01*
X143052317Y-45643547D01*
X142954769Y-45826043D01*
X142894699Y-46024067D01*
X142874417Y-46230000D01*
X142445583Y-46230000D01*
X142425300Y-46024066D01*
X142365232Y-45826046D01*
X142267685Y-45643550D01*
X142215702Y-45580209D01*
X142136410Y-45483589D01*
X141976452Y-45352317D01*
X141976453Y-45352317D01*
X141976450Y-45352315D01*
X141793954Y-45254768D01*
X141595934Y-45194700D01*
X141595932Y-45194699D01*
X141595934Y-45194699D01*
X141390000Y-45174417D01*
X141184067Y-45194699D01*
X140986043Y-45254769D01*
X140875898Y-45313643D01*
X140803550Y-45352315D01*
X140803548Y-45352316D01*
X140803547Y-45352317D01*
X140643589Y-45483589D01*
X140512317Y-45643547D01*
X140414769Y-45826043D01*
X140354699Y-46024067D01*
X140334417Y-46230000D01*
X139905583Y-46230000D01*
X139885300Y-46024066D01*
X139825232Y-45826046D01*
X139727685Y-45643550D01*
X139675702Y-45580209D01*
X139596410Y-45483589D01*
X139436452Y-45352317D01*
X139436453Y-45352317D01*
X139436450Y-45352315D01*
X139253954Y-45254768D01*
X139055934Y-45194700D01*
X139055932Y-45194699D01*
X139055934Y-45194699D01*
X138850000Y-45174417D01*
X138644067Y-45194699D01*
X138446043Y-45254769D01*
X138335898Y-45313643D01*
X138263550Y-45352315D01*
X138263548Y-45352316D01*
X138263547Y-45352317D01*
X138103589Y-45483589D01*
X137972317Y-45643547D01*
X137874769Y-45826043D01*
X137814699Y-46024067D01*
X137794417Y-46230000D01*
X137365583Y-46230000D01*
X137345300Y-46024066D01*
X137285232Y-45826046D01*
X137187685Y-45643550D01*
X137135702Y-45580209D01*
X137056410Y-45483589D01*
X136896452Y-45352317D01*
X136896453Y-45352317D01*
X136896450Y-45352315D01*
X136713954Y-45254768D01*
X136515934Y-45194700D01*
X136515932Y-45194699D01*
X136515934Y-45194699D01*
X136310000Y-45174417D01*
X136104067Y-45194699D01*
X135906043Y-45254769D01*
X135795898Y-45313643D01*
X135723550Y-45352315D01*
X135723548Y-45352316D01*
X135723547Y-45352317D01*
X135563589Y-45483589D01*
X135432317Y-45643547D01*
X135334769Y-45826043D01*
X135274699Y-46024067D01*
X135254417Y-46230000D01*
X134825583Y-46230000D01*
X134805300Y-46024066D01*
X134745232Y-45826046D01*
X134647685Y-45643550D01*
X134595702Y-45580209D01*
X134516410Y-45483589D01*
X134356452Y-45352317D01*
X134356453Y-45352317D01*
X134356450Y-45352315D01*
X134173954Y-45254768D01*
X133975934Y-45194700D01*
X133975932Y-45194699D01*
X133975934Y-45194699D01*
X133770000Y-45174417D01*
X133564067Y-45194699D01*
X133366043Y-45254769D01*
X133255898Y-45313643D01*
X133183550Y-45352315D01*
X133183548Y-45352316D01*
X133183547Y-45352317D01*
X133023589Y-45483589D01*
X132892317Y-45643547D01*
X132794769Y-45826043D01*
X132734699Y-46024067D01*
X132714417Y-46230000D01*
X132285583Y-46230000D01*
X132265300Y-46024066D01*
X132205232Y-45826046D01*
X132107685Y-45643550D01*
X132055702Y-45580209D01*
X131976410Y-45483589D01*
X131816452Y-45352317D01*
X131816453Y-45352317D01*
X131816450Y-45352315D01*
X131633954Y-45254768D01*
X131435934Y-45194700D01*
X131435932Y-45194699D01*
X131435934Y-45194699D01*
X131230000Y-45174417D01*
X131024067Y-45194699D01*
X130826043Y-45254769D01*
X130715898Y-45313643D01*
X130643550Y-45352315D01*
X130643548Y-45352316D01*
X130643547Y-45352317D01*
X130483589Y-45483589D01*
X130352317Y-45643547D01*
X130254769Y-45826043D01*
X130194699Y-46024067D01*
X130174417Y-46230000D01*
X129745583Y-46230000D01*
X129725300Y-46024066D01*
X129665232Y-45826046D01*
X129567685Y-45643550D01*
X129515702Y-45580209D01*
X129436410Y-45483589D01*
X129276452Y-45352317D01*
X129276453Y-45352317D01*
X129276450Y-45352315D01*
X129093954Y-45254768D01*
X128895934Y-45194700D01*
X128895932Y-45194699D01*
X128895934Y-45194699D01*
X128690000Y-45174417D01*
X128484067Y-45194699D01*
X128286043Y-45254769D01*
X128175898Y-45313643D01*
X128103550Y-45352315D01*
X128103548Y-45352316D01*
X128103547Y-45352317D01*
X127943589Y-45483589D01*
X127812317Y-45643547D01*
X127714769Y-45826043D01*
X127654699Y-46024067D01*
X127634417Y-46230000D01*
X127654699Y-46435932D01*
X127654700Y-46435934D01*
X127714768Y-46633954D01*
X127812315Y-46816450D01*
X127812317Y-46816452D01*
X127943589Y-46976410D01*
X128040209Y-47055702D01*
X128103550Y-47107685D01*
X128286046Y-47205232D01*
X128352551Y-47225405D01*
X128410989Y-47263702D01*
X128439446Y-47327514D01*
X128428887Y-47396581D01*
X128382663Y-47448975D01*
X128348650Y-47463841D01*
X128226514Y-47496567D01*
X128226507Y-47496570D01*
X128012422Y-47596399D01*
X128012420Y-47596400D01*
X127818926Y-47731886D01*
X127818920Y-47731891D01*
X127651891Y-47898920D01*
X127651886Y-47898926D01*
X127516400Y-48092420D01*
X127516399Y-48092422D01*
X127416570Y-48306507D01*
X127416567Y-48306514D01*
X127383841Y-48428650D01*
X127347476Y-48488310D01*
X127284629Y-48518839D01*
X127215253Y-48510544D01*
X127161375Y-48466059D01*
X127145406Y-48432552D01*
X127125232Y-48366046D01*
X127027685Y-48183550D01*
X126952897Y-48092420D01*
X126896410Y-48023589D01*
X126778677Y-47926969D01*
X126736450Y-47892315D01*
X126553954Y-47794768D01*
X126355934Y-47734700D01*
X126355932Y-47734699D01*
X126355934Y-47734699D01*
X126150000Y-47714417D01*
X125944067Y-47734699D01*
X125746043Y-47794769D01*
X125712634Y-47812627D01*
X125563550Y-47892315D01*
X125563548Y-47892316D01*
X125563547Y-47892317D01*
X125403589Y-48023589D01*
X125272317Y-48183547D01*
X125174769Y-48366043D01*
X125114699Y-48564067D01*
X125094417Y-48770000D01*
X124665583Y-48770000D01*
X124645300Y-48564066D01*
X124585232Y-48366046D01*
X124487685Y-48183550D01*
X124412897Y-48092420D01*
X124356410Y-48023589D01*
X124238677Y-47926969D01*
X124196450Y-47892315D01*
X124013954Y-47794768D01*
X123815934Y-47734700D01*
X123815932Y-47734699D01*
X123815934Y-47734699D01*
X123610000Y-47714417D01*
X123404067Y-47734699D01*
X123206043Y-47794769D01*
X123172634Y-47812627D01*
X123023550Y-47892315D01*
X123023548Y-47892316D01*
X123023547Y-47892317D01*
X122863589Y-48023589D01*
X122732317Y-48183547D01*
X122634769Y-48366043D01*
X122574699Y-48564067D01*
X122554417Y-48770000D01*
X122125583Y-48770000D01*
X122105300Y-48564066D01*
X122045232Y-48366046D01*
X121947685Y-48183550D01*
X121872897Y-48092420D01*
X121816410Y-48023589D01*
X121698677Y-47926969D01*
X121656450Y-47892315D01*
X121473954Y-47794768D01*
X121275934Y-47734700D01*
X121275932Y-47734699D01*
X121275934Y-47734699D01*
X121070000Y-47714417D01*
X120864067Y-47734699D01*
X120666043Y-47794769D01*
X120632634Y-47812627D01*
X120483550Y-47892315D01*
X120483548Y-47892316D01*
X120483547Y-47892317D01*
X120323589Y-48023589D01*
X120192317Y-48183547D01*
X120094769Y-48366043D01*
X120034699Y-48564067D01*
X120014417Y-48770000D01*
X119585583Y-48770000D01*
X119565300Y-48564066D01*
X119505232Y-48366046D01*
X119407685Y-48183550D01*
X119332897Y-48092420D01*
X119276410Y-48023589D01*
X119158677Y-47926969D01*
X119116450Y-47892315D01*
X118933954Y-47794768D01*
X118735934Y-47734700D01*
X118735932Y-47734699D01*
X118735934Y-47734699D01*
X118530000Y-47714417D01*
X118324067Y-47734699D01*
X118126043Y-47794769D01*
X118092634Y-47812627D01*
X117943550Y-47892315D01*
X117943548Y-47892316D01*
X117943547Y-47892317D01*
X117783589Y-48023589D01*
X117652317Y-48183547D01*
X117554769Y-48366043D01*
X117494699Y-48564067D01*
X117474417Y-48770000D01*
X117045583Y-48770000D01*
X117025300Y-48564066D01*
X116965232Y-48366046D01*
X116867685Y-48183550D01*
X116792897Y-48092420D01*
X116736410Y-48023589D01*
X116618677Y-47926969D01*
X116576450Y-47892315D01*
X116393954Y-47794768D01*
X116195934Y-47734700D01*
X116195932Y-47734699D01*
X116195934Y-47734699D01*
X115990000Y-47714417D01*
X115784067Y-47734699D01*
X115586043Y-47794769D01*
X115552634Y-47812627D01*
X115403550Y-47892315D01*
X115403548Y-47892316D01*
X115403547Y-47892317D01*
X115243589Y-48023589D01*
X115112317Y-48183547D01*
X115014769Y-48366043D01*
X114954699Y-48564067D01*
X114934417Y-48770000D01*
X114505583Y-48770000D01*
X114485300Y-48564066D01*
X114425232Y-48366046D01*
X114327685Y-48183550D01*
X114252897Y-48092420D01*
X114196410Y-48023589D01*
X114078677Y-47926969D01*
X114036450Y-47892315D01*
X113853954Y-47794768D01*
X113655934Y-47734700D01*
X113655932Y-47734699D01*
X113655934Y-47734699D01*
X113450000Y-47714417D01*
X113244067Y-47734699D01*
X113046043Y-47794769D01*
X113012634Y-47812627D01*
X112863550Y-47892315D01*
X112863548Y-47892316D01*
X112863547Y-47892317D01*
X112703589Y-48023589D01*
X112572317Y-48183547D01*
X112474769Y-48366043D01*
X112414699Y-48564067D01*
X112394417Y-48770000D01*
X112414699Y-48975932D01*
X112414700Y-48975934D01*
X112474768Y-49173954D01*
X112572315Y-49356450D01*
X112572317Y-49356452D01*
X112703589Y-49516410D01*
X112800209Y-49595702D01*
X112863550Y-49647685D01*
X113046046Y-49745232D01*
X113061496Y-49749918D01*
X113119932Y-49788212D01*
X113148390Y-49852024D01*
X113149500Y-49868578D01*
X113149500Y-58594166D01*
X113129815Y-58661205D01*
X113113181Y-58681847D01*
X107564326Y-64230701D01*
X107503003Y-64264186D01*
X107433311Y-64259202D01*
X107418193Y-64252379D01*
X107403956Y-64244769D01*
X107403955Y-64244768D01*
X107403954Y-64244768D01*
X107205934Y-64184700D01*
X107205932Y-64184699D01*
X107205934Y-64184699D01*
X107000000Y-64164417D01*
X106794067Y-64184699D01*
X106596043Y-64244769D01*
X106487995Y-64302523D01*
X106413550Y-64342315D01*
X106413548Y-64342316D01*
X106413547Y-64342317D01*
X106253589Y-64473589D01*
X106122317Y-64633547D01*
X106024769Y-64816043D01*
X105964699Y-65014067D01*
X105944417Y-65220000D01*
X105450500Y-65220000D01*
X105450500Y-60515061D01*
X105470185Y-60448022D01*
X105522989Y-60402267D01*
X105592147Y-60392323D01*
X105655703Y-60421348D01*
X105693477Y-60480126D01*
X105694275Y-60482968D01*
X105726566Y-60603483D01*
X105726570Y-60603492D01*
X105826398Y-60817576D01*
X105885073Y-60901372D01*
X106517037Y-60269408D01*
X106534075Y-60332993D01*
X106599901Y-60447007D01*
X106692993Y-60540099D01*
X106807007Y-60605925D01*
X106870591Y-60622962D01*
X106238626Y-61254926D01*
X106322417Y-61313598D01*
X106322421Y-61313600D01*
X106536507Y-61413429D01*
X106536516Y-61413433D01*
X106658649Y-61446158D01*
X106718310Y-61482523D01*
X106748839Y-61545369D01*
X106740545Y-61614745D01*
X106696059Y-61668623D01*
X106662552Y-61684593D01*
X106596046Y-61704767D01*
X106465358Y-61774622D01*
X106413550Y-61802315D01*
X106413548Y-61802316D01*
X106413547Y-61802317D01*
X106253589Y-61933589D01*
X106122317Y-62093547D01*
X106024769Y-62276043D01*
X105964699Y-62474067D01*
X105944417Y-62680000D01*
X105964699Y-62885932D01*
X105987167Y-62959998D01*
X106024768Y-63083954D01*
X106122315Y-63266450D01*
X106153863Y-63304892D01*
X106253589Y-63426410D01*
X106347504Y-63503483D01*
X106413550Y-63557685D01*
X106596046Y-63655232D01*
X106794066Y-63715300D01*
X106794065Y-63715300D01*
X106812529Y-63717118D01*
X107000000Y-63735583D01*
X107205934Y-63715300D01*
X107403954Y-63655232D01*
X107586450Y-63557685D01*
X107746410Y-63426410D01*
X107877685Y-63266450D01*
X107975232Y-63083954D01*
X108035300Y-62885934D01*
X108055583Y-62680000D01*
X108035300Y-62474066D01*
X107975232Y-62276046D01*
X107877685Y-62093550D01*
X107825702Y-62030209D01*
X107746410Y-61933589D01*
X107586452Y-61802317D01*
X107586453Y-61802317D01*
X107586450Y-61802315D01*
X107403954Y-61704768D01*
X107337447Y-61684593D01*
X107279009Y-61646296D01*
X107250553Y-61582484D01*
X107261113Y-61513417D01*
X107307337Y-61461023D01*
X107341350Y-61446158D01*
X107463483Y-61413433D01*
X107463492Y-61413429D01*
X107677580Y-61313599D01*
X107761371Y-61254925D01*
X107129408Y-60622962D01*
X107192993Y-60605925D01*
X107307007Y-60540099D01*
X107400099Y-60447007D01*
X107465925Y-60332993D01*
X107482962Y-60269408D01*
X108114925Y-60901371D01*
X108173599Y-60817580D01*
X108273429Y-60603492D01*
X108273433Y-60603483D01*
X108334567Y-60375326D01*
X108334569Y-60375315D01*
X108355157Y-60140001D01*
X108355157Y-60139998D01*
X108334569Y-59904684D01*
X108334567Y-59904673D01*
X108273433Y-59676516D01*
X108273429Y-59676507D01*
X108173601Y-59462424D01*
X108114925Y-59378626D01*
X107482962Y-60010590D01*
X107465925Y-59947007D01*
X107400099Y-59832993D01*
X107307007Y-59739901D01*
X107192993Y-59674075D01*
X107129409Y-59657037D01*
X107761372Y-59025073D01*
X107677576Y-58966398D01*
X107463492Y-58866570D01*
X107463483Y-58866566D01*
X107235326Y-58805432D01*
X107235315Y-58805430D01*
X107000002Y-58784843D01*
X106999998Y-58784843D01*
X106764684Y-58805430D01*
X106764673Y-58805432D01*
X106536516Y-58866566D01*
X106536507Y-58866570D01*
X106322423Y-58966399D01*
X106322421Y-58966400D01*
X106238627Y-59025073D01*
X106238626Y-59025073D01*
X106870591Y-59657037D01*
X106807007Y-59674075D01*
X106692993Y-59739901D01*
X106599901Y-59832993D01*
X106534075Y-59947007D01*
X106517037Y-60010590D01*
X105885073Y-59378626D01*
X105885073Y-59378627D01*
X105826400Y-59462421D01*
X105826399Y-59462423D01*
X105726570Y-59676507D01*
X105726566Y-59676516D01*
X105694275Y-59797031D01*
X105657910Y-59856692D01*
X105595063Y-59887221D01*
X105525687Y-59878926D01*
X105471810Y-59834441D01*
X105450535Y-59767889D01*
X105450500Y-59764938D01*
X105450500Y-54705832D01*
X105470185Y-54638793D01*
X105486814Y-54618156D01*
X110345673Y-49759296D01*
X110406994Y-49725813D01*
X110476686Y-49730797D01*
X110491804Y-49737620D01*
X110500493Y-49742264D01*
X110506046Y-49745232D01*
X110704066Y-49805300D01*
X110704065Y-49805300D01*
X110722529Y-49807118D01*
X110910000Y-49825583D01*
X111115934Y-49805300D01*
X111313954Y-49745232D01*
X111496450Y-49647685D01*
X111656410Y-49516410D01*
X111787685Y-49356450D01*
X111885232Y-49173954D01*
X111945300Y-48975934D01*
X111965583Y-48770000D01*
X111945300Y-48564066D01*
X111885232Y-48366046D01*
X111787685Y-48183550D01*
X111712897Y-48092420D01*
X111656410Y-48023589D01*
X111538677Y-47926969D01*
X111496450Y-47892315D01*
X111313954Y-47794768D01*
X111115934Y-47734700D01*
X111115932Y-47734699D01*
X111115934Y-47734699D01*
X110910000Y-47714417D01*
X110704067Y-47734699D01*
X110506043Y-47794769D01*
X110472634Y-47812627D01*
X110323550Y-47892315D01*
X110323548Y-47892316D01*
X110323547Y-47892317D01*
X110163589Y-48023589D01*
X110032317Y-48183547D01*
X110032315Y-48183550D01*
X109966593Y-48306507D01*
X109953358Y-48331267D01*
X109904395Y-48381111D01*
X109836257Y-48396571D01*
X109770578Y-48372739D01*
X109728209Y-48317181D01*
X109720000Y-48272813D01*
X109720000Y-47872172D01*
X109719999Y-47872155D01*
X109713598Y-47812627D01*
X109713596Y-47812620D01*
X109663354Y-47677913D01*
X109663350Y-47677906D01*
X109577190Y-47562812D01*
X109577187Y-47562809D01*
X109462093Y-47476649D01*
X109462086Y-47476645D01*
X109327379Y-47426403D01*
X109327372Y-47426401D01*
X109267844Y-47420000D01*
X108867187Y-47420000D01*
X108800148Y-47400315D01*
X108754393Y-47347511D01*
X108744449Y-47278353D01*
X108773474Y-47214797D01*
X108808733Y-47186642D01*
X108956450Y-47107685D01*
X109116410Y-46976410D01*
X109247685Y-46816450D01*
X109345232Y-46633954D01*
X109405300Y-46435934D01*
X109425583Y-46230000D01*
X109854417Y-46230000D01*
X109874699Y-46435932D01*
X109874700Y-46435934D01*
X109934768Y-46633954D01*
X110032315Y-46816450D01*
X110032317Y-46816452D01*
X110163589Y-46976410D01*
X110260209Y-47055702D01*
X110323550Y-47107685D01*
X110506046Y-47205232D01*
X110704066Y-47265300D01*
X110704065Y-47265300D01*
X110722529Y-47267118D01*
X110910000Y-47285583D01*
X111115934Y-47265300D01*
X111313954Y-47205232D01*
X111496450Y-47107685D01*
X111656410Y-46976410D01*
X111787685Y-46816450D01*
X111885232Y-46633954D01*
X111945300Y-46435934D01*
X111965583Y-46230000D01*
X112394417Y-46230000D01*
X112414699Y-46435932D01*
X112414700Y-46435934D01*
X112474768Y-46633954D01*
X112572315Y-46816450D01*
X112572317Y-46816452D01*
X112703589Y-46976410D01*
X112800209Y-47055702D01*
X112863550Y-47107685D01*
X113046046Y-47205232D01*
X113244066Y-47265300D01*
X113244065Y-47265300D01*
X113262529Y-47267118D01*
X113450000Y-47285583D01*
X113655934Y-47265300D01*
X113853954Y-47205232D01*
X114036450Y-47107685D01*
X114196410Y-46976410D01*
X114327685Y-46816450D01*
X114425232Y-46633954D01*
X114485300Y-46435934D01*
X114505583Y-46230000D01*
X114934417Y-46230000D01*
X114954699Y-46435932D01*
X114954700Y-46435934D01*
X115014768Y-46633954D01*
X115112315Y-46816450D01*
X115112317Y-46816452D01*
X115243589Y-46976410D01*
X115340209Y-47055702D01*
X115403550Y-47107685D01*
X115586046Y-47205232D01*
X115784066Y-47265300D01*
X115784065Y-47265300D01*
X115802529Y-47267118D01*
X115990000Y-47285583D01*
X116195934Y-47265300D01*
X116393954Y-47205232D01*
X116576450Y-47107685D01*
X116736410Y-46976410D01*
X116867685Y-46816450D01*
X116965232Y-46633954D01*
X117025300Y-46435934D01*
X117045583Y-46230000D01*
X117474417Y-46230000D01*
X117494699Y-46435932D01*
X117494700Y-46435934D01*
X117554768Y-46633954D01*
X117652315Y-46816450D01*
X117652317Y-46816452D01*
X117783589Y-46976410D01*
X117880209Y-47055702D01*
X117943550Y-47107685D01*
X118126046Y-47205232D01*
X118324066Y-47265300D01*
X118324065Y-47265300D01*
X118342529Y-47267118D01*
X118530000Y-47285583D01*
X118735934Y-47265300D01*
X118933954Y-47205232D01*
X119116450Y-47107685D01*
X119276410Y-46976410D01*
X119407685Y-46816450D01*
X119505232Y-46633954D01*
X119565300Y-46435934D01*
X119585583Y-46230000D01*
X120014417Y-46230000D01*
X120034699Y-46435932D01*
X120034700Y-46435934D01*
X120094768Y-46633954D01*
X120192315Y-46816450D01*
X120192317Y-46816452D01*
X120323589Y-46976410D01*
X120420209Y-47055702D01*
X120483550Y-47107685D01*
X120666046Y-47205232D01*
X120864066Y-47265300D01*
X120864065Y-47265300D01*
X120882529Y-47267118D01*
X121070000Y-47285583D01*
X121275934Y-47265300D01*
X121473954Y-47205232D01*
X121656450Y-47107685D01*
X121816410Y-46976410D01*
X121947685Y-46816450D01*
X122045232Y-46633954D01*
X122105300Y-46435934D01*
X122125583Y-46230000D01*
X122554417Y-46230000D01*
X122574699Y-46435932D01*
X122574700Y-46435934D01*
X122634768Y-46633954D01*
X122732315Y-46816450D01*
X122732317Y-46816452D01*
X122863589Y-46976410D01*
X122960209Y-47055702D01*
X123023550Y-47107685D01*
X123206046Y-47205232D01*
X123404066Y-47265300D01*
X123404065Y-47265300D01*
X123422529Y-47267118D01*
X123610000Y-47285583D01*
X123815934Y-47265300D01*
X124013954Y-47205232D01*
X124196450Y-47107685D01*
X124356410Y-46976410D01*
X124487685Y-46816450D01*
X124585232Y-46633954D01*
X124645300Y-46435934D01*
X124665583Y-46230000D01*
X125094417Y-46230000D01*
X125114699Y-46435932D01*
X125114700Y-46435934D01*
X125174768Y-46633954D01*
X125272315Y-46816450D01*
X125272317Y-46816452D01*
X125403589Y-46976410D01*
X125500209Y-47055702D01*
X125563550Y-47107685D01*
X125746046Y-47205232D01*
X125944066Y-47265300D01*
X125944065Y-47265300D01*
X125962529Y-47267118D01*
X126150000Y-47285583D01*
X126355934Y-47265300D01*
X126553954Y-47205232D01*
X126736450Y-47107685D01*
X126896410Y-46976410D01*
X127027685Y-46816450D01*
X127125232Y-46633954D01*
X127185300Y-46435934D01*
X127205583Y-46230000D01*
X127185300Y-46024066D01*
X127125232Y-45826046D01*
X127027685Y-45643550D01*
X126975702Y-45580209D01*
X126896410Y-45483589D01*
X126736452Y-45352317D01*
X126736453Y-45352317D01*
X126736450Y-45352315D01*
X126553954Y-45254768D01*
X126355934Y-45194700D01*
X126355932Y-45194699D01*
X126355934Y-45194699D01*
X126150000Y-45174417D01*
X125944067Y-45194699D01*
X125746043Y-45254769D01*
X125635898Y-45313643D01*
X125563550Y-45352315D01*
X125563548Y-45352316D01*
X125563547Y-45352317D01*
X125403589Y-45483589D01*
X125272317Y-45643547D01*
X125174769Y-45826043D01*
X125114699Y-46024067D01*
X125094417Y-46230000D01*
X124665583Y-46230000D01*
X124645300Y-46024066D01*
X124585232Y-45826046D01*
X124487685Y-45643550D01*
X124435702Y-45580209D01*
X124356410Y-45483589D01*
X124196452Y-45352317D01*
X124196453Y-45352317D01*
X124196450Y-45352315D01*
X124013954Y-45254768D01*
X123815934Y-45194700D01*
X123815932Y-45194699D01*
X123815934Y-45194699D01*
X123610000Y-45174417D01*
X123404067Y-45194699D01*
X123206043Y-45254769D01*
X123095898Y-45313643D01*
X123023550Y-45352315D01*
X123023548Y-45352316D01*
X123023547Y-45352317D01*
X122863589Y-45483589D01*
X122732317Y-45643547D01*
X122634769Y-45826043D01*
X122574699Y-46024067D01*
X122554417Y-46230000D01*
X122125583Y-46230000D01*
X122105300Y-46024066D01*
X122045232Y-45826046D01*
X121947685Y-45643550D01*
X121895702Y-45580209D01*
X121816410Y-45483589D01*
X121656452Y-45352317D01*
X121656453Y-45352317D01*
X121656450Y-45352315D01*
X121473954Y-45254768D01*
X121275934Y-45194700D01*
X121275932Y-45194699D01*
X121275934Y-45194699D01*
X121070000Y-45174417D01*
X120864067Y-45194699D01*
X120666043Y-45254769D01*
X120555898Y-45313643D01*
X120483550Y-45352315D01*
X120483548Y-45352316D01*
X120483547Y-45352317D01*
X120323589Y-45483589D01*
X120192317Y-45643547D01*
X120094769Y-45826043D01*
X120034699Y-46024067D01*
X120014417Y-46230000D01*
X119585583Y-46230000D01*
X119565300Y-46024066D01*
X119505232Y-45826046D01*
X119407685Y-45643550D01*
X119355702Y-45580209D01*
X119276410Y-45483589D01*
X119116452Y-45352317D01*
X119116453Y-45352317D01*
X119116450Y-45352315D01*
X118933954Y-45254768D01*
X118735934Y-45194700D01*
X118735932Y-45194699D01*
X118735934Y-45194699D01*
X118530000Y-45174417D01*
X118324067Y-45194699D01*
X118126043Y-45254769D01*
X118015898Y-45313643D01*
X117943550Y-45352315D01*
X117943548Y-45352316D01*
X117943547Y-45352317D01*
X117783589Y-45483589D01*
X117652317Y-45643547D01*
X117554769Y-45826043D01*
X117494699Y-46024067D01*
X117474417Y-46230000D01*
X117045583Y-46230000D01*
X117025300Y-46024066D01*
X116965232Y-45826046D01*
X116867685Y-45643550D01*
X116815702Y-45580209D01*
X116736410Y-45483589D01*
X116576452Y-45352317D01*
X116576453Y-45352317D01*
X116576450Y-45352315D01*
X116393954Y-45254768D01*
X116195934Y-45194700D01*
X116195932Y-45194699D01*
X116195934Y-45194699D01*
X115990000Y-45174417D01*
X115784067Y-45194699D01*
X115586043Y-45254769D01*
X115475898Y-45313643D01*
X115403550Y-45352315D01*
X115403548Y-45352316D01*
X115403547Y-45352317D01*
X115243589Y-45483589D01*
X115112317Y-45643547D01*
X115014769Y-45826043D01*
X114954699Y-46024067D01*
X114934417Y-46230000D01*
X114505583Y-46230000D01*
X114485300Y-46024066D01*
X114425232Y-45826046D01*
X114327685Y-45643550D01*
X114275702Y-45580209D01*
X114196410Y-45483589D01*
X114036452Y-45352317D01*
X114036453Y-45352317D01*
X114036450Y-45352315D01*
X113853954Y-45254768D01*
X113655934Y-45194700D01*
X113655932Y-45194699D01*
X113655934Y-45194699D01*
X113450000Y-45174417D01*
X113244067Y-45194699D01*
X113046043Y-45254769D01*
X112935898Y-45313643D01*
X112863550Y-45352315D01*
X112863548Y-45352316D01*
X112863547Y-45352317D01*
X112703589Y-45483589D01*
X112572317Y-45643547D01*
X112474769Y-45826043D01*
X112414699Y-46024067D01*
X112394417Y-46230000D01*
X111965583Y-46230000D01*
X111945300Y-46024066D01*
X111885232Y-45826046D01*
X111787685Y-45643550D01*
X111735702Y-45580209D01*
X111656410Y-45483589D01*
X111496452Y-45352317D01*
X111496453Y-45352317D01*
X111496450Y-45352315D01*
X111313954Y-45254768D01*
X111115934Y-45194700D01*
X111115932Y-45194699D01*
X111115934Y-45194699D01*
X110910000Y-45174417D01*
X110704067Y-45194699D01*
X110506043Y-45254769D01*
X110395898Y-45313643D01*
X110323550Y-45352315D01*
X110323548Y-45352316D01*
X110323547Y-45352317D01*
X110163589Y-45483589D01*
X110032317Y-45643547D01*
X109934769Y-45826043D01*
X109874699Y-46024067D01*
X109854417Y-46230000D01*
X109425583Y-46230000D01*
X109405300Y-46024066D01*
X109345232Y-45826046D01*
X109247685Y-45643550D01*
X109195702Y-45580209D01*
X109116410Y-45483589D01*
X108956452Y-45352317D01*
X108956453Y-45352317D01*
X108956450Y-45352315D01*
X108773954Y-45254768D01*
X108575934Y-45194700D01*
X108575932Y-45194699D01*
X108575934Y-45194699D01*
X108370000Y-45174417D01*
X108164067Y-45194699D01*
X107966043Y-45254769D01*
X107855898Y-45313643D01*
X107783550Y-45352315D01*
X107783548Y-45352316D01*
X107783547Y-45352317D01*
X107623589Y-45483589D01*
X107492317Y-45643547D01*
X107394769Y-45826043D01*
X107334699Y-46024067D01*
X107314417Y-46230000D01*
X107334699Y-46435932D01*
X107334700Y-46435934D01*
X107394768Y-46633954D01*
X107492315Y-46816450D01*
X107492317Y-46816452D01*
X107623589Y-46976410D01*
X107720209Y-47055702D01*
X107783550Y-47107685D01*
X107931267Y-47186642D01*
X107981111Y-47235605D01*
X107996571Y-47303743D01*
X107972739Y-47369422D01*
X107917181Y-47411791D01*
X107872813Y-47420000D01*
X107472155Y-47420000D01*
X107412627Y-47426401D01*
X107412620Y-47426403D01*
X107277913Y-47476645D01*
X107277906Y-47476649D01*
X107162812Y-47562809D01*
X107162809Y-47562812D01*
X107076649Y-47677906D01*
X107076645Y-47677913D01*
X107026403Y-47812620D01*
X107026401Y-47812627D01*
X107020000Y-47872155D01*
X107020000Y-48520000D01*
X107936988Y-48520000D01*
X107904075Y-48577007D01*
X107870000Y-48704174D01*
X107870000Y-48835826D01*
X107904075Y-48962993D01*
X107936988Y-49020000D01*
X107020000Y-49020000D01*
X107020000Y-49667844D01*
X107026401Y-49727372D01*
X107026403Y-49727379D01*
X107076645Y-49862086D01*
X107076649Y-49862093D01*
X107162809Y-49977187D01*
X107162812Y-49977190D01*
X107277906Y-50063350D01*
X107277913Y-50063354D01*
X107412620Y-50113596D01*
X107412627Y-50113598D01*
X107472155Y-50119999D01*
X107472172Y-50120000D01*
X108120000Y-50120000D01*
X108120000Y-49203012D01*
X108177007Y-49235925D01*
X108304174Y-49270000D01*
X108435826Y-49270000D01*
X108562993Y-49235925D01*
X108620000Y-49203012D01*
X108620000Y-50120000D01*
X108835666Y-50120000D01*
X108902705Y-50139685D01*
X108948460Y-50192489D01*
X108958404Y-50261647D01*
X108929379Y-50325203D01*
X108923347Y-50331681D01*
X104965489Y-54289540D01*
X104909541Y-54345487D01*
X104909535Y-54345495D01*
X104869982Y-54414004D01*
X104869979Y-54414009D01*
X104849500Y-54490439D01*
X104849500Y-63360615D01*
X104829815Y-63427654D01*
X104777011Y-63473409D01*
X104707853Y-63483353D01*
X104684551Y-63477659D01*
X104682969Y-63477105D01*
X104562027Y-63449500D01*
X104562026Y-63449500D01*
X104520918Y-63449500D01*
X100508126Y-63449500D01*
X100491941Y-63448439D01*
X100481410Y-63447052D01*
X100399846Y-63436314D01*
X100368579Y-63427936D01*
X100290334Y-63395526D01*
X100262300Y-63379340D01*
X100195107Y-63327780D01*
X100172219Y-63304892D01*
X100120659Y-63237699D01*
X100104473Y-63209665D01*
X100072063Y-63131420D01*
X100063685Y-63100152D01*
X100051561Y-63008059D01*
X100050500Y-62991874D01*
X100050500Y-47003480D01*
X100050695Y-46996527D01*
X100060808Y-46816450D01*
X100068656Y-46676700D01*
X100070210Y-46662907D01*
X100123283Y-46350537D01*
X100126377Y-46336985D01*
X100214089Y-46032530D01*
X100218682Y-46019406D01*
X100298775Y-45826043D01*
X100339929Y-45726686D01*
X100345951Y-45714180D01*
X100499227Y-45436850D01*
X100506605Y-45425107D01*
X100689972Y-45166676D01*
X100698619Y-45155834D01*
X100909750Y-44919579D01*
X100919581Y-44909749D01*
X101155834Y-44698619D01*
X101166676Y-44689972D01*
X101425107Y-44506605D01*
X101436850Y-44499227D01*
X101714180Y-44345951D01*
X101726686Y-44339929D01*
X102019406Y-44218682D01*
X102032526Y-44214090D01*
X102336990Y-44126375D01*
X102350537Y-44123283D01*
X102662907Y-44070210D01*
X102676700Y-44068656D01*
X102996528Y-44050695D01*
X103003481Y-44050500D01*
X103016408Y-44050500D01*
X161983592Y-44050500D01*
X161996519Y-44050500D01*
X162003472Y-44050695D01*
G37*
G04 #@! TD.AperFunction*
M02*
