M48
; DRILL file {KiCad 8.0.8} date 2025-02-20T10:17:27+0100
; FORMAT={-:-/ absolute / inch / decimal}
; #@! TF.CreationDate,2025-02-20T10:17:27+01:00
; #@! TF.GenerationSoftware,Kicad,Pcbnew,8.0.8
; #@! TF.FileFunction,Plated,1,2,PTH
FMAT,2
INCH
; #@! TA.AperFunction,Plated,PTH,ComponentDrill
T1C0.0394
%
G90
G05
T1
X4.2126Y-2.3677
X4.2126Y-2.4677
X4.2126Y-2.5677
X4.2126Y-2.6677
X4.2126Y-2.7677
X4.2126Y-2.8677
X4.2126Y-2.9677
X4.2126Y-3.0677
X4.2126Y-3.1677
X4.2126Y-3.2677
X4.2665Y-1.8201
X4.2665Y-1.9201
X4.3665Y-1.8201
X4.3665Y-1.9201
X4.4665Y-1.8201
X4.4665Y-1.9201
X4.5665Y-1.8201
X4.5665Y-1.9201
X4.6665Y-1.8201
X4.6665Y-1.9201
X4.7665Y-1.8201
X4.7665Y-1.9201
X4.8665Y-1.8201
X4.8665Y-1.9201
X4.9665Y-1.8201
X4.9665Y-1.9201
X5.0665Y-1.8201
X5.0665Y-1.9201
X5.1181Y-2.3819
X5.1181Y-2.4819
X5.1181Y-2.5819
X5.1665Y-1.8201
X5.1665Y-1.9201
X5.2665Y-1.8201
X5.2665Y-1.9201
X5.3665Y-1.8201
X5.3665Y-1.9201
X5.4665Y-1.8201
X5.4665Y-1.9201
X5.4724Y-2.3787
X5.4724Y-2.4787
X5.4724Y-2.5787
X5.5665Y-1.8201
X5.5665Y-1.9201
X5.6665Y-1.8201
X5.6665Y-1.9201
X5.7665Y-1.8201
X5.7665Y-1.9201
X5.7677Y-2.3787
X5.7677Y-2.4787
X5.7677Y-2.5787
X5.8665Y-1.8201
X5.8665Y-1.9201
X5.9665Y-1.8201
X5.9665Y-1.9201
X6.0665Y-1.8201
X6.0665Y-1.9201
X6.1024Y-2.3787
X6.1024Y-2.4787
X6.1024Y-2.5787
X6.1665Y-1.8201
X6.1665Y-1.9201
M30
