%TF.GenerationSoftware,KiCad,Pcbnew,8.0.8*%
%TF.CreationDate,2025-02-20T10:17:39+01:00*%
%TF.ProjectId,pi_hat,70695f68-6174-42e6-9b69-6361645f7063,rev?*%
%TF.SameCoordinates,Original*%
%TF.FileFunction,Legend,Top*%
%TF.FilePolarity,Positive*%
%FSLAX46Y46*%
G04 Gerber Fmt 4.6, Leading zero omitted, Abs format (unit mm)*
G04 Created by KiCad (PCBNEW 8.0.8) date 2025-02-20 10:17:39*
%MOMM*%
%LPD*%
G01*
G04 APERTURE LIST*
%ADD10C,0.100000*%
%ADD11C,0.150000*%
%ADD12C,0.120000*%
%ADD13C,2.700000*%
%ADD14C,1.700000*%
%ADD15R,1.700000X1.700000*%
%ADD16O,1.700000X1.700000*%
G04 APERTURE END LIST*
D10*
X38285714Y42408296D02*
X38761904Y42408296D01*
X38190476Y42122581D02*
X38523809Y43122581D01*
X38523809Y43122581D02*
X38857142Y42122581D01*
X39142857Y43027343D02*
X39190476Y43074962D01*
X39190476Y43074962D02*
X39285714Y43122581D01*
X39285714Y43122581D02*
X39523809Y43122581D01*
X39523809Y43122581D02*
X39619047Y43074962D01*
X39619047Y43074962D02*
X39666666Y43027343D01*
X39666666Y43027343D02*
X39714285Y42932105D01*
X39714285Y42932105D02*
X39714285Y42836867D01*
X39714285Y42836867D02*
X39666666Y42694010D01*
X39666666Y42694010D02*
X39095238Y42122581D01*
X39095238Y42122581D02*
X39714285Y42122581D01*
D11*
X34860588Y40162562D02*
X34765350Y40210181D01*
X34765350Y40210181D02*
X34622493Y40210181D01*
X34622493Y40210181D02*
X34479636Y40162562D01*
X34479636Y40162562D02*
X34384398Y40067324D01*
X34384398Y40067324D02*
X34336779Y39972086D01*
X34336779Y39972086D02*
X34289160Y39781610D01*
X34289160Y39781610D02*
X34289160Y39638753D01*
X34289160Y39638753D02*
X34336779Y39448277D01*
X34336779Y39448277D02*
X34384398Y39353039D01*
X34384398Y39353039D02*
X34479636Y39257800D01*
X34479636Y39257800D02*
X34622493Y39210181D01*
X34622493Y39210181D02*
X34717731Y39210181D01*
X34717731Y39210181D02*
X34860588Y39257800D01*
X34860588Y39257800D02*
X34908207Y39305420D01*
X34908207Y39305420D02*
X34908207Y39638753D01*
X34908207Y39638753D02*
X34717731Y39638753D01*
X35336779Y39210181D02*
X35336779Y40210181D01*
X35336779Y40210181D02*
X35908207Y39210181D01*
X35908207Y39210181D02*
X35908207Y40210181D01*
X36384398Y39210181D02*
X36384398Y40210181D01*
X36384398Y40210181D02*
X36622493Y40210181D01*
X36622493Y40210181D02*
X36765350Y40162562D01*
X36765350Y40162562D02*
X36860588Y40067324D01*
X36860588Y40067324D02*
X36908207Y39972086D01*
X36908207Y39972086D02*
X36955826Y39781610D01*
X36955826Y39781610D02*
X36955826Y39638753D01*
X36955826Y39638753D02*
X36908207Y39448277D01*
X36908207Y39448277D02*
X36860588Y39353039D01*
X36860588Y39353039D02*
X36765350Y39257800D01*
X36765350Y39257800D02*
X36622493Y39210181D01*
X36622493Y39210181D02*
X36384398Y39210181D01*
X34193922Y37210181D02*
X34527255Y36210181D01*
X34527255Y36210181D02*
X34860588Y37210181D01*
X35765350Y36305420D02*
X35717731Y36257800D01*
X35717731Y36257800D02*
X35574874Y36210181D01*
X35574874Y36210181D02*
X35479636Y36210181D01*
X35479636Y36210181D02*
X35336779Y36257800D01*
X35336779Y36257800D02*
X35241541Y36353039D01*
X35241541Y36353039D02*
X35193922Y36448277D01*
X35193922Y36448277D02*
X35146303Y36638753D01*
X35146303Y36638753D02*
X35146303Y36781610D01*
X35146303Y36781610D02*
X35193922Y36972086D01*
X35193922Y36972086D02*
X35241541Y37067324D01*
X35241541Y37067324D02*
X35336779Y37162562D01*
X35336779Y37162562D02*
X35479636Y37210181D01*
X35479636Y37210181D02*
X35574874Y37210181D01*
X35574874Y37210181D02*
X35717731Y37162562D01*
X35717731Y37162562D02*
X35765350Y37114943D01*
X36765350Y36305420D02*
X36717731Y36257800D01*
X36717731Y36257800D02*
X36574874Y36210181D01*
X36574874Y36210181D02*
X36479636Y36210181D01*
X36479636Y36210181D02*
X36336779Y36257800D01*
X36336779Y36257800D02*
X36241541Y36353039D01*
X36241541Y36353039D02*
X36193922Y36448277D01*
X36193922Y36448277D02*
X36146303Y36638753D01*
X36146303Y36638753D02*
X36146303Y36781610D01*
X36146303Y36781610D02*
X36193922Y36972086D01*
X36193922Y36972086D02*
X36241541Y37067324D01*
X36241541Y37067324D02*
X36336779Y37162562D01*
X36336779Y37162562D02*
X36479636Y37210181D01*
X36479636Y37210181D02*
X36574874Y37210181D01*
X36574874Y37210181D02*
X36717731Y37162562D01*
X36717731Y37162562D02*
X36765350Y37114943D01*
X36289160Y33995896D02*
X36765350Y33995896D01*
X36193922Y33710181D02*
X36527255Y34710181D01*
X36527255Y34710181D02*
X36860588Y33710181D01*
D10*
X29285714Y42328296D02*
X29761904Y42328296D01*
X29190476Y42042581D02*
X29523809Y43042581D01*
X29523809Y43042581D02*
X29857142Y42042581D01*
X30714285Y42042581D02*
X30142857Y42042581D01*
X30428571Y42042581D02*
X30428571Y43042581D01*
X30428571Y43042581D02*
X30333333Y42899724D01*
X30333333Y42899724D02*
X30238095Y42804486D01*
X30238095Y42804486D02*
X30142857Y42756867D01*
D11*
X25193922Y37130181D02*
X25527255Y36130181D01*
X25527255Y36130181D02*
X25860588Y37130181D01*
X26765350Y36225420D02*
X26717731Y36177800D01*
X26717731Y36177800D02*
X26574874Y36130181D01*
X26574874Y36130181D02*
X26479636Y36130181D01*
X26479636Y36130181D02*
X26336779Y36177800D01*
X26336779Y36177800D02*
X26241541Y36273039D01*
X26241541Y36273039D02*
X26193922Y36368277D01*
X26193922Y36368277D02*
X26146303Y36558753D01*
X26146303Y36558753D02*
X26146303Y36701610D01*
X26146303Y36701610D02*
X26193922Y36892086D01*
X26193922Y36892086D02*
X26241541Y36987324D01*
X26241541Y36987324D02*
X26336779Y37082562D01*
X26336779Y37082562D02*
X26479636Y37130181D01*
X26479636Y37130181D02*
X26574874Y37130181D01*
X26574874Y37130181D02*
X26717731Y37082562D01*
X26717731Y37082562D02*
X26765350Y37034943D01*
X27765350Y36225420D02*
X27717731Y36177800D01*
X27717731Y36177800D02*
X27574874Y36130181D01*
X27574874Y36130181D02*
X27479636Y36130181D01*
X27479636Y36130181D02*
X27336779Y36177800D01*
X27336779Y36177800D02*
X27241541Y36273039D01*
X27241541Y36273039D02*
X27193922Y36368277D01*
X27193922Y36368277D02*
X27146303Y36558753D01*
X27146303Y36558753D02*
X27146303Y36701610D01*
X27146303Y36701610D02*
X27193922Y36892086D01*
X27193922Y36892086D02*
X27241541Y36987324D01*
X27241541Y36987324D02*
X27336779Y37082562D01*
X27336779Y37082562D02*
X27479636Y37130181D01*
X27479636Y37130181D02*
X27574874Y37130181D01*
X27574874Y37130181D02*
X27717731Y37082562D01*
X27717731Y37082562D02*
X27765350Y37034943D01*
X25860588Y40082562D02*
X25765350Y40130181D01*
X25765350Y40130181D02*
X25622493Y40130181D01*
X25622493Y40130181D02*
X25479636Y40082562D01*
X25479636Y40082562D02*
X25384398Y39987324D01*
X25384398Y39987324D02*
X25336779Y39892086D01*
X25336779Y39892086D02*
X25289160Y39701610D01*
X25289160Y39701610D02*
X25289160Y39558753D01*
X25289160Y39558753D02*
X25336779Y39368277D01*
X25336779Y39368277D02*
X25384398Y39273039D01*
X25384398Y39273039D02*
X25479636Y39177800D01*
X25479636Y39177800D02*
X25622493Y39130181D01*
X25622493Y39130181D02*
X25717731Y39130181D01*
X25717731Y39130181D02*
X25860588Y39177800D01*
X25860588Y39177800D02*
X25908207Y39225420D01*
X25908207Y39225420D02*
X25908207Y39558753D01*
X25908207Y39558753D02*
X25717731Y39558753D01*
X26336779Y39130181D02*
X26336779Y40130181D01*
X26336779Y40130181D02*
X26908207Y39130181D01*
X26908207Y39130181D02*
X26908207Y40130181D01*
X27384398Y39130181D02*
X27384398Y40130181D01*
X27384398Y40130181D02*
X27622493Y40130181D01*
X27622493Y40130181D02*
X27765350Y40082562D01*
X27765350Y40082562D02*
X27860588Y39987324D01*
X27860588Y39987324D02*
X27908207Y39892086D01*
X27908207Y39892086D02*
X27955826Y39701610D01*
X27955826Y39701610D02*
X27955826Y39558753D01*
X27955826Y39558753D02*
X27908207Y39368277D01*
X27908207Y39368277D02*
X27860588Y39273039D01*
X27860588Y39273039D02*
X27765350Y39177800D01*
X27765350Y39177800D02*
X27622493Y39130181D01*
X27622493Y39130181D02*
X27384398Y39130181D01*
X27289160Y33915896D02*
X27765350Y33915896D01*
X27193922Y33630181D02*
X27527255Y34630181D01*
X27527255Y34630181D02*
X27860588Y33630181D01*
D10*
X54285714Y42408296D02*
X54761904Y42408296D01*
X54190476Y42122581D02*
X54523809Y43122581D01*
X54523809Y43122581D02*
X54857142Y42122581D01*
X55619047Y42789248D02*
X55619047Y42122581D01*
X55380952Y43170200D02*
X55142857Y42455915D01*
X55142857Y42455915D02*
X55761904Y42455915D01*
D11*
X52289160Y33995896D02*
X52765350Y33995896D01*
X52193922Y33710181D02*
X52527255Y34710181D01*
X52527255Y34710181D02*
X52860588Y33710181D01*
X50193922Y37210181D02*
X50527255Y36210181D01*
X50527255Y36210181D02*
X50860588Y37210181D01*
X51765350Y36305420D02*
X51717731Y36257800D01*
X51717731Y36257800D02*
X51574874Y36210181D01*
X51574874Y36210181D02*
X51479636Y36210181D01*
X51479636Y36210181D02*
X51336779Y36257800D01*
X51336779Y36257800D02*
X51241541Y36353039D01*
X51241541Y36353039D02*
X51193922Y36448277D01*
X51193922Y36448277D02*
X51146303Y36638753D01*
X51146303Y36638753D02*
X51146303Y36781610D01*
X51146303Y36781610D02*
X51193922Y36972086D01*
X51193922Y36972086D02*
X51241541Y37067324D01*
X51241541Y37067324D02*
X51336779Y37162562D01*
X51336779Y37162562D02*
X51479636Y37210181D01*
X51479636Y37210181D02*
X51574874Y37210181D01*
X51574874Y37210181D02*
X51717731Y37162562D01*
X51717731Y37162562D02*
X51765350Y37114943D01*
X52765350Y36305420D02*
X52717731Y36257800D01*
X52717731Y36257800D02*
X52574874Y36210181D01*
X52574874Y36210181D02*
X52479636Y36210181D01*
X52479636Y36210181D02*
X52336779Y36257800D01*
X52336779Y36257800D02*
X52241541Y36353039D01*
X52241541Y36353039D02*
X52193922Y36448277D01*
X52193922Y36448277D02*
X52146303Y36638753D01*
X52146303Y36638753D02*
X52146303Y36781610D01*
X52146303Y36781610D02*
X52193922Y36972086D01*
X52193922Y36972086D02*
X52241541Y37067324D01*
X52241541Y37067324D02*
X52336779Y37162562D01*
X52336779Y37162562D02*
X52479636Y37210181D01*
X52479636Y37210181D02*
X52574874Y37210181D01*
X52574874Y37210181D02*
X52717731Y37162562D01*
X52717731Y37162562D02*
X52765350Y37114943D01*
X50860588Y40162562D02*
X50765350Y40210181D01*
X50765350Y40210181D02*
X50622493Y40210181D01*
X50622493Y40210181D02*
X50479636Y40162562D01*
X50479636Y40162562D02*
X50384398Y40067324D01*
X50384398Y40067324D02*
X50336779Y39972086D01*
X50336779Y39972086D02*
X50289160Y39781610D01*
X50289160Y39781610D02*
X50289160Y39638753D01*
X50289160Y39638753D02*
X50336779Y39448277D01*
X50336779Y39448277D02*
X50384398Y39353039D01*
X50384398Y39353039D02*
X50479636Y39257800D01*
X50479636Y39257800D02*
X50622493Y39210181D01*
X50622493Y39210181D02*
X50717731Y39210181D01*
X50717731Y39210181D02*
X50860588Y39257800D01*
X50860588Y39257800D02*
X50908207Y39305420D01*
X50908207Y39305420D02*
X50908207Y39638753D01*
X50908207Y39638753D02*
X50717731Y39638753D01*
X51336779Y39210181D02*
X51336779Y40210181D01*
X51336779Y40210181D02*
X51908207Y39210181D01*
X51908207Y39210181D02*
X51908207Y40210181D01*
X52384398Y39210181D02*
X52384398Y40210181D01*
X52384398Y40210181D02*
X52622493Y40210181D01*
X52622493Y40210181D02*
X52765350Y40162562D01*
X52765350Y40162562D02*
X52860588Y40067324D01*
X52860588Y40067324D02*
X52908207Y39972086D01*
X52908207Y39972086D02*
X52955826Y39781610D01*
X52955826Y39781610D02*
X52955826Y39638753D01*
X52955826Y39638753D02*
X52908207Y39448277D01*
X52908207Y39448277D02*
X52860588Y39353039D01*
X52860588Y39353039D02*
X52765350Y39257800D01*
X52765350Y39257800D02*
X52622493Y39210181D01*
X52622493Y39210181D02*
X52384398Y39210181D01*
X6238095Y42745181D02*
X6238095Y41935658D01*
X6238095Y41935658D02*
X6285714Y41840420D01*
X6285714Y41840420D02*
X6333333Y41792800D01*
X6333333Y41792800D02*
X6428571Y41745181D01*
X6428571Y41745181D02*
X6619047Y41745181D01*
X6619047Y41745181D02*
X6714285Y41792800D01*
X6714285Y41792800D02*
X6761904Y41840420D01*
X6761904Y41840420D02*
X6809523Y41935658D01*
X6809523Y41935658D02*
X6809523Y42745181D01*
X7238095Y42649943D02*
X7285714Y42697562D01*
X7285714Y42697562D02*
X7380952Y42745181D01*
X7380952Y42745181D02*
X7619047Y42745181D01*
X7619047Y42745181D02*
X7714285Y42697562D01*
X7714285Y42697562D02*
X7761904Y42649943D01*
X7761904Y42649943D02*
X7809523Y42554705D01*
X7809523Y42554705D02*
X7809523Y42459467D01*
X7809523Y42459467D02*
X7761904Y42316610D01*
X7761904Y42316610D02*
X7190476Y41745181D01*
X7190476Y41745181D02*
X7809523Y41745181D01*
D10*
X45785714Y42408296D02*
X46261904Y42408296D01*
X45690476Y42122581D02*
X46023809Y43122581D01*
X46023809Y43122581D02*
X46357142Y42122581D01*
X46595238Y43122581D02*
X47214285Y43122581D01*
X47214285Y43122581D02*
X46880952Y42741629D01*
X46880952Y42741629D02*
X47023809Y42741629D01*
X47023809Y42741629D02*
X47119047Y42694010D01*
X47119047Y42694010D02*
X47166666Y42646391D01*
X47166666Y42646391D02*
X47214285Y42551153D01*
X47214285Y42551153D02*
X47214285Y42313058D01*
X47214285Y42313058D02*
X47166666Y42217820D01*
X47166666Y42217820D02*
X47119047Y42170200D01*
X47119047Y42170200D02*
X47023809Y42122581D01*
X47023809Y42122581D02*
X46738095Y42122581D01*
X46738095Y42122581D02*
X46642857Y42170200D01*
X46642857Y42170200D02*
X46595238Y42217820D01*
D11*
X43789160Y33995896D02*
X44265350Y33995896D01*
X43693922Y33710181D02*
X44027255Y34710181D01*
X44027255Y34710181D02*
X44360588Y33710181D01*
X41693922Y37210181D02*
X42027255Y36210181D01*
X42027255Y36210181D02*
X42360588Y37210181D01*
X43265350Y36305420D02*
X43217731Y36257800D01*
X43217731Y36257800D02*
X43074874Y36210181D01*
X43074874Y36210181D02*
X42979636Y36210181D01*
X42979636Y36210181D02*
X42836779Y36257800D01*
X42836779Y36257800D02*
X42741541Y36353039D01*
X42741541Y36353039D02*
X42693922Y36448277D01*
X42693922Y36448277D02*
X42646303Y36638753D01*
X42646303Y36638753D02*
X42646303Y36781610D01*
X42646303Y36781610D02*
X42693922Y36972086D01*
X42693922Y36972086D02*
X42741541Y37067324D01*
X42741541Y37067324D02*
X42836779Y37162562D01*
X42836779Y37162562D02*
X42979636Y37210181D01*
X42979636Y37210181D02*
X43074874Y37210181D01*
X43074874Y37210181D02*
X43217731Y37162562D01*
X43217731Y37162562D02*
X43265350Y37114943D01*
X44265350Y36305420D02*
X44217731Y36257800D01*
X44217731Y36257800D02*
X44074874Y36210181D01*
X44074874Y36210181D02*
X43979636Y36210181D01*
X43979636Y36210181D02*
X43836779Y36257800D01*
X43836779Y36257800D02*
X43741541Y36353039D01*
X43741541Y36353039D02*
X43693922Y36448277D01*
X43693922Y36448277D02*
X43646303Y36638753D01*
X43646303Y36638753D02*
X43646303Y36781610D01*
X43646303Y36781610D02*
X43693922Y36972086D01*
X43693922Y36972086D02*
X43741541Y37067324D01*
X43741541Y37067324D02*
X43836779Y37162562D01*
X43836779Y37162562D02*
X43979636Y37210181D01*
X43979636Y37210181D02*
X44074874Y37210181D01*
X44074874Y37210181D02*
X44217731Y37162562D01*
X44217731Y37162562D02*
X44265350Y37114943D01*
X42360588Y40162562D02*
X42265350Y40210181D01*
X42265350Y40210181D02*
X42122493Y40210181D01*
X42122493Y40210181D02*
X41979636Y40162562D01*
X41979636Y40162562D02*
X41884398Y40067324D01*
X41884398Y40067324D02*
X41836779Y39972086D01*
X41836779Y39972086D02*
X41789160Y39781610D01*
X41789160Y39781610D02*
X41789160Y39638753D01*
X41789160Y39638753D02*
X41836779Y39448277D01*
X41836779Y39448277D02*
X41884398Y39353039D01*
X41884398Y39353039D02*
X41979636Y39257800D01*
X41979636Y39257800D02*
X42122493Y39210181D01*
X42122493Y39210181D02*
X42217731Y39210181D01*
X42217731Y39210181D02*
X42360588Y39257800D01*
X42360588Y39257800D02*
X42408207Y39305420D01*
X42408207Y39305420D02*
X42408207Y39638753D01*
X42408207Y39638753D02*
X42217731Y39638753D01*
X42836779Y39210181D02*
X42836779Y40210181D01*
X42836779Y40210181D02*
X43408207Y39210181D01*
X43408207Y39210181D02*
X43408207Y40210181D01*
X43884398Y39210181D02*
X43884398Y40210181D01*
X43884398Y40210181D02*
X44122493Y40210181D01*
X44122493Y40210181D02*
X44265350Y40162562D01*
X44265350Y40162562D02*
X44360588Y40067324D01*
X44360588Y40067324D02*
X44408207Y39972086D01*
X44408207Y39972086D02*
X44455826Y39781610D01*
X44455826Y39781610D02*
X44455826Y39638753D01*
X44455826Y39638753D02*
X44408207Y39448277D01*
X44408207Y39448277D02*
X44360588Y39353039D01*
X44360588Y39353039D02*
X44265350Y39257800D01*
X44265350Y39257800D02*
X44122493Y39210181D01*
X44122493Y39210181D02*
X43884398Y39210181D01*
D12*
%TO.C,A2*%
X37500000Y41080000D02*
X40500000Y41080000D01*
X37500000Y33080000D02*
X37500000Y41080000D01*
X40500000Y41080000D02*
X40500000Y33080000D01*
X40500000Y33080000D02*
X37500000Y33080000D01*
%TO.C,A1*%
X28500000Y41000000D02*
X31500000Y41000000D01*
X28500000Y33000000D02*
X28500000Y41000000D01*
X31500000Y41000000D02*
X31500000Y33000000D01*
X31500000Y33000000D02*
X28500000Y33000000D01*
%TO.C,A4*%
X53500000Y41080000D02*
X56500000Y41080000D01*
X53500000Y33080000D02*
X53500000Y41080000D01*
X56500000Y41080000D02*
X56500000Y33080000D01*
X56500000Y33080000D02*
X53500000Y33080000D01*
D10*
%TO.C,U2*%
X5500000Y41200000D02*
X8500000Y41200000D01*
X5500000Y15200000D02*
X5500000Y41200000D01*
X8500000Y41200000D02*
X8500000Y15200000D01*
X8500000Y15200000D02*
X5500000Y15200000D01*
D12*
%TO.C,A3*%
X45000000Y41080000D02*
X48000000Y41080000D01*
X45000000Y33080000D02*
X45000000Y41080000D01*
X48000000Y41080000D02*
X48000000Y33080000D01*
X48000000Y33080000D02*
X45000000Y33080000D01*
%TD*%
%LPC*%
D13*
%TO.C,MH2*%
X61500000Y52500000D03*
%TD*%
D14*
%TO.C,A2*%
X39000000Y39580000D03*
X39000000Y37040000D03*
X39000000Y34500000D03*
%TD*%
%TO.C,A1*%
X30000000Y39500000D03*
X30000000Y36960000D03*
X30000000Y34420000D03*
%TD*%
%TO.C,A4*%
X55000000Y39580000D03*
X55000000Y37040000D03*
X55000000Y34500000D03*
%TD*%
D13*
%TO.C,MH3*%
X3500000Y3500000D03*
%TD*%
%TO.C,MH1*%
X3500000Y52500000D03*
%TD*%
D14*
%TO.C,U2*%
X7000000Y39860000D03*
X7000000Y37320000D03*
X7000000Y34780000D03*
X7000000Y32240000D03*
X7000000Y29700000D03*
X7000000Y27160000D03*
X7000000Y24620000D03*
X7000000Y22080000D03*
X7000000Y19540000D03*
X7000000Y17000000D03*
%TD*%
D13*
%TO.C,MH4*%
X61500000Y3500000D03*
%TD*%
D14*
%TO.C,A3*%
X46500000Y39580000D03*
X46500000Y37040000D03*
X46500000Y34500000D03*
%TD*%
D15*
%TO.C,J1*%
X8370000Y51230000D03*
D16*
X8370000Y53770000D03*
X10910000Y51230000D03*
X10910000Y53770000D03*
X13450000Y51230000D03*
X13450000Y53770000D03*
X15990000Y51230000D03*
X15990000Y53770000D03*
X18530000Y51230000D03*
X18530000Y53770000D03*
X21070000Y51230000D03*
X21070000Y53770000D03*
X23610000Y51230000D03*
X23610000Y53770000D03*
X26150000Y51230000D03*
X26150000Y53770000D03*
X28690000Y51230000D03*
X28690000Y53770000D03*
X31230000Y51230000D03*
X31230000Y53770000D03*
X33770000Y51230000D03*
X33770000Y53770000D03*
X36310000Y51230000D03*
X36310000Y53770000D03*
X38850000Y51230000D03*
X38850000Y53770000D03*
X41390000Y51230000D03*
X41390000Y53770000D03*
X43930000Y51230000D03*
X43930000Y53770000D03*
X46470000Y51230000D03*
X46470000Y53770000D03*
X49010000Y51230000D03*
X49010000Y53770000D03*
X51550000Y51230000D03*
X51550000Y53770000D03*
X54090000Y51230000D03*
X54090000Y53770000D03*
X56630000Y51230000D03*
X56630000Y53770000D03*
%TD*%
%LPD*%
M02*
