M48
INCH
T1C0.0394
%
G90
G05
T1
X0.2756Y1.5693
X0.2756Y1.4693
X0.2756Y1.3693
X0.2756Y1.2693
X0.2756Y1.1693
X0.2756Y1.0693
X0.2756Y0.9693
X0.2756Y0.8693
X0.2756Y0.7693
X0.2756Y0.6693
X0.3295Y2.1169
X0.3295Y2.0169
X0.4295Y2.1169
X0.4295Y2.0169
X0.5295Y2.1169
X0.5295Y2.0169
X0.6295Y2.1169
X0.6295Y2.0169
X0.7295Y2.1169
X0.7295Y2.0169
X0.8295Y2.1169
X0.8295Y2.0169
X0.9295Y2.1169
X0.9295Y2.0169
X1.0295Y2.1169
X1.0295Y2.0169
X1.1295Y2.1169
X1.1295Y2.0169
X1.1811Y1.5551
X1.1811Y1.4551
X1.1811Y1.3551
X1.2295Y2.1169
X1.2295Y2.0169
X1.3295Y2.1169
X1.3295Y2.0169
X1.4295Y2.1169
X1.4295Y2.0169
X1.5295Y2.1169
X1.5295Y2.0169
X1.5354Y1.5583
X1.5354Y1.4583
X1.5354Y1.3583
X1.6295Y2.1169
X1.6295Y2.0169
X1.7295Y2.1169
X1.7295Y2.0169
X1.8295Y2.1169
X1.8295Y2.0169
X1.8307Y1.5583
X1.8307Y1.4583
X1.8307Y1.3583
X1.9295Y2.1169
X1.9295Y2.0169
X2.0295Y2.1169
X2.0295Y2.0169
X2.1295Y2.1169
X2.1295Y2.0169
X2.1654Y1.5583
X2.1654Y1.4583
X2.1654Y1.3583
X2.2295Y2.1169
X2.2295Y2.0169
M30
