%TF.GenerationSoftware,KiCad,Pcbnew,8.0.8*%
%TF.CreationDate,2025-02-20T10:17:43+01:00*%
%TF.ProjectId,pi_hat,70695f68-6174-42e6-9b69-6361645f7063,rev?*%
%TF.SameCoordinates,Original*%
%TF.FileFunction,Copper,L1,Top*%
%TF.FilePolarity,Positive*%
%FSLAX46Y46*%
G04 Gerber Fmt 4.6, Leading zero omitted, Abs format (unit mm)*
G04 Created by KiCad (PCBNEW 8.0.8) date 2025-02-20 10:17:43*
%MOMM*%
%LPD*%
G01*
G04 APERTURE LIST*
%TA.AperFunction,ComponentPad*%
%ADD10C,1.700000*%
%TD*%
%TA.AperFunction,ComponentPad*%
%ADD11R,1.700000X1.700000*%
%TD*%
%TA.AperFunction,ComponentPad*%
%ADD12O,1.700000X1.700000*%
%TD*%
%TA.AperFunction,Conductor*%
%ADD13C,0.200000*%
%TD*%
G04 APERTURE END LIST*
D10*
%TO.P,A2,1,GND*%
%TO.N,GND*%
X39000000Y39580000D03*
%TO.P,A2,2,VCC*%
%TO.N,+3V3*%
X39000000Y37040000D03*
%TO.P,A2,3,A*%
%TO.N,Net-(A2-A)*%
X39000000Y34500000D03*
%TD*%
%TO.P,A1,1,GND*%
%TO.N,GND*%
X30000000Y39500000D03*
%TO.P,A1,2,VCC*%
%TO.N,+3V3*%
X30000000Y36960000D03*
%TO.P,A1,3,A*%
%TO.N,Net-(A1-A)*%
X30000000Y34420000D03*
%TD*%
%TO.P,A4,1,GND*%
%TO.N,GND*%
X55000000Y39580000D03*
%TO.P,A4,2,VCC*%
%TO.N,+3V3*%
X55000000Y37040000D03*
%TO.P,A4,3,A*%
%TO.N,Net-(A4-A)*%
X55000000Y34500000D03*
%TD*%
%TO.P,U2,1,VDD*%
%TO.N,+3V3*%
X7000000Y39860000D03*
%TO.P,U2,2,GND*%
%TO.N,GND*%
X7000000Y37320000D03*
%TO.P,U2,3,SCL*%
%TO.N,/GPIO3{slash}SCL1*%
X7000000Y34780000D03*
%TO.P,U2,4,SDA*%
%TO.N,/GPIO2{slash}SDA1*%
X7000000Y32240000D03*
%TO.P,U2,5,ADDR*%
%TO.N,unconnected-(U2-ADDR-Pad5)*%
X7000000Y29700000D03*
%TO.P,U2,6,ALRT*%
%TO.N,unconnected-(U2-ALRT-Pad6)*%
X7000000Y27160000D03*
%TO.P,U2,7,A0*%
%TO.N,Net-(A1-A)*%
X7000000Y24620000D03*
%TO.P,U2,8,A1*%
%TO.N,Net-(A2-A)*%
X7000000Y22080000D03*
%TO.P,U2,9,A2*%
%TO.N,Net-(A3-A)*%
X7000000Y19540000D03*
%TO.P,U2,10,A3*%
%TO.N,Net-(A4-A)*%
X7000000Y17000000D03*
%TD*%
%TO.P,A3,1,GND*%
%TO.N,GND*%
X46500000Y39580000D03*
%TO.P,A3,2,VCC*%
%TO.N,+3V3*%
X46500000Y37040000D03*
%TO.P,A3,3,A*%
%TO.N,Net-(A3-A)*%
X46500000Y34500000D03*
%TD*%
D11*
%TO.P,J1,1,Pin_1*%
%TO.N,+3V3*%
X8370000Y51230000D03*
D12*
%TO.P,J1,2,Pin_2*%
%TO.N,+5V*%
X8370000Y53770000D03*
%TO.P,J1,3,Pin_3*%
%TO.N,/GPIO2{slash}SDA1*%
X10910000Y51230000D03*
%TO.P,J1,4,Pin_4*%
%TO.N,+5V*%
X10910000Y53770000D03*
%TO.P,J1,5,Pin_5*%
%TO.N,/GPIO3{slash}SCL1*%
X13450000Y51230000D03*
%TO.P,J1,6,Pin_6*%
%TO.N,GND*%
X13450000Y53770000D03*
%TO.P,J1,7,Pin_7*%
%TO.N,/GPIO4{slash}GPCLK0*%
X15990000Y51230000D03*
%TO.P,J1,8,Pin_8*%
%TO.N,/GPIO14{slash}TXD0*%
X15990000Y53770000D03*
%TO.P,J1,9,Pin_9*%
%TO.N,GND*%
X18530000Y51230000D03*
%TO.P,J1,10,Pin_10*%
%TO.N,/GPIO15{slash}RXD0*%
X18530000Y53770000D03*
%TO.P,J1,11,Pin_11*%
%TO.N,/GPIO17*%
X21070000Y51230000D03*
%TO.P,J1,12,Pin_12*%
%TO.N,/GPIO18{slash}PCM.CLK*%
X21070000Y53770000D03*
%TO.P,J1,13,Pin_13*%
%TO.N,/GPIO27*%
X23610000Y51230000D03*
%TO.P,J1,14,Pin_14*%
%TO.N,GND*%
X23610000Y53770000D03*
%TO.P,J1,15,Pin_15*%
%TO.N,/GPIO22*%
X26150000Y51230000D03*
%TO.P,J1,16,Pin_16*%
%TO.N,/GPIO23*%
X26150000Y53770000D03*
%TO.P,J1,17,Pin_17*%
%TO.N,+3V3*%
X28690000Y51230000D03*
%TO.P,J1,18,Pin_18*%
%TO.N,/GPIO24*%
X28690000Y53770000D03*
%TO.P,J1,19,Pin_19*%
%TO.N,/GPIO10{slash}SPI0.MOSI*%
X31230000Y51230000D03*
%TO.P,J1,20,Pin_20*%
%TO.N,GND*%
X31230000Y53770000D03*
%TO.P,J1,21,Pin_21*%
%TO.N,/GPIO9{slash}SPI0.MISO*%
X33770000Y51230000D03*
%TO.P,J1,22,Pin_22*%
%TO.N,/GPIO25*%
X33770000Y53770000D03*
%TO.P,J1,23,Pin_23*%
%TO.N,/GPIO11{slash}SPI0.SCLK*%
X36310000Y51230000D03*
%TO.P,J1,24,Pin_24*%
%TO.N,/GPIO8{slash}SPI0.CE0*%
X36310000Y53770000D03*
%TO.P,J1,25,Pin_25*%
%TO.N,GND*%
X38850000Y51230000D03*
%TO.P,J1,26,Pin_26*%
%TO.N,/GPIO7{slash}SPI0.CE1*%
X38850000Y53770000D03*
%TO.P,J1,27,Pin_27*%
%TO.N,/ID_SDA*%
X41390000Y51230000D03*
%TO.P,J1,28,Pin_28*%
%TO.N,/ID_SCL*%
X41390000Y53770000D03*
%TO.P,J1,29,Pin_29*%
%TO.N,/GPIO5*%
X43930000Y51230000D03*
%TO.P,J1,30,Pin_30*%
%TO.N,GND*%
X43930000Y53770000D03*
%TO.P,J1,31,Pin_31*%
%TO.N,/GPIO6*%
X46470000Y51230000D03*
%TO.P,J1,32,Pin_32*%
%TO.N,/GPIO12{slash}PWM0*%
X46470000Y53770000D03*
%TO.P,J1,33,Pin_33*%
%TO.N,/GPIO13{slash}PWM1*%
X49010000Y51230000D03*
%TO.P,J1,34,Pin_34*%
%TO.N,GND*%
X49010000Y53770000D03*
%TO.P,J1,35,Pin_35*%
%TO.N,/GPIO19{slash}PCM.FS*%
X51550000Y51230000D03*
%TO.P,J1,36,Pin_36*%
%TO.N,/GPIO16*%
X51550000Y53770000D03*
%TO.P,J1,37,Pin_37*%
%TO.N,/GPIO26*%
X54090000Y51230000D03*
%TO.P,J1,38,Pin_38*%
%TO.N,/GPIO20{slash}PCM.DIN*%
X54090000Y53770000D03*
%TO.P,J1,39,Pin_39*%
%TO.N,GND*%
X56630000Y51230000D03*
%TO.P,J1,40,Pin_40*%
%TO.N,/GPIO21{slash}PCM.DOUT*%
X56630000Y53770000D03*
%TD*%
D13*
%TO.N,/GPIO2{slash}SDA1*%
X7000000Y32240000D02*
X5150000Y34090000D01*
X5150000Y34090000D02*
X5150000Y45470000D01*
X5150000Y45470000D02*
X10910000Y51230000D01*
%TO.N,/GPIO3{slash}SCL1*%
X13450000Y41230000D02*
X13450000Y51230000D01*
X7000000Y34780000D02*
X13450000Y41230000D01*
%TO.N,Net-(A1-A)*%
X20200000Y24620000D02*
X30000000Y34420000D01*
X7000000Y24620000D02*
X20200000Y24620000D01*
%TO.N,Net-(A2-A)*%
X7000000Y22080000D02*
X26580000Y22080000D01*
X26580000Y22080000D02*
X39000000Y34500000D01*
%TO.N,Net-(A3-A)*%
X31540000Y19540000D02*
X46500000Y34500000D01*
X7000000Y19540000D02*
X31540000Y19540000D01*
%TO.N,Net-(A4-A)*%
X55000000Y30630013D02*
X55000000Y34500000D01*
X7000000Y17000000D02*
X41369987Y17000000D01*
X41369987Y17000000D02*
X55000000Y30630013D01*
%TD*%
%TA.AperFunction,Conductor*%
%TO.N,+3V3*%
G36*
X62003472Y55949305D02*
G01*
X62323297Y55931344D01*
X62337094Y55929790D01*
X62649457Y55876717D01*
X62663014Y55873623D01*
X62967469Y55785911D01*
X62980593Y55781318D01*
X63273304Y55660074D01*
X63285826Y55654045D01*
X63452594Y55561875D01*
X63563139Y55500779D01*
X63574900Y55493389D01*
X63833314Y55310034D01*
X63844174Y55301373D01*
X64080418Y55090251D01*
X64090250Y55080419D01*
X64301372Y54844175D01*
X64310035Y54833313D01*
X64493385Y54574906D01*
X64500778Y54563140D01*
X64654040Y54285834D01*
X64660073Y54273305D01*
X64781317Y53980594D01*
X64785910Y53967470D01*
X64873622Y53663015D01*
X64876716Y53649458D01*
X64929787Y53337106D01*
X64931344Y53323288D01*
X64949305Y53003473D01*
X64949500Y52996520D01*
X64949500Y3003481D01*
X64949305Y2996528D01*
X64931344Y2676713D01*
X64929787Y2662895D01*
X64876716Y2350543D01*
X64873622Y2336986D01*
X64785910Y2032531D01*
X64781317Y2019407D01*
X64660073Y1726696D01*
X64654040Y1714167D01*
X64500778Y1436861D01*
X64493380Y1425087D01*
X64310043Y1166698D01*
X64301372Y1155826D01*
X64090250Y919582D01*
X64080418Y909750D01*
X63844174Y698628D01*
X63833302Y689957D01*
X63574913Y506620D01*
X63563139Y499222D01*
X63285833Y345960D01*
X63273304Y339927D01*
X62980593Y218683D01*
X62967469Y214090D01*
X62663014Y126378D01*
X62649457Y123284D01*
X62337105Y70213D01*
X62323287Y68656D01*
X62003472Y50695D01*
X61996519Y50500D01*
X3003481Y50500D01*
X2996528Y50695D01*
X2676712Y68656D01*
X2662894Y70213D01*
X2350542Y123284D01*
X2336985Y126378D01*
X2032530Y214090D01*
X2019406Y218683D01*
X1726695Y339927D01*
X1714166Y345960D01*
X1436860Y499222D01*
X1425094Y506615D01*
X1166687Y689965D01*
X1155825Y698628D01*
X919581Y909750D01*
X909749Y919582D01*
X698627Y1155826D01*
X689966Y1166686D01*
X506611Y1425100D01*
X499221Y1436861D01*
X345959Y1714167D01*
X339926Y1726696D01*
X218682Y2019407D01*
X214089Y2032531D01*
X126377Y2336986D01*
X123283Y2350543D01*
X94127Y2522142D01*
X70210Y2662906D01*
X68656Y2676703D01*
X50695Y2996528D01*
X50500Y3003481D01*
X50500Y17000000D01*
X5944417Y17000000D01*
X5964699Y16794068D01*
X5987173Y16719980D01*
X6024768Y16596046D01*
X6122315Y16413550D01*
X6122317Y16413548D01*
X6253589Y16253590D01*
X6350209Y16174298D01*
X6413550Y16122315D01*
X6596046Y16024768D01*
X6794066Y15964700D01*
X6794065Y15964700D01*
X6812529Y15962882D01*
X7000000Y15944417D01*
X7205934Y15964700D01*
X7403954Y16024768D01*
X7586450Y16122315D01*
X7746410Y16253590D01*
X7877685Y16413550D01*
X7975232Y16596046D01*
X7979919Y16611497D01*
X8018217Y16669935D01*
X8082030Y16698391D01*
X8098579Y16699500D01*
X41409547Y16699500D01*
X41409549Y16699500D01*
X41485976Y16719979D01*
X41554498Y16759540D01*
X41610447Y16815489D01*
X43737819Y18942863D01*
X43799142Y18976347D01*
X43868834Y18971363D01*
X43924767Y18929491D01*
X43949184Y18864027D01*
X43949500Y18855181D01*
X43949500Y4016408D01*
X43949500Y4000000D01*
X43949500Y3902657D01*
X43985274Y3711286D01*
X43985275Y3711284D01*
X44055600Y3529752D01*
X44055604Y3529743D01*
X44158090Y3364222D01*
X44158092Y3364220D01*
X44289248Y3220348D01*
X44370076Y3159310D01*
X44444614Y3103021D01*
X44513452Y3068744D01*
X44618879Y3016247D01*
X44618883Y3016246D01*
X44618890Y3016242D01*
X44806144Y2962963D01*
X44999999Y2945000D01*
X45000000Y2945000D01*
X45000001Y2945000D01*
X45096928Y2953982D01*
X45193856Y2962963D01*
X45381110Y3016242D01*
X45555386Y3103021D01*
X45710749Y3220346D01*
X45841908Y3364220D01*
X45944397Y3529746D01*
X46014726Y3711286D01*
X46050500Y3902657D01*
X46050500Y4000000D01*
X46050500Y4016408D01*
X46050500Y19020918D01*
X46050500Y19097343D01*
X46014726Y19288714D01*
X45944397Y19470254D01*
X45940155Y19477105D01*
X45841909Y19635779D01*
X45841907Y19635781D01*
X45710751Y19779653D01*
X45555386Y19896979D01*
X45381120Y19983754D01*
X45381107Y19983759D01*
X45193855Y20037038D01*
X45125700Y20043353D01*
X45060763Y20069140D01*
X45020076Y20125940D01*
X45016556Y20195721D01*
X45049459Y20254503D01*
X55240460Y30445502D01*
X55240984Y30446410D01*
X55280021Y30514024D01*
X55300500Y30590451D01*
X55300500Y33401422D01*
X55320185Y33468461D01*
X55372989Y33514216D01*
X55388488Y33520077D01*
X55403954Y33524768D01*
X55586450Y33622315D01*
X55746410Y33753590D01*
X55877685Y33913550D01*
X55975232Y34096046D01*
X56035300Y34294066D01*
X56055583Y34500000D01*
X56035300Y34705934D01*
X55975232Y34903954D01*
X55877685Y35086450D01*
X55785978Y35198196D01*
X55746410Y35246411D01*
X55586452Y35377683D01*
X55586453Y35377683D01*
X55586450Y35377685D01*
X55403954Y35475232D01*
X55337447Y35495407D01*
X55279009Y35533704D01*
X55250553Y35597516D01*
X55261113Y35666583D01*
X55307337Y35718977D01*
X55341350Y35733842D01*
X55463483Y35766567D01*
X55463492Y35766571D01*
X55677580Y35866401D01*
X55761371Y35925075D01*
X55129408Y36557038D01*
X55192993Y36574075D01*
X55307007Y36639901D01*
X55400099Y36732993D01*
X55465925Y36847007D01*
X55482962Y36910592D01*
X56114925Y36278629D01*
X56173599Y36362420D01*
X56273429Y36576508D01*
X56273433Y36576517D01*
X56334567Y36804674D01*
X56334569Y36804685D01*
X56355157Y37039999D01*
X56355157Y37040002D01*
X56334569Y37275316D01*
X56334567Y37275327D01*
X56273433Y37503484D01*
X56273429Y37503493D01*
X56173601Y37717576D01*
X56114925Y37801374D01*
X55482962Y37169410D01*
X55465925Y37232993D01*
X55400099Y37347007D01*
X55307007Y37440099D01*
X55192993Y37505925D01*
X55129409Y37522963D01*
X55761372Y38154927D01*
X55677576Y38213602D01*
X55463492Y38313430D01*
X55463486Y38313433D01*
X55341349Y38346159D01*
X55281689Y38382524D01*
X55251160Y38445371D01*
X55259455Y38514747D01*
X55303940Y38568625D01*
X55337444Y38584593D01*
X55403954Y38604768D01*
X55586450Y38702315D01*
X55746410Y38833590D01*
X55877685Y38993550D01*
X55975232Y39176046D01*
X56035300Y39374066D01*
X56055583Y39580000D01*
X56035300Y39785934D01*
X55975232Y39983954D01*
X55877685Y40166450D01*
X55800830Y40260099D01*
X55746410Y40326411D01*
X55586452Y40457683D01*
X55586453Y40457683D01*
X55586450Y40457685D01*
X55403954Y40555232D01*
X55205934Y40615300D01*
X55205932Y40615301D01*
X55205934Y40615301D01*
X55000000Y40635583D01*
X54794067Y40615301D01*
X54596043Y40555231D01*
X54485898Y40496357D01*
X54413550Y40457685D01*
X54413548Y40457684D01*
X54413547Y40457683D01*
X54253589Y40326411D01*
X54122772Y40167007D01*
X54122315Y40166450D01*
X54098061Y40121074D01*
X54024769Y39983957D01*
X53964699Y39785933D01*
X53944417Y39580000D01*
X53964699Y39374068D01*
X53988967Y39294068D01*
X54024768Y39176046D01*
X54122315Y38993550D01*
X54122317Y38993548D01*
X54253589Y38833590D01*
X54350209Y38754298D01*
X54413550Y38702315D01*
X54596046Y38604768D01*
X54662551Y38584595D01*
X54720989Y38546298D01*
X54749446Y38482486D01*
X54738887Y38413419D01*
X54692663Y38361025D01*
X54658650Y38346159D01*
X54536514Y38313433D01*
X54536507Y38313430D01*
X54322423Y38213601D01*
X54322421Y38213600D01*
X54238627Y38154927D01*
X54238626Y38154927D01*
X54870591Y37522963D01*
X54807007Y37505925D01*
X54692993Y37440099D01*
X54599901Y37347007D01*
X54534075Y37232993D01*
X54517037Y37169410D01*
X53885073Y37801374D01*
X53885073Y37801373D01*
X53826400Y37717579D01*
X53826399Y37717577D01*
X53726570Y37503493D01*
X53726566Y37503484D01*
X53665432Y37275327D01*
X53665430Y37275316D01*
X53644843Y37040002D01*
X53644843Y37039999D01*
X53665430Y36804685D01*
X53665432Y36804674D01*
X53726566Y36576517D01*
X53726570Y36576508D01*
X53826398Y36362424D01*
X53885073Y36278628D01*
X54517037Y36910592D01*
X54534075Y36847007D01*
X54599901Y36732993D01*
X54692993Y36639901D01*
X54807007Y36574075D01*
X54870591Y36557038D01*
X54238626Y35925074D01*
X54322417Y35866402D01*
X54322421Y35866400D01*
X54536507Y35766571D01*
X54536516Y35766567D01*
X54658649Y35733842D01*
X54718310Y35697477D01*
X54748839Y35634631D01*
X54740545Y35565255D01*
X54696059Y35511377D01*
X54662552Y35495407D01*
X54596046Y35475233D01*
X54484122Y35415407D01*
X54413550Y35377685D01*
X54413548Y35377684D01*
X54413547Y35377683D01*
X54253589Y35246411D01*
X54122317Y35086453D01*
X54024769Y34903957D01*
X53964699Y34705933D01*
X53944417Y34500000D01*
X53964699Y34294068D01*
X53964700Y34294066D01*
X54024768Y34096046D01*
X54122315Y33913550D01*
X54156969Y33871323D01*
X54253589Y33753590D01*
X54350209Y33674298D01*
X54413550Y33622315D01*
X54596046Y33524768D01*
X54611496Y33520082D01*
X54669932Y33481788D01*
X54698390Y33417976D01*
X54699500Y33401422D01*
X54699500Y30805846D01*
X54679815Y30738807D01*
X54663181Y30718165D01*
X41281835Y17336819D01*
X41220512Y17303334D01*
X41194154Y17300500D01*
X8098579Y17300500D01*
X8031540Y17320185D01*
X7985785Y17372989D01*
X7979919Y17388503D01*
X7979677Y17389299D01*
X7975232Y17403954D01*
X7877685Y17586450D01*
X7825702Y17649791D01*
X7746410Y17746411D01*
X7586452Y17877683D01*
X7586453Y17877683D01*
X7586450Y17877685D01*
X7403954Y17975232D01*
X7205934Y18035300D01*
X7205932Y18035301D01*
X7205934Y18035301D01*
X7000000Y18055583D01*
X6794067Y18035301D01*
X6596043Y17975231D01*
X6485898Y17916357D01*
X6413550Y17877685D01*
X6413548Y17877684D01*
X6413547Y17877683D01*
X6253589Y17746411D01*
X6122317Y17586453D01*
X6024769Y17403957D01*
X5964699Y17205933D01*
X5944417Y17000000D01*
X50500Y17000000D01*
X50500Y18991885D01*
X51557Y19008039D01*
X63657Y19100055D01*
X72013Y19131274D01*
X104360Y19209462D01*
X120506Y19237465D01*
X171963Y19304627D01*
X194803Y19327506D01*
X203335Y19334066D01*
X261872Y19379078D01*
X289850Y19395276D01*
X367979Y19427758D01*
X399189Y19436168D01*
X457896Y19443993D01*
X491069Y19448413D01*
X507449Y19449500D01*
X4562026Y19449500D01*
X4682969Y19477105D01*
X4794737Y19530929D01*
X4806112Y19540000D01*
X5944417Y19540000D01*
X5964699Y19334068D01*
X5987173Y19259980D01*
X6024768Y19136046D01*
X6122315Y18953550D01*
X6142060Y18929491D01*
X6253589Y18793590D01*
X6350209Y18714298D01*
X6413550Y18662315D01*
X6596046Y18564768D01*
X6794066Y18504700D01*
X6794065Y18504700D01*
X6812529Y18502882D01*
X7000000Y18484417D01*
X7205934Y18504700D01*
X7403954Y18564768D01*
X7586450Y18662315D01*
X7746410Y18793590D01*
X7877685Y18953550D01*
X7975232Y19136046D01*
X7979919Y19151497D01*
X8018217Y19209935D01*
X8082030Y19238391D01*
X8098579Y19239500D01*
X31579560Y19239500D01*
X31579562Y19239500D01*
X31655989Y19259979D01*
X31724511Y19299540D01*
X31780460Y19355489D01*
X45935673Y33510704D01*
X45996994Y33544187D01*
X46066686Y33539203D01*
X46081804Y33532380D01*
X46082130Y33532206D01*
X46096046Y33524768D01*
X46294066Y33464700D01*
X46294065Y33464700D01*
X46312529Y33462882D01*
X46500000Y33444417D01*
X46705934Y33464700D01*
X46903954Y33524768D01*
X47086450Y33622315D01*
X47246410Y33753590D01*
X47377685Y33913550D01*
X47475232Y34096046D01*
X47535300Y34294066D01*
X47555583Y34500000D01*
X47535300Y34705934D01*
X47475232Y34903954D01*
X47377685Y35086450D01*
X47285978Y35198196D01*
X47246410Y35246411D01*
X47086452Y35377683D01*
X47086453Y35377683D01*
X47086450Y35377685D01*
X46903954Y35475232D01*
X46837447Y35495407D01*
X46779009Y35533704D01*
X46750553Y35597516D01*
X46761113Y35666583D01*
X46807337Y35718977D01*
X46841350Y35733842D01*
X46963483Y35766567D01*
X46963492Y35766571D01*
X47177580Y35866401D01*
X47261371Y35925075D01*
X46629408Y36557038D01*
X46692993Y36574075D01*
X46807007Y36639901D01*
X46900099Y36732993D01*
X46965925Y36847007D01*
X46982962Y36910592D01*
X47614925Y36278629D01*
X47673599Y36362420D01*
X47773429Y36576508D01*
X47773433Y36576517D01*
X47834567Y36804674D01*
X47834569Y36804685D01*
X47855157Y37039999D01*
X47855157Y37040002D01*
X47834569Y37275316D01*
X47834567Y37275327D01*
X47773433Y37503484D01*
X47773429Y37503493D01*
X47673601Y37717576D01*
X47614925Y37801374D01*
X46982962Y37169410D01*
X46965925Y37232993D01*
X46900099Y37347007D01*
X46807007Y37440099D01*
X46692993Y37505925D01*
X46629409Y37522963D01*
X47261372Y38154927D01*
X47177576Y38213602D01*
X46963492Y38313430D01*
X46963486Y38313433D01*
X46841349Y38346159D01*
X46781689Y38382524D01*
X46751160Y38445371D01*
X46759455Y38514747D01*
X46803940Y38568625D01*
X46837444Y38584593D01*
X46903954Y38604768D01*
X47086450Y38702315D01*
X47246410Y38833590D01*
X47377685Y38993550D01*
X47475232Y39176046D01*
X47535300Y39374066D01*
X47555583Y39580000D01*
X47535300Y39785934D01*
X47475232Y39983954D01*
X47377685Y40166450D01*
X47300830Y40260099D01*
X47246410Y40326411D01*
X47086452Y40457683D01*
X47086453Y40457683D01*
X47086450Y40457685D01*
X46903954Y40555232D01*
X46705934Y40615300D01*
X46705932Y40615301D01*
X46705934Y40615301D01*
X46500000Y40635583D01*
X46294067Y40615301D01*
X46096043Y40555231D01*
X45985898Y40496357D01*
X45913550Y40457685D01*
X45913548Y40457684D01*
X45913547Y40457683D01*
X45753589Y40326411D01*
X45622772Y40167007D01*
X45622315Y40166450D01*
X45598061Y40121074D01*
X45524769Y39983957D01*
X45464699Y39785933D01*
X45444417Y39580000D01*
X45464699Y39374068D01*
X45488967Y39294068D01*
X45524768Y39176046D01*
X45622315Y38993550D01*
X45622317Y38993548D01*
X45753589Y38833590D01*
X45850209Y38754298D01*
X45913550Y38702315D01*
X46096046Y38604768D01*
X46162551Y38584595D01*
X46220989Y38546298D01*
X46249446Y38482486D01*
X46238887Y38413419D01*
X46192663Y38361025D01*
X46158650Y38346159D01*
X46036514Y38313433D01*
X46036507Y38313430D01*
X45822423Y38213601D01*
X45822421Y38213600D01*
X45738627Y38154927D01*
X45738626Y38154927D01*
X46370591Y37522963D01*
X46307007Y37505925D01*
X46192993Y37440099D01*
X46099901Y37347007D01*
X46034075Y37232993D01*
X46017037Y37169410D01*
X45385073Y37801374D01*
X45385073Y37801373D01*
X45326400Y37717579D01*
X45326399Y37717577D01*
X45226570Y37503493D01*
X45226566Y37503484D01*
X45165432Y37275327D01*
X45165430Y37275316D01*
X45144843Y37040002D01*
X45144843Y37039999D01*
X45165430Y36804685D01*
X45165432Y36804674D01*
X45226566Y36576517D01*
X45226570Y36576508D01*
X45326398Y36362424D01*
X45385073Y36278628D01*
X46017037Y36910592D01*
X46034075Y36847007D01*
X46099901Y36732993D01*
X46192993Y36639901D01*
X46307007Y36574075D01*
X46370591Y36557038D01*
X45738626Y35925074D01*
X45822417Y35866402D01*
X45822421Y35866400D01*
X46036507Y35766571D01*
X46036516Y35766567D01*
X46158649Y35733842D01*
X46218310Y35697477D01*
X46248839Y35634631D01*
X46240545Y35565255D01*
X46196059Y35511377D01*
X46162552Y35495407D01*
X46096046Y35475233D01*
X45984122Y35415407D01*
X45913550Y35377685D01*
X45913548Y35377684D01*
X45913547Y35377683D01*
X45753589Y35246411D01*
X45622317Y35086453D01*
X45524769Y34903957D01*
X45464699Y34705933D01*
X45444417Y34500000D01*
X45464699Y34294068D01*
X45524769Y34096044D01*
X45532379Y34081807D01*
X45546620Y34013404D01*
X45521619Y33948160D01*
X45510701Y33935674D01*
X31451848Y19876819D01*
X31390525Y19843334D01*
X31364167Y19840500D01*
X8098579Y19840500D01*
X8031540Y19860185D01*
X7985785Y19912989D01*
X7979919Y19928503D01*
X7977046Y19937973D01*
X7975232Y19943954D01*
X7877685Y20126450D01*
X7772594Y20254505D01*
X7746410Y20286411D01*
X7586452Y20417683D01*
X7586453Y20417683D01*
X7586450Y20417685D01*
X7403954Y20515232D01*
X7205934Y20575300D01*
X7205932Y20575301D01*
X7205934Y20575301D01*
X7000000Y20595583D01*
X6794067Y20575301D01*
X6596043Y20515231D01*
X6485898Y20456357D01*
X6413550Y20417685D01*
X6413548Y20417684D01*
X6413547Y20417683D01*
X6253589Y20286411D01*
X6122317Y20126453D01*
X6122315Y20126450D01*
X6091682Y20069140D01*
X6024769Y19943957D01*
X5964699Y19745933D01*
X5944417Y19540000D01*
X4806112Y19540000D01*
X4891725Y19608275D01*
X4969071Y19705263D01*
X5022895Y19817031D01*
X5050500Y19937974D01*
X5050500Y20000000D01*
X5050500Y20016408D01*
X5050500Y22080000D01*
X5944417Y22080000D01*
X5964699Y21874068D01*
X5987173Y21799980D01*
X6024768Y21676046D01*
X6122315Y21493550D01*
X6122317Y21493548D01*
X6253589Y21333590D01*
X6350209Y21254298D01*
X6413550Y21202315D01*
X6596046Y21104768D01*
X6794066Y21044700D01*
X6794065Y21044700D01*
X6812529Y21042882D01*
X7000000Y21024417D01*
X7205934Y21044700D01*
X7403954Y21104768D01*
X7586450Y21202315D01*
X7746410Y21333590D01*
X7877685Y21493550D01*
X7975232Y21676046D01*
X7979919Y21691497D01*
X8018217Y21749935D01*
X8082030Y21778391D01*
X8098579Y21779500D01*
X26619560Y21779500D01*
X26619562Y21779500D01*
X26695989Y21799979D01*
X26764511Y21839540D01*
X26820460Y21895489D01*
X38435673Y33510704D01*
X38496994Y33544187D01*
X38566686Y33539203D01*
X38581804Y33532380D01*
X38582130Y33532206D01*
X38596046Y33524768D01*
X38794066Y33464700D01*
X38794065Y33464700D01*
X38812529Y33462882D01*
X39000000Y33444417D01*
X39205934Y33464700D01*
X39403954Y33524768D01*
X39586450Y33622315D01*
X39746410Y33753590D01*
X39877685Y33913550D01*
X39975232Y34096046D01*
X40035300Y34294066D01*
X40055583Y34500000D01*
X40035300Y34705934D01*
X39975232Y34903954D01*
X39877685Y35086450D01*
X39785978Y35198196D01*
X39746410Y35246411D01*
X39586452Y35377683D01*
X39586453Y35377683D01*
X39586450Y35377685D01*
X39403954Y35475232D01*
X39337447Y35495407D01*
X39279009Y35533704D01*
X39250553Y35597516D01*
X39261113Y35666583D01*
X39307337Y35718977D01*
X39341350Y35733842D01*
X39463483Y35766567D01*
X39463492Y35766571D01*
X39677580Y35866401D01*
X39761371Y35925075D01*
X39129408Y36557038D01*
X39192993Y36574075D01*
X39307007Y36639901D01*
X39400099Y36732993D01*
X39465925Y36847007D01*
X39482962Y36910592D01*
X40114925Y36278629D01*
X40173599Y36362420D01*
X40273429Y36576508D01*
X40273433Y36576517D01*
X40334567Y36804674D01*
X40334569Y36804685D01*
X40355157Y37039999D01*
X40355157Y37040002D01*
X40334569Y37275316D01*
X40334567Y37275327D01*
X40273433Y37503484D01*
X40273429Y37503493D01*
X40173601Y37717576D01*
X40114925Y37801374D01*
X39482962Y37169410D01*
X39465925Y37232993D01*
X39400099Y37347007D01*
X39307007Y37440099D01*
X39192993Y37505925D01*
X39129409Y37522963D01*
X39761372Y38154927D01*
X39677576Y38213602D01*
X39463492Y38313430D01*
X39463486Y38313433D01*
X39341349Y38346159D01*
X39281689Y38382524D01*
X39251160Y38445371D01*
X39259455Y38514747D01*
X39303940Y38568625D01*
X39337444Y38584593D01*
X39403954Y38604768D01*
X39586450Y38702315D01*
X39746410Y38833590D01*
X39877685Y38993550D01*
X39975232Y39176046D01*
X40035300Y39374066D01*
X40055583Y39580000D01*
X40035300Y39785934D01*
X39975232Y39983954D01*
X39877685Y40166450D01*
X39800830Y40260099D01*
X39746410Y40326411D01*
X39586452Y40457683D01*
X39586453Y40457683D01*
X39586450Y40457685D01*
X39403954Y40555232D01*
X39205934Y40615300D01*
X39205932Y40615301D01*
X39205934Y40615301D01*
X39000000Y40635583D01*
X38794067Y40615301D01*
X38596043Y40555231D01*
X38485898Y40496357D01*
X38413550Y40457685D01*
X38413548Y40457684D01*
X38413547Y40457683D01*
X38253589Y40326411D01*
X38122772Y40167007D01*
X38122315Y40166450D01*
X38098061Y40121074D01*
X38024769Y39983957D01*
X37964699Y39785933D01*
X37944417Y39580000D01*
X37964699Y39374068D01*
X37988967Y39294068D01*
X38024768Y39176046D01*
X38122315Y38993550D01*
X38122317Y38993548D01*
X38253589Y38833590D01*
X38350209Y38754298D01*
X38413550Y38702315D01*
X38596046Y38604768D01*
X38662551Y38584595D01*
X38720989Y38546298D01*
X38749446Y38482486D01*
X38738887Y38413419D01*
X38692663Y38361025D01*
X38658650Y38346159D01*
X38536514Y38313433D01*
X38536507Y38313430D01*
X38322423Y38213601D01*
X38322421Y38213600D01*
X38238627Y38154927D01*
X38238626Y38154927D01*
X38870591Y37522963D01*
X38807007Y37505925D01*
X38692993Y37440099D01*
X38599901Y37347007D01*
X38534075Y37232993D01*
X38517037Y37169410D01*
X37885073Y37801374D01*
X37885073Y37801373D01*
X37826400Y37717579D01*
X37826399Y37717577D01*
X37726570Y37503493D01*
X37726566Y37503484D01*
X37665432Y37275327D01*
X37665430Y37275316D01*
X37644843Y37040002D01*
X37644843Y37039999D01*
X37665430Y36804685D01*
X37665432Y36804674D01*
X37726566Y36576517D01*
X37726570Y36576508D01*
X37826398Y36362424D01*
X37885073Y36278628D01*
X38517037Y36910592D01*
X38534075Y36847007D01*
X38599901Y36732993D01*
X38692993Y36639901D01*
X38807007Y36574075D01*
X38870591Y36557038D01*
X38238626Y35925074D01*
X38322417Y35866402D01*
X38322421Y35866400D01*
X38536507Y35766571D01*
X38536516Y35766567D01*
X38658649Y35733842D01*
X38718310Y35697477D01*
X38748839Y35634631D01*
X38740545Y35565255D01*
X38696059Y35511377D01*
X38662552Y35495407D01*
X38596046Y35475233D01*
X38484122Y35415407D01*
X38413550Y35377685D01*
X38413548Y35377684D01*
X38413547Y35377683D01*
X38253589Y35246411D01*
X38122317Y35086453D01*
X38024769Y34903957D01*
X37964699Y34705933D01*
X37944417Y34500000D01*
X37964699Y34294068D01*
X38024769Y34096044D01*
X38032379Y34081807D01*
X38046620Y34013404D01*
X38021619Y33948160D01*
X38010701Y33935674D01*
X26491848Y22416819D01*
X26430525Y22383334D01*
X26404167Y22380500D01*
X8098579Y22380500D01*
X8031540Y22400185D01*
X7985785Y22452989D01*
X7979919Y22468503D01*
X7979677Y22469299D01*
X7975232Y22483954D01*
X7877685Y22666450D01*
X7825702Y22729791D01*
X7746410Y22826411D01*
X7586452Y22957683D01*
X7586453Y22957683D01*
X7586450Y22957685D01*
X7403954Y23055232D01*
X7205934Y23115300D01*
X7205932Y23115301D01*
X7205934Y23115301D01*
X7000000Y23135583D01*
X6794067Y23115301D01*
X6596043Y23055231D01*
X6485898Y22996357D01*
X6413550Y22957685D01*
X6413548Y22957684D01*
X6413547Y22957683D01*
X6253589Y22826411D01*
X6122317Y22666453D01*
X6024769Y22483957D01*
X5964699Y22285933D01*
X5944417Y22080000D01*
X5050500Y22080000D01*
X5050500Y24620000D01*
X5944417Y24620000D01*
X5964699Y24414068D01*
X5987173Y24339980D01*
X6024768Y24216046D01*
X6122315Y24033550D01*
X6122317Y24033548D01*
X6253589Y23873590D01*
X6350209Y23794298D01*
X6413550Y23742315D01*
X6596046Y23644768D01*
X6794066Y23584700D01*
X6794065Y23584700D01*
X6812529Y23582882D01*
X7000000Y23564417D01*
X7205934Y23584700D01*
X7403954Y23644768D01*
X7586450Y23742315D01*
X7746410Y23873590D01*
X7877685Y24033550D01*
X7975232Y24216046D01*
X7979919Y24231497D01*
X8018217Y24289935D01*
X8082030Y24318391D01*
X8098579Y24319500D01*
X20239560Y24319500D01*
X20239562Y24319500D01*
X20315989Y24339979D01*
X20384511Y24379540D01*
X20440460Y24435489D01*
X29435673Y33430704D01*
X29496994Y33464187D01*
X29566686Y33459203D01*
X29581804Y33452380D01*
X29590493Y33447736D01*
X29596046Y33444768D01*
X29794066Y33384700D01*
X29794065Y33384700D01*
X29812529Y33382882D01*
X30000000Y33364417D01*
X30205934Y33384700D01*
X30403954Y33444768D01*
X30586450Y33542315D01*
X30746410Y33673590D01*
X30877685Y33833550D01*
X30975232Y34016046D01*
X31035300Y34214066D01*
X31055583Y34420000D01*
X31035300Y34625934D01*
X30975232Y34823954D01*
X30877685Y35006450D01*
X30812029Y35086453D01*
X30746410Y35166411D01*
X30624329Y35266599D01*
X30586450Y35297685D01*
X30403954Y35395232D01*
X30337447Y35415407D01*
X30279009Y35453704D01*
X30250553Y35517516D01*
X30261113Y35586583D01*
X30307337Y35638977D01*
X30341350Y35653842D01*
X30463483Y35686567D01*
X30463492Y35686571D01*
X30677580Y35786401D01*
X30761371Y35845075D01*
X30129408Y36477038D01*
X30192993Y36494075D01*
X30307007Y36559901D01*
X30400099Y36652993D01*
X30465925Y36767007D01*
X30482962Y36830592D01*
X31114925Y36198629D01*
X31173599Y36282420D01*
X31273429Y36496508D01*
X31273433Y36496517D01*
X31334567Y36724674D01*
X31334569Y36724685D01*
X31355157Y36959999D01*
X31355157Y36960002D01*
X31334569Y37195316D01*
X31334567Y37195327D01*
X31273433Y37423484D01*
X31273429Y37423493D01*
X31173601Y37637576D01*
X31114925Y37721374D01*
X30482962Y37089410D01*
X30465925Y37152993D01*
X30400099Y37267007D01*
X30307007Y37360099D01*
X30192993Y37425925D01*
X30129409Y37442963D01*
X30761372Y38074927D01*
X30677576Y38133602D01*
X30463492Y38233430D01*
X30463486Y38233433D01*
X30341349Y38266159D01*
X30281689Y38302524D01*
X30251160Y38365371D01*
X30259455Y38434747D01*
X30303940Y38488625D01*
X30337444Y38504593D01*
X30403954Y38524768D01*
X30586450Y38622315D01*
X30746410Y38753590D01*
X30877685Y38913550D01*
X30975232Y39096046D01*
X31035300Y39294066D01*
X31055583Y39500000D01*
X31035300Y39705934D01*
X30975232Y39903954D01*
X30877685Y40086450D01*
X30782061Y40202969D01*
X30746410Y40246411D01*
X30586452Y40377683D01*
X30586453Y40377683D01*
X30586450Y40377685D01*
X30403954Y40475232D01*
X30205934Y40535300D01*
X30205932Y40535301D01*
X30205934Y40535301D01*
X30000000Y40555583D01*
X29794067Y40535301D01*
X29596043Y40475231D01*
X29563214Y40457683D01*
X29413550Y40377685D01*
X29413548Y40377684D01*
X29413547Y40377683D01*
X29253589Y40246411D01*
X29122317Y40086453D01*
X29024769Y39903957D01*
X28964699Y39705933D01*
X28944417Y39500000D01*
X28964699Y39294068D01*
X28964700Y39294066D01*
X29024768Y39096046D01*
X29122315Y38913550D01*
X29122317Y38913548D01*
X29253589Y38753590D01*
X29335462Y38686400D01*
X29413550Y38622315D01*
X29596046Y38524768D01*
X29662551Y38504595D01*
X29720989Y38466298D01*
X29749446Y38402486D01*
X29738887Y38333419D01*
X29692663Y38281025D01*
X29658650Y38266159D01*
X29536514Y38233433D01*
X29536507Y38233430D01*
X29322423Y38133601D01*
X29322421Y38133600D01*
X29238627Y38074927D01*
X29238626Y38074927D01*
X29870591Y37442963D01*
X29807007Y37425925D01*
X29692993Y37360099D01*
X29599901Y37267007D01*
X29534075Y37152993D01*
X29517037Y37089410D01*
X28885073Y37721374D01*
X28885073Y37721373D01*
X28826400Y37637579D01*
X28826399Y37637577D01*
X28726570Y37423493D01*
X28726566Y37423484D01*
X28665432Y37195327D01*
X28665430Y37195316D01*
X28644843Y36960002D01*
X28644843Y36959999D01*
X28665430Y36724685D01*
X28665432Y36724674D01*
X28726566Y36496517D01*
X28726570Y36496508D01*
X28826398Y36282424D01*
X28885073Y36198628D01*
X29517037Y36830592D01*
X29534075Y36767007D01*
X29599901Y36652993D01*
X29692993Y36559901D01*
X29807007Y36494075D01*
X29870591Y36477038D01*
X29238626Y35845074D01*
X29322417Y35786402D01*
X29322421Y35786400D01*
X29536507Y35686571D01*
X29536516Y35686567D01*
X29658649Y35653842D01*
X29718310Y35617477D01*
X29748839Y35554631D01*
X29740545Y35485255D01*
X29696059Y35431377D01*
X29662552Y35415407D01*
X29596046Y35395233D01*
X29465358Y35325378D01*
X29413550Y35297685D01*
X29413548Y35297684D01*
X29413547Y35297683D01*
X29253589Y35166411D01*
X29122317Y35006453D01*
X29122315Y35006450D01*
X29083643Y34934102D01*
X29024769Y34823957D01*
X28964699Y34625933D01*
X28944417Y34420000D01*
X28964699Y34214068D01*
X28964700Y34214066D01*
X29014335Y34050438D01*
X29024769Y34016044D01*
X29032379Y34001807D01*
X29046620Y33933404D01*
X29021619Y33868160D01*
X29010701Y33855674D01*
X20111848Y24956819D01*
X20050525Y24923334D01*
X20024167Y24920500D01*
X8098579Y24920500D01*
X8031540Y24940185D01*
X7985785Y24992989D01*
X7979919Y25008503D01*
X7979677Y25009299D01*
X7975232Y25023954D01*
X7877685Y25206450D01*
X7825702Y25269791D01*
X7746410Y25366411D01*
X7586452Y25497683D01*
X7586453Y25497683D01*
X7586450Y25497685D01*
X7403954Y25595232D01*
X7205934Y25655300D01*
X7205932Y25655301D01*
X7205934Y25655301D01*
X7000000Y25675583D01*
X6794067Y25655301D01*
X6596043Y25595231D01*
X6485898Y25536357D01*
X6413550Y25497685D01*
X6413548Y25497684D01*
X6413547Y25497683D01*
X6253589Y25366411D01*
X6122317Y25206453D01*
X6024769Y25023957D01*
X5964699Y24825933D01*
X5944417Y24620000D01*
X5050500Y24620000D01*
X5050500Y27160000D01*
X5944417Y27160000D01*
X5964699Y26954068D01*
X5964700Y26954066D01*
X6024768Y26756046D01*
X6122315Y26573550D01*
X6122317Y26573548D01*
X6253589Y26413590D01*
X6350209Y26334298D01*
X6413550Y26282315D01*
X6596046Y26184768D01*
X6794066Y26124700D01*
X6794065Y26124700D01*
X6812529Y26122882D01*
X7000000Y26104417D01*
X7205934Y26124700D01*
X7403954Y26184768D01*
X7586450Y26282315D01*
X7746410Y26413590D01*
X7877685Y26573550D01*
X7975232Y26756046D01*
X8035300Y26954066D01*
X8055583Y27160000D01*
X8035300Y27365934D01*
X7975232Y27563954D01*
X7877685Y27746450D01*
X7825702Y27809791D01*
X7746410Y27906411D01*
X7586452Y28037683D01*
X7586453Y28037683D01*
X7586450Y28037685D01*
X7403954Y28135232D01*
X7205934Y28195300D01*
X7205932Y28195301D01*
X7205934Y28195301D01*
X7000000Y28215583D01*
X6794067Y28195301D01*
X6596043Y28135231D01*
X6485898Y28076357D01*
X6413550Y28037685D01*
X6413548Y28037684D01*
X6413547Y28037683D01*
X6253589Y27906411D01*
X6122317Y27746453D01*
X6024769Y27563957D01*
X5964699Y27365933D01*
X5944417Y27160000D01*
X5050500Y27160000D01*
X5050500Y29700000D01*
X5944417Y29700000D01*
X5964699Y29494068D01*
X5964700Y29494066D01*
X6024768Y29296046D01*
X6122315Y29113550D01*
X6122317Y29113548D01*
X6253589Y28953590D01*
X6350209Y28874298D01*
X6413550Y28822315D01*
X6596046Y28724768D01*
X6794066Y28664700D01*
X6794065Y28664700D01*
X6812529Y28662882D01*
X7000000Y28644417D01*
X7205934Y28664700D01*
X7403954Y28724768D01*
X7586450Y28822315D01*
X7746410Y28953590D01*
X7877685Y29113550D01*
X7975232Y29296046D01*
X8035300Y29494066D01*
X8055583Y29700000D01*
X8035300Y29905934D01*
X7975232Y30103954D01*
X7877685Y30286450D01*
X7825702Y30349791D01*
X7746410Y30446411D01*
X7586452Y30577683D01*
X7586453Y30577683D01*
X7586450Y30577685D01*
X7403954Y30675232D01*
X7205934Y30735300D01*
X7205932Y30735301D01*
X7205934Y30735301D01*
X7000000Y30755583D01*
X6794067Y30735301D01*
X6596043Y30675231D01*
X6485898Y30616357D01*
X6413550Y30577685D01*
X6413548Y30577684D01*
X6413547Y30577683D01*
X6253589Y30446411D01*
X6122317Y30286453D01*
X6024769Y30103957D01*
X5964699Y29905933D01*
X5944417Y29700000D01*
X5050500Y29700000D01*
X5050500Y33465167D01*
X5070185Y33532206D01*
X5122989Y33577961D01*
X5192147Y33587905D01*
X5255703Y33558880D01*
X5262181Y33552848D01*
X6010701Y32804328D01*
X6044186Y32743005D01*
X6039202Y32673313D01*
X6032381Y32658200D01*
X6024770Y32643961D01*
X5964699Y32445933D01*
X5944417Y32240000D01*
X5964699Y32034068D01*
X5964700Y32034066D01*
X6024768Y31836046D01*
X6122315Y31653550D01*
X6122317Y31653548D01*
X6253589Y31493590D01*
X6350209Y31414298D01*
X6413550Y31362315D01*
X6596046Y31264768D01*
X6794066Y31204700D01*
X6794065Y31204700D01*
X6812529Y31202882D01*
X7000000Y31184417D01*
X7205934Y31204700D01*
X7403954Y31264768D01*
X7586450Y31362315D01*
X7746410Y31493590D01*
X7877685Y31653550D01*
X7975232Y31836046D01*
X8035300Y32034066D01*
X8055583Y32240000D01*
X8035300Y32445934D01*
X7975232Y32643954D01*
X7877685Y32826450D01*
X7825702Y32889791D01*
X7746410Y32986411D01*
X7586452Y33117683D01*
X7586453Y33117683D01*
X7586450Y33117685D01*
X7403954Y33215232D01*
X7205934Y33275300D01*
X7205932Y33275301D01*
X7205934Y33275301D01*
X7000000Y33295583D01*
X6794067Y33275301D01*
X6596039Y33215230D01*
X6581800Y33207619D01*
X6513397Y33193380D01*
X6448154Y33218384D01*
X6435672Y33229299D01*
X5486819Y34178152D01*
X5453334Y34239475D01*
X5450500Y34265833D01*
X5450500Y34780000D01*
X5944417Y34780000D01*
X5964699Y34574068D01*
X5964700Y34574066D01*
X6024768Y34376046D01*
X6122315Y34193550D01*
X6122317Y34193548D01*
X6253589Y34033590D01*
X6350209Y33954298D01*
X6413550Y33902315D01*
X6596046Y33804768D01*
X6794066Y33744700D01*
X6794065Y33744700D01*
X6812529Y33742882D01*
X7000000Y33724417D01*
X7205934Y33744700D01*
X7403954Y33804768D01*
X7586450Y33902315D01*
X7746410Y34033590D01*
X7877685Y34193550D01*
X7975232Y34376046D01*
X8035300Y34574066D01*
X8055583Y34780000D01*
X8035300Y34985934D01*
X7975232Y35183954D01*
X7972264Y35189507D01*
X7967620Y35198196D01*
X7953379Y35266599D01*
X7978380Y35331843D01*
X7989290Y35344321D01*
X13690460Y41045489D01*
X13730021Y41114011D01*
X13750500Y41190438D01*
X13750500Y50131422D01*
X13770185Y50198461D01*
X13822989Y50244216D01*
X13838488Y50250077D01*
X13853954Y50254768D01*
X14036450Y50352315D01*
X14196410Y50483590D01*
X14327685Y50643550D01*
X14425232Y50826046D01*
X14485300Y51024066D01*
X14505583Y51230000D01*
X14934417Y51230000D01*
X14954699Y51024068D01*
X14954700Y51024066D01*
X15014768Y50826046D01*
X15112315Y50643550D01*
X15112317Y50643548D01*
X15243589Y50483590D01*
X15340209Y50404298D01*
X15403550Y50352315D01*
X15586046Y50254768D01*
X15784066Y50194700D01*
X15784065Y50194700D01*
X15802529Y50192882D01*
X15990000Y50174417D01*
X16195934Y50194700D01*
X16393954Y50254768D01*
X16576450Y50352315D01*
X16736410Y50483590D01*
X16867685Y50643550D01*
X16965232Y50826046D01*
X17025300Y51024066D01*
X17045583Y51230000D01*
X17474417Y51230000D01*
X17494699Y51024068D01*
X17494700Y51024066D01*
X17554768Y50826046D01*
X17652315Y50643550D01*
X17652317Y50643548D01*
X17783589Y50483590D01*
X17880209Y50404298D01*
X17943550Y50352315D01*
X18126046Y50254768D01*
X18324066Y50194700D01*
X18324065Y50194700D01*
X18342529Y50192882D01*
X18530000Y50174417D01*
X18735934Y50194700D01*
X18933954Y50254768D01*
X19116450Y50352315D01*
X19276410Y50483590D01*
X19407685Y50643550D01*
X19505232Y50826046D01*
X19565300Y51024066D01*
X19585583Y51230000D01*
X20014417Y51230000D01*
X20034699Y51024068D01*
X20034700Y51024066D01*
X20094768Y50826046D01*
X20192315Y50643550D01*
X20192317Y50643548D01*
X20323589Y50483590D01*
X20420209Y50404298D01*
X20483550Y50352315D01*
X20666046Y50254768D01*
X20864066Y50194700D01*
X20864065Y50194700D01*
X20882529Y50192882D01*
X21070000Y50174417D01*
X21275934Y50194700D01*
X21473954Y50254768D01*
X21656450Y50352315D01*
X21816410Y50483590D01*
X21947685Y50643550D01*
X22045232Y50826046D01*
X22105300Y51024066D01*
X22125583Y51230000D01*
X22554417Y51230000D01*
X22574699Y51024068D01*
X22574700Y51024066D01*
X22634768Y50826046D01*
X22732315Y50643550D01*
X22732317Y50643548D01*
X22863589Y50483590D01*
X22960209Y50404298D01*
X23023550Y50352315D01*
X23206046Y50254768D01*
X23404066Y50194700D01*
X23404065Y50194700D01*
X23422529Y50192882D01*
X23610000Y50174417D01*
X23815934Y50194700D01*
X24013954Y50254768D01*
X24196450Y50352315D01*
X24356410Y50483590D01*
X24487685Y50643550D01*
X24585232Y50826046D01*
X24645300Y51024066D01*
X24665583Y51230000D01*
X25094417Y51230000D01*
X25114699Y51024068D01*
X25114700Y51024066D01*
X25174768Y50826046D01*
X25272315Y50643550D01*
X25272317Y50643548D01*
X25403589Y50483590D01*
X25500209Y50404298D01*
X25563550Y50352315D01*
X25746046Y50254768D01*
X25944066Y50194700D01*
X25944065Y50194700D01*
X25962529Y50192882D01*
X26150000Y50174417D01*
X26355934Y50194700D01*
X26553954Y50254768D01*
X26736450Y50352315D01*
X26896410Y50483590D01*
X27027685Y50643550D01*
X27125232Y50826046D01*
X27145406Y50892554D01*
X27183702Y50950990D01*
X27247514Y50979447D01*
X27316581Y50968888D01*
X27368975Y50922664D01*
X27383841Y50888651D01*
X27416567Y50766514D01*
X27416570Y50766508D01*
X27516399Y50552422D01*
X27651894Y50358918D01*
X27818917Y50191895D01*
X28012421Y50056400D01*
X28226507Y49956571D01*
X28226516Y49956567D01*
X28440000Y49899366D01*
X28440000Y50796988D01*
X28497007Y50764075D01*
X28624174Y50730000D01*
X28755826Y50730000D01*
X28882993Y50764075D01*
X28940000Y50796988D01*
X28940000Y49899367D01*
X29153483Y49956567D01*
X29153492Y49956571D01*
X29367578Y50056400D01*
X29561082Y50191895D01*
X29728105Y50358918D01*
X29863600Y50552422D01*
X29963429Y50766508D01*
X29963433Y50766517D01*
X29996158Y50888650D01*
X30032522Y50948310D01*
X30095369Y50978840D01*
X30164745Y50970546D01*
X30218623Y50926061D01*
X30234593Y50892553D01*
X30254768Y50826046D01*
X30352315Y50643550D01*
X30352317Y50643548D01*
X30483589Y50483590D01*
X30580209Y50404298D01*
X30643550Y50352315D01*
X30826046Y50254768D01*
X31024066Y50194700D01*
X31024065Y50194700D01*
X31042529Y50192882D01*
X31230000Y50174417D01*
X31435934Y50194700D01*
X31633954Y50254768D01*
X31816450Y50352315D01*
X31976410Y50483590D01*
X32107685Y50643550D01*
X32205232Y50826046D01*
X32265300Y51024066D01*
X32285583Y51230000D01*
X32714417Y51230000D01*
X32734699Y51024068D01*
X32734700Y51024066D01*
X32794768Y50826046D01*
X32892315Y50643550D01*
X32892317Y50643548D01*
X33023589Y50483590D01*
X33120209Y50404298D01*
X33183550Y50352315D01*
X33366046Y50254768D01*
X33564066Y50194700D01*
X33564065Y50194700D01*
X33582529Y50192882D01*
X33770000Y50174417D01*
X33975934Y50194700D01*
X34173954Y50254768D01*
X34356450Y50352315D01*
X34516410Y50483590D01*
X34647685Y50643550D01*
X34745232Y50826046D01*
X34805300Y51024066D01*
X34825583Y51230000D01*
X35254417Y51230000D01*
X35274699Y51024068D01*
X35274700Y51024066D01*
X35334768Y50826046D01*
X35432315Y50643550D01*
X35432317Y50643548D01*
X35563589Y50483590D01*
X35660209Y50404298D01*
X35723550Y50352315D01*
X35906046Y50254768D01*
X36104066Y50194700D01*
X36104065Y50194700D01*
X36122529Y50192882D01*
X36310000Y50174417D01*
X36515934Y50194700D01*
X36713954Y50254768D01*
X36896450Y50352315D01*
X37056410Y50483590D01*
X37187685Y50643550D01*
X37285232Y50826046D01*
X37345300Y51024066D01*
X37365583Y51230000D01*
X37794417Y51230000D01*
X37814699Y51024068D01*
X37814700Y51024066D01*
X37874768Y50826046D01*
X37972315Y50643550D01*
X37972317Y50643548D01*
X38103589Y50483590D01*
X38200209Y50404298D01*
X38263550Y50352315D01*
X38446046Y50254768D01*
X38644066Y50194700D01*
X38644065Y50194700D01*
X38662529Y50192882D01*
X38850000Y50174417D01*
X39055934Y50194700D01*
X39253954Y50254768D01*
X39436450Y50352315D01*
X39596410Y50483590D01*
X39727685Y50643550D01*
X39825232Y50826046D01*
X39885300Y51024066D01*
X39905583Y51230000D01*
X40334417Y51230000D01*
X40354699Y51024068D01*
X40354700Y51024066D01*
X40414768Y50826046D01*
X40512315Y50643550D01*
X40512317Y50643548D01*
X40643589Y50483590D01*
X40740209Y50404298D01*
X40803550Y50352315D01*
X40986046Y50254768D01*
X41184066Y50194700D01*
X41184065Y50194700D01*
X41202529Y50192882D01*
X41390000Y50174417D01*
X41595934Y50194700D01*
X41793954Y50254768D01*
X41976450Y50352315D01*
X42136410Y50483590D01*
X42267685Y50643550D01*
X42365232Y50826046D01*
X42425300Y51024066D01*
X42445583Y51230000D01*
X42874417Y51230000D01*
X42894699Y51024068D01*
X42894700Y51024066D01*
X42954768Y50826046D01*
X43052315Y50643550D01*
X43052317Y50643548D01*
X43183589Y50483590D01*
X43280209Y50404298D01*
X43343550Y50352315D01*
X43526046Y50254768D01*
X43724066Y50194700D01*
X43724065Y50194700D01*
X43742529Y50192882D01*
X43930000Y50174417D01*
X44135934Y50194700D01*
X44333954Y50254768D01*
X44516450Y50352315D01*
X44676410Y50483590D01*
X44807685Y50643550D01*
X44905232Y50826046D01*
X44965300Y51024066D01*
X44985583Y51230000D01*
X45414417Y51230000D01*
X45434699Y51024068D01*
X45434700Y51024066D01*
X45494768Y50826046D01*
X45592315Y50643550D01*
X45592317Y50643548D01*
X45723589Y50483590D01*
X45820209Y50404298D01*
X45883550Y50352315D01*
X46066046Y50254768D01*
X46264066Y50194700D01*
X46264065Y50194700D01*
X46282529Y50192882D01*
X46470000Y50174417D01*
X46675934Y50194700D01*
X46873954Y50254768D01*
X47056450Y50352315D01*
X47216410Y50483590D01*
X47347685Y50643550D01*
X47445232Y50826046D01*
X47505300Y51024066D01*
X47525583Y51230000D01*
X47954417Y51230000D01*
X47974699Y51024068D01*
X47974700Y51024066D01*
X48034768Y50826046D01*
X48132315Y50643550D01*
X48132317Y50643548D01*
X48263589Y50483590D01*
X48360209Y50404298D01*
X48423550Y50352315D01*
X48606046Y50254768D01*
X48804066Y50194700D01*
X48804065Y50194700D01*
X48822529Y50192882D01*
X49010000Y50174417D01*
X49215934Y50194700D01*
X49413954Y50254768D01*
X49596450Y50352315D01*
X49756410Y50483590D01*
X49887685Y50643550D01*
X49985232Y50826046D01*
X50045300Y51024066D01*
X50065583Y51230000D01*
X50494417Y51230000D01*
X50514699Y51024068D01*
X50514700Y51024066D01*
X50574768Y50826046D01*
X50672315Y50643550D01*
X50672317Y50643548D01*
X50803589Y50483590D01*
X50900209Y50404298D01*
X50963550Y50352315D01*
X51146046Y50254768D01*
X51344066Y50194700D01*
X51344065Y50194700D01*
X51362529Y50192882D01*
X51550000Y50174417D01*
X51755934Y50194700D01*
X51953954Y50254768D01*
X52136450Y50352315D01*
X52296410Y50483590D01*
X52427685Y50643550D01*
X52525232Y50826046D01*
X52585300Y51024066D01*
X52605583Y51230000D01*
X53034417Y51230000D01*
X53054699Y51024068D01*
X53054700Y51024066D01*
X53114768Y50826046D01*
X53212315Y50643550D01*
X53212317Y50643548D01*
X53343589Y50483590D01*
X53440209Y50404298D01*
X53503550Y50352315D01*
X53686046Y50254768D01*
X53884066Y50194700D01*
X53884065Y50194700D01*
X53902529Y50192882D01*
X54090000Y50174417D01*
X54295934Y50194700D01*
X54493954Y50254768D01*
X54676450Y50352315D01*
X54836410Y50483590D01*
X54967685Y50643550D01*
X55065232Y50826046D01*
X55125300Y51024066D01*
X55145583Y51230000D01*
X55574417Y51230000D01*
X55594699Y51024068D01*
X55594700Y51024066D01*
X55654768Y50826046D01*
X55752315Y50643550D01*
X55752317Y50643548D01*
X55883589Y50483590D01*
X55980209Y50404298D01*
X56043550Y50352315D01*
X56226046Y50254768D01*
X56424066Y50194700D01*
X56424065Y50194700D01*
X56442529Y50192882D01*
X56630000Y50174417D01*
X56835934Y50194700D01*
X57033954Y50254768D01*
X57216450Y50352315D01*
X57376410Y50483590D01*
X57507685Y50643550D01*
X57605232Y50826046D01*
X57665300Y51024066D01*
X57685583Y51230000D01*
X57665300Y51435934D01*
X57605232Y51633954D01*
X57507685Y51816450D01*
X57432897Y51907580D01*
X57376410Y51976411D01*
X57258677Y52073031D01*
X57216450Y52107685D01*
X57033954Y52205232D01*
X56835934Y52265300D01*
X56835932Y52265301D01*
X56835934Y52265301D01*
X56630000Y52285583D01*
X56424067Y52265301D01*
X56226043Y52205231D01*
X56192634Y52187373D01*
X56043550Y52107685D01*
X56043548Y52107684D01*
X56043547Y52107683D01*
X55883589Y51976411D01*
X55752317Y51816453D01*
X55654769Y51633957D01*
X55594699Y51435933D01*
X55574417Y51230000D01*
X55145583Y51230000D01*
X55125300Y51435934D01*
X55065232Y51633954D01*
X54967685Y51816450D01*
X54892897Y51907580D01*
X54836410Y51976411D01*
X54718677Y52073031D01*
X54676450Y52107685D01*
X54493954Y52205232D01*
X54295934Y52265300D01*
X54295932Y52265301D01*
X54295934Y52265301D01*
X54090000Y52285583D01*
X53884067Y52265301D01*
X53686043Y52205231D01*
X53652634Y52187373D01*
X53503550Y52107685D01*
X53503548Y52107684D01*
X53503547Y52107683D01*
X53343589Y51976411D01*
X53212317Y51816453D01*
X53114769Y51633957D01*
X53054699Y51435933D01*
X53034417Y51230000D01*
X52605583Y51230000D01*
X52585300Y51435934D01*
X52525232Y51633954D01*
X52427685Y51816450D01*
X52352897Y51907580D01*
X52296410Y51976411D01*
X52178677Y52073031D01*
X52136450Y52107685D01*
X51953954Y52205232D01*
X51755934Y52265300D01*
X51755932Y52265301D01*
X51755934Y52265301D01*
X51550000Y52285583D01*
X51344067Y52265301D01*
X51146043Y52205231D01*
X51112634Y52187373D01*
X50963550Y52107685D01*
X50963548Y52107684D01*
X50963547Y52107683D01*
X50803589Y51976411D01*
X50672317Y51816453D01*
X50574769Y51633957D01*
X50514699Y51435933D01*
X50494417Y51230000D01*
X50065583Y51230000D01*
X50045300Y51435934D01*
X49985232Y51633954D01*
X49887685Y51816450D01*
X49812897Y51907580D01*
X49756410Y51976411D01*
X49638677Y52073031D01*
X49596450Y52107685D01*
X49413954Y52205232D01*
X49215934Y52265300D01*
X49215932Y52265301D01*
X49215934Y52265301D01*
X49010000Y52285583D01*
X48804067Y52265301D01*
X48606043Y52205231D01*
X48572634Y52187373D01*
X48423550Y52107685D01*
X48423548Y52107684D01*
X48423547Y52107683D01*
X48263589Y51976411D01*
X48132317Y51816453D01*
X48034769Y51633957D01*
X47974699Y51435933D01*
X47954417Y51230000D01*
X47525583Y51230000D01*
X47505300Y51435934D01*
X47445232Y51633954D01*
X47347685Y51816450D01*
X47272897Y51907580D01*
X47216410Y51976411D01*
X47098677Y52073031D01*
X47056450Y52107685D01*
X46873954Y52205232D01*
X46675934Y52265300D01*
X46675932Y52265301D01*
X46675934Y52265301D01*
X46470000Y52285583D01*
X46264067Y52265301D01*
X46066043Y52205231D01*
X46032634Y52187373D01*
X45883550Y52107685D01*
X45883548Y52107684D01*
X45883547Y52107683D01*
X45723589Y51976411D01*
X45592317Y51816453D01*
X45494769Y51633957D01*
X45434699Y51435933D01*
X45414417Y51230000D01*
X44985583Y51230000D01*
X44965300Y51435934D01*
X44905232Y51633954D01*
X44807685Y51816450D01*
X44732897Y51907580D01*
X44676410Y51976411D01*
X44558677Y52073031D01*
X44516450Y52107685D01*
X44333954Y52205232D01*
X44135934Y52265300D01*
X44135932Y52265301D01*
X44135934Y52265301D01*
X43930000Y52285583D01*
X43724067Y52265301D01*
X43526043Y52205231D01*
X43492634Y52187373D01*
X43343550Y52107685D01*
X43343548Y52107684D01*
X43343547Y52107683D01*
X43183589Y51976411D01*
X43052317Y51816453D01*
X42954769Y51633957D01*
X42894699Y51435933D01*
X42874417Y51230000D01*
X42445583Y51230000D01*
X42425300Y51435934D01*
X42365232Y51633954D01*
X42267685Y51816450D01*
X42192897Y51907580D01*
X42136410Y51976411D01*
X42018677Y52073031D01*
X41976450Y52107685D01*
X41793954Y52205232D01*
X41595934Y52265300D01*
X41595932Y52265301D01*
X41595934Y52265301D01*
X41390000Y52285583D01*
X41184067Y52265301D01*
X40986043Y52205231D01*
X40952634Y52187373D01*
X40803550Y52107685D01*
X40803548Y52107684D01*
X40803547Y52107683D01*
X40643589Y51976411D01*
X40512317Y51816453D01*
X40414769Y51633957D01*
X40354699Y51435933D01*
X40334417Y51230000D01*
X39905583Y51230000D01*
X39885300Y51435934D01*
X39825232Y51633954D01*
X39727685Y51816450D01*
X39652897Y51907580D01*
X39596410Y51976411D01*
X39478677Y52073031D01*
X39436450Y52107685D01*
X39253954Y52205232D01*
X39055934Y52265300D01*
X39055932Y52265301D01*
X39055934Y52265301D01*
X38850000Y52285583D01*
X38644067Y52265301D01*
X38446043Y52205231D01*
X38412634Y52187373D01*
X38263550Y52107685D01*
X38263548Y52107684D01*
X38263547Y52107683D01*
X38103589Y51976411D01*
X37972317Y51816453D01*
X37874769Y51633957D01*
X37814699Y51435933D01*
X37794417Y51230000D01*
X37365583Y51230000D01*
X37345300Y51435934D01*
X37285232Y51633954D01*
X37187685Y51816450D01*
X37112897Y51907580D01*
X37056410Y51976411D01*
X36938677Y52073031D01*
X36896450Y52107685D01*
X36713954Y52205232D01*
X36515934Y52265300D01*
X36515932Y52265301D01*
X36515934Y52265301D01*
X36310000Y52285583D01*
X36104067Y52265301D01*
X35906043Y52205231D01*
X35872634Y52187373D01*
X35723550Y52107685D01*
X35723548Y52107684D01*
X35723547Y52107683D01*
X35563589Y51976411D01*
X35432317Y51816453D01*
X35334769Y51633957D01*
X35274699Y51435933D01*
X35254417Y51230000D01*
X34825583Y51230000D01*
X34805300Y51435934D01*
X34745232Y51633954D01*
X34647685Y51816450D01*
X34572897Y51907580D01*
X34516410Y51976411D01*
X34398677Y52073031D01*
X34356450Y52107685D01*
X34173954Y52205232D01*
X33975934Y52265300D01*
X33975932Y52265301D01*
X33975934Y52265301D01*
X33770000Y52285583D01*
X33564067Y52265301D01*
X33366043Y52205231D01*
X33332634Y52187373D01*
X33183550Y52107685D01*
X33183548Y52107684D01*
X33183547Y52107683D01*
X33023589Y51976411D01*
X32892317Y51816453D01*
X32794769Y51633957D01*
X32734699Y51435933D01*
X32714417Y51230000D01*
X32285583Y51230000D01*
X32265300Y51435934D01*
X32205232Y51633954D01*
X32107685Y51816450D01*
X32032897Y51907580D01*
X31976410Y51976411D01*
X31858677Y52073031D01*
X31816450Y52107685D01*
X31633954Y52205232D01*
X31435934Y52265300D01*
X31435932Y52265301D01*
X31435934Y52265301D01*
X31230000Y52285583D01*
X31024067Y52265301D01*
X30826043Y52205231D01*
X30792634Y52187373D01*
X30643550Y52107685D01*
X30643548Y52107684D01*
X30643547Y52107683D01*
X30483589Y51976411D01*
X30352317Y51816453D01*
X30254767Y51633954D01*
X30234593Y51567448D01*
X30196296Y51509010D01*
X30132483Y51480553D01*
X30063416Y51491114D01*
X30011023Y51537339D01*
X29996158Y51571351D01*
X29963433Y51693484D01*
X29963429Y51693493D01*
X29863600Y51907578D01*
X29863599Y51907580D01*
X29728113Y52101074D01*
X29728108Y52101080D01*
X29561082Y52268106D01*
X29367578Y52403601D01*
X29153492Y52503430D01*
X29153486Y52503433D01*
X29031349Y52536159D01*
X28971689Y52572524D01*
X28941160Y52635371D01*
X28949455Y52704747D01*
X28993940Y52758625D01*
X29027444Y52774593D01*
X29093954Y52794768D01*
X29276450Y52892315D01*
X29436410Y53023590D01*
X29567685Y53183550D01*
X29665232Y53366046D01*
X29725300Y53564066D01*
X29745583Y53770000D01*
X30174417Y53770000D01*
X30194699Y53564068D01*
X30194700Y53564066D01*
X30254768Y53366046D01*
X30352315Y53183550D01*
X30352317Y53183548D01*
X30483589Y53023590D01*
X30580209Y52944298D01*
X30643550Y52892315D01*
X30826046Y52794768D01*
X31024066Y52734700D01*
X31024065Y52734700D01*
X31042529Y52732882D01*
X31230000Y52714417D01*
X31435934Y52734700D01*
X31633954Y52794768D01*
X31816450Y52892315D01*
X31976410Y53023590D01*
X32107685Y53183550D01*
X32205232Y53366046D01*
X32265300Y53564066D01*
X32285583Y53770000D01*
X32714417Y53770000D01*
X32734699Y53564068D01*
X32734700Y53564066D01*
X32794768Y53366046D01*
X32892315Y53183550D01*
X32892317Y53183548D01*
X33023589Y53023590D01*
X33120209Y52944298D01*
X33183550Y52892315D01*
X33366046Y52794768D01*
X33564066Y52734700D01*
X33564065Y52734700D01*
X33582529Y52732882D01*
X33770000Y52714417D01*
X33975934Y52734700D01*
X34173954Y52794768D01*
X34356450Y52892315D01*
X34516410Y53023590D01*
X34647685Y53183550D01*
X34745232Y53366046D01*
X34805300Y53564066D01*
X34825583Y53770000D01*
X35254417Y53770000D01*
X35274699Y53564068D01*
X35274700Y53564066D01*
X35334768Y53366046D01*
X35432315Y53183550D01*
X35432317Y53183548D01*
X35563589Y53023590D01*
X35660209Y52944298D01*
X35723550Y52892315D01*
X35906046Y52794768D01*
X36104066Y52734700D01*
X36104065Y52734700D01*
X36122529Y52732882D01*
X36310000Y52714417D01*
X36515934Y52734700D01*
X36713954Y52794768D01*
X36896450Y52892315D01*
X37056410Y53023590D01*
X37187685Y53183550D01*
X37285232Y53366046D01*
X37345300Y53564066D01*
X37365583Y53770000D01*
X37794417Y53770000D01*
X37814699Y53564068D01*
X37814700Y53564066D01*
X37874768Y53366046D01*
X37972315Y53183550D01*
X37972317Y53183548D01*
X38103589Y53023590D01*
X38200209Y52944298D01*
X38263550Y52892315D01*
X38446046Y52794768D01*
X38644066Y52734700D01*
X38644065Y52734700D01*
X38662529Y52732882D01*
X38850000Y52714417D01*
X39055934Y52734700D01*
X39253954Y52794768D01*
X39436450Y52892315D01*
X39596410Y53023590D01*
X39727685Y53183550D01*
X39825232Y53366046D01*
X39885300Y53564066D01*
X39905583Y53770000D01*
X40334417Y53770000D01*
X40354699Y53564068D01*
X40354700Y53564066D01*
X40414768Y53366046D01*
X40512315Y53183550D01*
X40512317Y53183548D01*
X40643589Y53023590D01*
X40740209Y52944298D01*
X40803550Y52892315D01*
X40986046Y52794768D01*
X41184066Y52734700D01*
X41184065Y52734700D01*
X41202529Y52732882D01*
X41390000Y52714417D01*
X41595934Y52734700D01*
X41793954Y52794768D01*
X41976450Y52892315D01*
X42136410Y53023590D01*
X42267685Y53183550D01*
X42365232Y53366046D01*
X42425300Y53564066D01*
X42445583Y53770000D01*
X42874417Y53770000D01*
X42894699Y53564068D01*
X42894700Y53564066D01*
X42954768Y53366046D01*
X43052315Y53183550D01*
X43052317Y53183548D01*
X43183589Y53023590D01*
X43280209Y52944298D01*
X43343550Y52892315D01*
X43526046Y52794768D01*
X43724066Y52734700D01*
X43724065Y52734700D01*
X43742529Y52732882D01*
X43930000Y52714417D01*
X44135934Y52734700D01*
X44333954Y52794768D01*
X44516450Y52892315D01*
X44676410Y53023590D01*
X44807685Y53183550D01*
X44905232Y53366046D01*
X44965300Y53564066D01*
X44985583Y53770000D01*
X45414417Y53770000D01*
X45434699Y53564068D01*
X45434700Y53564066D01*
X45494768Y53366046D01*
X45592315Y53183550D01*
X45592317Y53183548D01*
X45723589Y53023590D01*
X45820209Y52944298D01*
X45883550Y52892315D01*
X46066046Y52794768D01*
X46264066Y52734700D01*
X46264065Y52734700D01*
X46282529Y52732882D01*
X46470000Y52714417D01*
X46675934Y52734700D01*
X46873954Y52794768D01*
X47056450Y52892315D01*
X47216410Y53023590D01*
X47347685Y53183550D01*
X47445232Y53366046D01*
X47505300Y53564066D01*
X47525583Y53770000D01*
X47954417Y53770000D01*
X47974699Y53564068D01*
X47974700Y53564066D01*
X48034768Y53366046D01*
X48132315Y53183550D01*
X48132317Y53183548D01*
X48263589Y53023590D01*
X48360209Y52944298D01*
X48423550Y52892315D01*
X48606046Y52794768D01*
X48804066Y52734700D01*
X48804065Y52734700D01*
X48822529Y52732882D01*
X49010000Y52714417D01*
X49215934Y52734700D01*
X49413954Y52794768D01*
X49596450Y52892315D01*
X49756410Y53023590D01*
X49887685Y53183550D01*
X49985232Y53366046D01*
X50045300Y53564066D01*
X50065583Y53770000D01*
X50494417Y53770000D01*
X50514699Y53564068D01*
X50514700Y53564066D01*
X50574768Y53366046D01*
X50672315Y53183550D01*
X50672317Y53183548D01*
X50803589Y53023590D01*
X50900209Y52944298D01*
X50963550Y52892315D01*
X51146046Y52794768D01*
X51344066Y52734700D01*
X51344065Y52734700D01*
X51362529Y52732882D01*
X51550000Y52714417D01*
X51755934Y52734700D01*
X51953954Y52794768D01*
X52136450Y52892315D01*
X52296410Y53023590D01*
X52427685Y53183550D01*
X52525232Y53366046D01*
X52585300Y53564066D01*
X52605583Y53770000D01*
X53034417Y53770000D01*
X53054699Y53564068D01*
X53054700Y53564066D01*
X53114768Y53366046D01*
X53212315Y53183550D01*
X53212317Y53183548D01*
X53343589Y53023590D01*
X53440209Y52944298D01*
X53503550Y52892315D01*
X53686046Y52794768D01*
X53884066Y52734700D01*
X53884065Y52734700D01*
X53902529Y52732882D01*
X54090000Y52714417D01*
X54295934Y52734700D01*
X54493954Y52794768D01*
X54676450Y52892315D01*
X54836410Y53023590D01*
X54967685Y53183550D01*
X55065232Y53366046D01*
X55125300Y53564066D01*
X55145583Y53770000D01*
X55574417Y53770000D01*
X55594699Y53564068D01*
X55594700Y53564066D01*
X55654768Y53366046D01*
X55752315Y53183550D01*
X55752317Y53183548D01*
X55883589Y53023590D01*
X55980209Y52944298D01*
X56043550Y52892315D01*
X56226046Y52794768D01*
X56424066Y52734700D01*
X56424065Y52734700D01*
X56442529Y52732882D01*
X56630000Y52714417D01*
X56835934Y52734700D01*
X57033954Y52794768D01*
X57216450Y52892315D01*
X57376410Y53023590D01*
X57507685Y53183550D01*
X57605232Y53366046D01*
X57665300Y53564066D01*
X57685583Y53770000D01*
X57665300Y53975934D01*
X57605232Y54173954D01*
X57507685Y54356450D01*
X57455702Y54419791D01*
X57376410Y54516411D01*
X57216452Y54647683D01*
X57216453Y54647683D01*
X57216450Y54647685D01*
X57033954Y54745232D01*
X56835934Y54805300D01*
X56835932Y54805301D01*
X56835934Y54805301D01*
X56630000Y54825583D01*
X56424067Y54805301D01*
X56226043Y54745231D01*
X56115898Y54686357D01*
X56043550Y54647685D01*
X56043548Y54647684D01*
X56043547Y54647683D01*
X55883589Y54516411D01*
X55752317Y54356453D01*
X55654769Y54173957D01*
X55594699Y53975933D01*
X55574417Y53770000D01*
X55145583Y53770000D01*
X55125300Y53975934D01*
X55065232Y54173954D01*
X54967685Y54356450D01*
X54915702Y54419791D01*
X54836410Y54516411D01*
X54676452Y54647683D01*
X54676453Y54647683D01*
X54676450Y54647685D01*
X54493954Y54745232D01*
X54295934Y54805300D01*
X54295932Y54805301D01*
X54295934Y54805301D01*
X54090000Y54825583D01*
X53884067Y54805301D01*
X53686043Y54745231D01*
X53575898Y54686357D01*
X53503550Y54647685D01*
X53503548Y54647684D01*
X53503547Y54647683D01*
X53343589Y54516411D01*
X53212317Y54356453D01*
X53114769Y54173957D01*
X53054699Y53975933D01*
X53034417Y53770000D01*
X52605583Y53770000D01*
X52585300Y53975934D01*
X52525232Y54173954D01*
X52427685Y54356450D01*
X52375702Y54419791D01*
X52296410Y54516411D01*
X52136452Y54647683D01*
X52136453Y54647683D01*
X52136450Y54647685D01*
X51953954Y54745232D01*
X51755934Y54805300D01*
X51755932Y54805301D01*
X51755934Y54805301D01*
X51550000Y54825583D01*
X51344067Y54805301D01*
X51146043Y54745231D01*
X51035898Y54686357D01*
X50963550Y54647685D01*
X50963548Y54647684D01*
X50963547Y54647683D01*
X50803589Y54516411D01*
X50672317Y54356453D01*
X50574769Y54173957D01*
X50514699Y53975933D01*
X50494417Y53770000D01*
X50065583Y53770000D01*
X50045300Y53975934D01*
X49985232Y54173954D01*
X49887685Y54356450D01*
X49835702Y54419791D01*
X49756410Y54516411D01*
X49596452Y54647683D01*
X49596453Y54647683D01*
X49596450Y54647685D01*
X49413954Y54745232D01*
X49215934Y54805300D01*
X49215932Y54805301D01*
X49215934Y54805301D01*
X49010000Y54825583D01*
X48804067Y54805301D01*
X48606043Y54745231D01*
X48495898Y54686357D01*
X48423550Y54647685D01*
X48423548Y54647684D01*
X48423547Y54647683D01*
X48263589Y54516411D01*
X48132317Y54356453D01*
X48034769Y54173957D01*
X47974699Y53975933D01*
X47954417Y53770000D01*
X47525583Y53770000D01*
X47505300Y53975934D01*
X47445232Y54173954D01*
X47347685Y54356450D01*
X47295702Y54419791D01*
X47216410Y54516411D01*
X47056452Y54647683D01*
X47056453Y54647683D01*
X47056450Y54647685D01*
X46873954Y54745232D01*
X46675934Y54805300D01*
X46675932Y54805301D01*
X46675934Y54805301D01*
X46470000Y54825583D01*
X46264067Y54805301D01*
X46066043Y54745231D01*
X45955898Y54686357D01*
X45883550Y54647685D01*
X45883548Y54647684D01*
X45883547Y54647683D01*
X45723589Y54516411D01*
X45592317Y54356453D01*
X45494769Y54173957D01*
X45434699Y53975933D01*
X45414417Y53770000D01*
X44985583Y53770000D01*
X44965300Y53975934D01*
X44905232Y54173954D01*
X44807685Y54356450D01*
X44755702Y54419791D01*
X44676410Y54516411D01*
X44516452Y54647683D01*
X44516453Y54647683D01*
X44516450Y54647685D01*
X44333954Y54745232D01*
X44135934Y54805300D01*
X44135932Y54805301D01*
X44135934Y54805301D01*
X43930000Y54825583D01*
X43724067Y54805301D01*
X43526043Y54745231D01*
X43415898Y54686357D01*
X43343550Y54647685D01*
X43343548Y54647684D01*
X43343547Y54647683D01*
X43183589Y54516411D01*
X43052317Y54356453D01*
X42954769Y54173957D01*
X42894699Y53975933D01*
X42874417Y53770000D01*
X42445583Y53770000D01*
X42425300Y53975934D01*
X42365232Y54173954D01*
X42267685Y54356450D01*
X42215702Y54419791D01*
X42136410Y54516411D01*
X41976452Y54647683D01*
X41976453Y54647683D01*
X41976450Y54647685D01*
X41793954Y54745232D01*
X41595934Y54805300D01*
X41595932Y54805301D01*
X41595934Y54805301D01*
X41390000Y54825583D01*
X41184067Y54805301D01*
X40986043Y54745231D01*
X40875898Y54686357D01*
X40803550Y54647685D01*
X40803548Y54647684D01*
X40803547Y54647683D01*
X40643589Y54516411D01*
X40512317Y54356453D01*
X40414769Y54173957D01*
X40354699Y53975933D01*
X40334417Y53770000D01*
X39905583Y53770000D01*
X39885300Y53975934D01*
X39825232Y54173954D01*
X39727685Y54356450D01*
X39675702Y54419791D01*
X39596410Y54516411D01*
X39436452Y54647683D01*
X39436453Y54647683D01*
X39436450Y54647685D01*
X39253954Y54745232D01*
X39055934Y54805300D01*
X39055932Y54805301D01*
X39055934Y54805301D01*
X38850000Y54825583D01*
X38644067Y54805301D01*
X38446043Y54745231D01*
X38335898Y54686357D01*
X38263550Y54647685D01*
X38263548Y54647684D01*
X38263547Y54647683D01*
X38103589Y54516411D01*
X37972317Y54356453D01*
X37874769Y54173957D01*
X37814699Y53975933D01*
X37794417Y53770000D01*
X37365583Y53770000D01*
X37345300Y53975934D01*
X37285232Y54173954D01*
X37187685Y54356450D01*
X37135702Y54419791D01*
X37056410Y54516411D01*
X36896452Y54647683D01*
X36896453Y54647683D01*
X36896450Y54647685D01*
X36713954Y54745232D01*
X36515934Y54805300D01*
X36515932Y54805301D01*
X36515934Y54805301D01*
X36310000Y54825583D01*
X36104067Y54805301D01*
X35906043Y54745231D01*
X35795898Y54686357D01*
X35723550Y54647685D01*
X35723548Y54647684D01*
X35723547Y54647683D01*
X35563589Y54516411D01*
X35432317Y54356453D01*
X35334769Y54173957D01*
X35274699Y53975933D01*
X35254417Y53770000D01*
X34825583Y53770000D01*
X34805300Y53975934D01*
X34745232Y54173954D01*
X34647685Y54356450D01*
X34595702Y54419791D01*
X34516410Y54516411D01*
X34356452Y54647683D01*
X34356453Y54647683D01*
X34356450Y54647685D01*
X34173954Y54745232D01*
X33975934Y54805300D01*
X33975932Y54805301D01*
X33975934Y54805301D01*
X33770000Y54825583D01*
X33564067Y54805301D01*
X33366043Y54745231D01*
X33255898Y54686357D01*
X33183550Y54647685D01*
X33183548Y54647684D01*
X33183547Y54647683D01*
X33023589Y54516411D01*
X32892317Y54356453D01*
X32794769Y54173957D01*
X32734699Y53975933D01*
X32714417Y53770000D01*
X32285583Y53770000D01*
X32265300Y53975934D01*
X32205232Y54173954D01*
X32107685Y54356450D01*
X32055702Y54419791D01*
X31976410Y54516411D01*
X31816452Y54647683D01*
X31816453Y54647683D01*
X31816450Y54647685D01*
X31633954Y54745232D01*
X31435934Y54805300D01*
X31435932Y54805301D01*
X31435934Y54805301D01*
X31230000Y54825583D01*
X31024067Y54805301D01*
X30826043Y54745231D01*
X30715898Y54686357D01*
X30643550Y54647685D01*
X30643548Y54647684D01*
X30643547Y54647683D01*
X30483589Y54516411D01*
X30352317Y54356453D01*
X30254769Y54173957D01*
X30194699Y53975933D01*
X30174417Y53770000D01*
X29745583Y53770000D01*
X29725300Y53975934D01*
X29665232Y54173954D01*
X29567685Y54356450D01*
X29515702Y54419791D01*
X29436410Y54516411D01*
X29276452Y54647683D01*
X29276453Y54647683D01*
X29276450Y54647685D01*
X29093954Y54745232D01*
X28895934Y54805300D01*
X28895932Y54805301D01*
X28895934Y54805301D01*
X28690000Y54825583D01*
X28484067Y54805301D01*
X28286043Y54745231D01*
X28175898Y54686357D01*
X28103550Y54647685D01*
X28103548Y54647684D01*
X28103547Y54647683D01*
X27943589Y54516411D01*
X27812317Y54356453D01*
X27714769Y54173957D01*
X27654699Y53975933D01*
X27634417Y53770000D01*
X27654699Y53564068D01*
X27654700Y53564066D01*
X27714768Y53366046D01*
X27812315Y53183550D01*
X27812317Y53183548D01*
X27943589Y53023590D01*
X28040209Y52944298D01*
X28103550Y52892315D01*
X28286046Y52794768D01*
X28352551Y52774595D01*
X28410989Y52736298D01*
X28439446Y52672486D01*
X28428887Y52603419D01*
X28382663Y52551025D01*
X28348650Y52536159D01*
X28226514Y52503433D01*
X28226507Y52503430D01*
X28012422Y52403601D01*
X28012420Y52403600D01*
X27818926Y52268114D01*
X27818920Y52268109D01*
X27651891Y52101080D01*
X27651886Y52101074D01*
X27516400Y51907580D01*
X27516399Y51907578D01*
X27416570Y51693493D01*
X27416567Y51693486D01*
X27383841Y51571350D01*
X27347476Y51511690D01*
X27284629Y51481161D01*
X27215253Y51489456D01*
X27161375Y51533941D01*
X27145406Y51567448D01*
X27125232Y51633954D01*
X27027685Y51816450D01*
X26952897Y51907580D01*
X26896410Y51976411D01*
X26778677Y52073031D01*
X26736450Y52107685D01*
X26553954Y52205232D01*
X26355934Y52265300D01*
X26355932Y52265301D01*
X26355934Y52265301D01*
X26150000Y52285583D01*
X25944067Y52265301D01*
X25746043Y52205231D01*
X25712634Y52187373D01*
X25563550Y52107685D01*
X25563548Y52107684D01*
X25563547Y52107683D01*
X25403589Y51976411D01*
X25272317Y51816453D01*
X25174769Y51633957D01*
X25114699Y51435933D01*
X25094417Y51230000D01*
X24665583Y51230000D01*
X24645300Y51435934D01*
X24585232Y51633954D01*
X24487685Y51816450D01*
X24412897Y51907580D01*
X24356410Y51976411D01*
X24238677Y52073031D01*
X24196450Y52107685D01*
X24013954Y52205232D01*
X23815934Y52265300D01*
X23815932Y52265301D01*
X23815934Y52265301D01*
X23610000Y52285583D01*
X23404067Y52265301D01*
X23206043Y52205231D01*
X23172634Y52187373D01*
X23023550Y52107685D01*
X23023548Y52107684D01*
X23023547Y52107683D01*
X22863589Y51976411D01*
X22732317Y51816453D01*
X22634769Y51633957D01*
X22574699Y51435933D01*
X22554417Y51230000D01*
X22125583Y51230000D01*
X22105300Y51435934D01*
X22045232Y51633954D01*
X21947685Y51816450D01*
X21872897Y51907580D01*
X21816410Y51976411D01*
X21698677Y52073031D01*
X21656450Y52107685D01*
X21473954Y52205232D01*
X21275934Y52265300D01*
X21275932Y52265301D01*
X21275934Y52265301D01*
X21070000Y52285583D01*
X20864067Y52265301D01*
X20666043Y52205231D01*
X20632634Y52187373D01*
X20483550Y52107685D01*
X20483548Y52107684D01*
X20483547Y52107683D01*
X20323589Y51976411D01*
X20192317Y51816453D01*
X20094769Y51633957D01*
X20034699Y51435933D01*
X20014417Y51230000D01*
X19585583Y51230000D01*
X19565300Y51435934D01*
X19505232Y51633954D01*
X19407685Y51816450D01*
X19332897Y51907580D01*
X19276410Y51976411D01*
X19158677Y52073031D01*
X19116450Y52107685D01*
X18933954Y52205232D01*
X18735934Y52265300D01*
X18735932Y52265301D01*
X18735934Y52265301D01*
X18530000Y52285583D01*
X18324067Y52265301D01*
X18126043Y52205231D01*
X18092634Y52187373D01*
X17943550Y52107685D01*
X17943548Y52107684D01*
X17943547Y52107683D01*
X17783589Y51976411D01*
X17652317Y51816453D01*
X17554769Y51633957D01*
X17494699Y51435933D01*
X17474417Y51230000D01*
X17045583Y51230000D01*
X17025300Y51435934D01*
X16965232Y51633954D01*
X16867685Y51816450D01*
X16792897Y51907580D01*
X16736410Y51976411D01*
X16618677Y52073031D01*
X16576450Y52107685D01*
X16393954Y52205232D01*
X16195934Y52265300D01*
X16195932Y52265301D01*
X16195934Y52265301D01*
X15990000Y52285583D01*
X15784067Y52265301D01*
X15586043Y52205231D01*
X15552634Y52187373D01*
X15403550Y52107685D01*
X15403548Y52107684D01*
X15403547Y52107683D01*
X15243589Y51976411D01*
X15112317Y51816453D01*
X15014769Y51633957D01*
X14954699Y51435933D01*
X14934417Y51230000D01*
X14505583Y51230000D01*
X14485300Y51435934D01*
X14425232Y51633954D01*
X14327685Y51816450D01*
X14252897Y51907580D01*
X14196410Y51976411D01*
X14078677Y52073031D01*
X14036450Y52107685D01*
X13853954Y52205232D01*
X13655934Y52265300D01*
X13655932Y52265301D01*
X13655934Y52265301D01*
X13450000Y52285583D01*
X13244067Y52265301D01*
X13046043Y52205231D01*
X13012634Y52187373D01*
X12863550Y52107685D01*
X12863548Y52107684D01*
X12863547Y52107683D01*
X12703589Y51976411D01*
X12572317Y51816453D01*
X12474769Y51633957D01*
X12414699Y51435933D01*
X12394417Y51230000D01*
X12414699Y51024068D01*
X12414700Y51024066D01*
X12474768Y50826046D01*
X12572315Y50643550D01*
X12572317Y50643548D01*
X12703589Y50483590D01*
X12800209Y50404298D01*
X12863550Y50352315D01*
X13046046Y50254768D01*
X13061496Y50250082D01*
X13119932Y50211788D01*
X13148390Y50147976D01*
X13149500Y50131422D01*
X13149500Y41405834D01*
X13129815Y41338795D01*
X13113181Y41318153D01*
X7564326Y35769299D01*
X7503003Y35735814D01*
X7433311Y35740798D01*
X7418193Y35747621D01*
X7403956Y35755231D01*
X7403955Y35755232D01*
X7403954Y35755232D01*
X7205934Y35815300D01*
X7205932Y35815301D01*
X7205934Y35815301D01*
X7000000Y35835583D01*
X6794067Y35815301D01*
X6596043Y35755231D01*
X6487995Y35697477D01*
X6413550Y35657685D01*
X6413548Y35657684D01*
X6413547Y35657683D01*
X6253589Y35526411D01*
X6122317Y35366453D01*
X6024769Y35183957D01*
X5964699Y34985933D01*
X5944417Y34780000D01*
X5450500Y34780000D01*
X5450500Y39484939D01*
X5470185Y39551978D01*
X5522989Y39597733D01*
X5592147Y39607677D01*
X5655703Y39578652D01*
X5693477Y39519874D01*
X5694275Y39517032D01*
X5726566Y39396517D01*
X5726570Y39396508D01*
X5826398Y39182424D01*
X5885073Y39098628D01*
X6517037Y39730592D01*
X6534075Y39667007D01*
X6599901Y39552993D01*
X6692993Y39459901D01*
X6807007Y39394075D01*
X6870591Y39377038D01*
X6238626Y38745074D01*
X6322417Y38686402D01*
X6322421Y38686400D01*
X6536507Y38586571D01*
X6536516Y38586567D01*
X6658649Y38553842D01*
X6718310Y38517477D01*
X6748839Y38454631D01*
X6740545Y38385255D01*
X6696059Y38331377D01*
X6662552Y38315407D01*
X6596046Y38295233D01*
X6465358Y38225378D01*
X6413550Y38197685D01*
X6413548Y38197684D01*
X6413547Y38197683D01*
X6253589Y38066411D01*
X6122317Y37906453D01*
X6024769Y37723957D01*
X5964699Y37525933D01*
X5944417Y37320000D01*
X5964699Y37114068D01*
X5987167Y37040002D01*
X6024768Y36916046D01*
X6122315Y36733550D01*
X6153863Y36695108D01*
X6253589Y36573590D01*
X6347504Y36496517D01*
X6413550Y36442315D01*
X6596046Y36344768D01*
X6794066Y36284700D01*
X6794065Y36284700D01*
X6812529Y36282882D01*
X7000000Y36264417D01*
X7205934Y36284700D01*
X7403954Y36344768D01*
X7586450Y36442315D01*
X7746410Y36573590D01*
X7877685Y36733550D01*
X7975232Y36916046D01*
X8035300Y37114066D01*
X8055583Y37320000D01*
X8035300Y37525934D01*
X7975232Y37723954D01*
X7877685Y37906450D01*
X7825702Y37969791D01*
X7746410Y38066411D01*
X7586452Y38197683D01*
X7586453Y38197683D01*
X7586450Y38197685D01*
X7403954Y38295232D01*
X7337447Y38315407D01*
X7279009Y38353704D01*
X7250553Y38417516D01*
X7261113Y38486583D01*
X7307337Y38538977D01*
X7341350Y38553842D01*
X7463483Y38586567D01*
X7463492Y38586571D01*
X7677580Y38686401D01*
X7761371Y38745075D01*
X7129408Y39377038D01*
X7192993Y39394075D01*
X7307007Y39459901D01*
X7400099Y39552993D01*
X7465925Y39667007D01*
X7482962Y39730592D01*
X8114925Y39098629D01*
X8173599Y39182420D01*
X8273429Y39396508D01*
X8273433Y39396517D01*
X8334567Y39624674D01*
X8334569Y39624685D01*
X8355157Y39859999D01*
X8355157Y39860002D01*
X8334569Y40095316D01*
X8334567Y40095327D01*
X8273433Y40323484D01*
X8273429Y40323493D01*
X8173601Y40537576D01*
X8114925Y40621374D01*
X7482962Y39989410D01*
X7465925Y40052993D01*
X7400099Y40167007D01*
X7307007Y40260099D01*
X7192993Y40325925D01*
X7129409Y40342963D01*
X7761372Y40974927D01*
X7677576Y41033602D01*
X7463492Y41133430D01*
X7463483Y41133434D01*
X7235326Y41194568D01*
X7235315Y41194570D01*
X7000002Y41215157D01*
X6999998Y41215157D01*
X6764684Y41194570D01*
X6764673Y41194568D01*
X6536516Y41133434D01*
X6536507Y41133430D01*
X6322423Y41033601D01*
X6322421Y41033600D01*
X6238627Y40974927D01*
X6238626Y40974927D01*
X6870591Y40342963D01*
X6807007Y40325925D01*
X6692993Y40260099D01*
X6599901Y40167007D01*
X6534075Y40052993D01*
X6517037Y39989410D01*
X5885073Y40621374D01*
X5885073Y40621373D01*
X5826400Y40537579D01*
X5826399Y40537577D01*
X5726570Y40323493D01*
X5726566Y40323484D01*
X5694275Y40202969D01*
X5657910Y40143308D01*
X5595063Y40112779D01*
X5525687Y40121074D01*
X5471810Y40165559D01*
X5450535Y40232111D01*
X5450500Y40235062D01*
X5450500Y45294168D01*
X5470185Y45361207D01*
X5486814Y45381844D01*
X10345673Y50240704D01*
X10406994Y50274187D01*
X10476686Y50269203D01*
X10491804Y50262380D01*
X10500493Y50257736D01*
X10506046Y50254768D01*
X10704066Y50194700D01*
X10704065Y50194700D01*
X10722529Y50192882D01*
X10910000Y50174417D01*
X11115934Y50194700D01*
X11313954Y50254768D01*
X11496450Y50352315D01*
X11656410Y50483590D01*
X11787685Y50643550D01*
X11885232Y50826046D01*
X11945300Y51024066D01*
X11965583Y51230000D01*
X11945300Y51435934D01*
X11885232Y51633954D01*
X11787685Y51816450D01*
X11712897Y51907580D01*
X11656410Y51976411D01*
X11538677Y52073031D01*
X11496450Y52107685D01*
X11313954Y52205232D01*
X11115934Y52265300D01*
X11115932Y52265301D01*
X11115934Y52265301D01*
X10910000Y52285583D01*
X10704067Y52265301D01*
X10506043Y52205231D01*
X10472634Y52187373D01*
X10323550Y52107685D01*
X10323548Y52107684D01*
X10323547Y52107683D01*
X10163589Y51976411D01*
X10032317Y51816453D01*
X10032315Y51816450D01*
X9966593Y51693493D01*
X9953358Y51668733D01*
X9904395Y51618889D01*
X9836257Y51603429D01*
X9770578Y51627261D01*
X9728209Y51682819D01*
X9720000Y51727187D01*
X9720000Y52127828D01*
X9719999Y52127845D01*
X9713598Y52187373D01*
X9713596Y52187380D01*
X9663354Y52322087D01*
X9663350Y52322094D01*
X9577190Y52437188D01*
X9577187Y52437191D01*
X9462093Y52523351D01*
X9462086Y52523355D01*
X9327379Y52573597D01*
X9327372Y52573599D01*
X9267844Y52580000D01*
X8867187Y52580000D01*
X8800148Y52599685D01*
X8754393Y52652489D01*
X8744449Y52721647D01*
X8773474Y52785203D01*
X8808733Y52813358D01*
X8956450Y52892315D01*
X9116410Y53023590D01*
X9247685Y53183550D01*
X9345232Y53366046D01*
X9405300Y53564066D01*
X9425583Y53770000D01*
X9854417Y53770000D01*
X9874699Y53564068D01*
X9874700Y53564066D01*
X9934768Y53366046D01*
X10032315Y53183550D01*
X10032317Y53183548D01*
X10163589Y53023590D01*
X10260209Y52944298D01*
X10323550Y52892315D01*
X10506046Y52794768D01*
X10704066Y52734700D01*
X10704065Y52734700D01*
X10722529Y52732882D01*
X10910000Y52714417D01*
X11115934Y52734700D01*
X11313954Y52794768D01*
X11496450Y52892315D01*
X11656410Y53023590D01*
X11787685Y53183550D01*
X11885232Y53366046D01*
X11945300Y53564066D01*
X11965583Y53770000D01*
X12394417Y53770000D01*
X12414699Y53564068D01*
X12414700Y53564066D01*
X12474768Y53366046D01*
X12572315Y53183550D01*
X12572317Y53183548D01*
X12703589Y53023590D01*
X12800209Y52944298D01*
X12863550Y52892315D01*
X13046046Y52794768D01*
X13244066Y52734700D01*
X13244065Y52734700D01*
X13262529Y52732882D01*
X13450000Y52714417D01*
X13655934Y52734700D01*
X13853954Y52794768D01*
X14036450Y52892315D01*
X14196410Y53023590D01*
X14327685Y53183550D01*
X14425232Y53366046D01*
X14485300Y53564066D01*
X14505583Y53770000D01*
X14934417Y53770000D01*
X14954699Y53564068D01*
X14954700Y53564066D01*
X15014768Y53366046D01*
X15112315Y53183550D01*
X15112317Y53183548D01*
X15243589Y53023590D01*
X15340209Y52944298D01*
X15403550Y52892315D01*
X15586046Y52794768D01*
X15784066Y52734700D01*
X15784065Y52734700D01*
X15802529Y52732882D01*
X15990000Y52714417D01*
X16195934Y52734700D01*
X16393954Y52794768D01*
X16576450Y52892315D01*
X16736410Y53023590D01*
X16867685Y53183550D01*
X16965232Y53366046D01*
X17025300Y53564066D01*
X17045583Y53770000D01*
X17474417Y53770000D01*
X17494699Y53564068D01*
X17494700Y53564066D01*
X17554768Y53366046D01*
X17652315Y53183550D01*
X17652317Y53183548D01*
X17783589Y53023590D01*
X17880209Y52944298D01*
X17943550Y52892315D01*
X18126046Y52794768D01*
X18324066Y52734700D01*
X18324065Y52734700D01*
X18342529Y52732882D01*
X18530000Y52714417D01*
X18735934Y52734700D01*
X18933954Y52794768D01*
X19116450Y52892315D01*
X19276410Y53023590D01*
X19407685Y53183550D01*
X19505232Y53366046D01*
X19565300Y53564066D01*
X19585583Y53770000D01*
X20014417Y53770000D01*
X20034699Y53564068D01*
X20034700Y53564066D01*
X20094768Y53366046D01*
X20192315Y53183550D01*
X20192317Y53183548D01*
X20323589Y53023590D01*
X20420209Y52944298D01*
X20483550Y52892315D01*
X20666046Y52794768D01*
X20864066Y52734700D01*
X20864065Y52734700D01*
X20882529Y52732882D01*
X21070000Y52714417D01*
X21275934Y52734700D01*
X21473954Y52794768D01*
X21656450Y52892315D01*
X21816410Y53023590D01*
X21947685Y53183550D01*
X22045232Y53366046D01*
X22105300Y53564066D01*
X22125583Y53770000D01*
X22554417Y53770000D01*
X22574699Y53564068D01*
X22574700Y53564066D01*
X22634768Y53366046D01*
X22732315Y53183550D01*
X22732317Y53183548D01*
X22863589Y53023590D01*
X22960209Y52944298D01*
X23023550Y52892315D01*
X23206046Y52794768D01*
X23404066Y52734700D01*
X23404065Y52734700D01*
X23422529Y52732882D01*
X23610000Y52714417D01*
X23815934Y52734700D01*
X24013954Y52794768D01*
X24196450Y52892315D01*
X24356410Y53023590D01*
X24487685Y53183550D01*
X24585232Y53366046D01*
X24645300Y53564066D01*
X24665583Y53770000D01*
X25094417Y53770000D01*
X25114699Y53564068D01*
X25114700Y53564066D01*
X25174768Y53366046D01*
X25272315Y53183550D01*
X25272317Y53183548D01*
X25403589Y53023590D01*
X25500209Y52944298D01*
X25563550Y52892315D01*
X25746046Y52794768D01*
X25944066Y52734700D01*
X25944065Y52734700D01*
X25962529Y52732882D01*
X26150000Y52714417D01*
X26355934Y52734700D01*
X26553954Y52794768D01*
X26736450Y52892315D01*
X26896410Y53023590D01*
X27027685Y53183550D01*
X27125232Y53366046D01*
X27185300Y53564066D01*
X27205583Y53770000D01*
X27185300Y53975934D01*
X27125232Y54173954D01*
X27027685Y54356450D01*
X26975702Y54419791D01*
X26896410Y54516411D01*
X26736452Y54647683D01*
X26736453Y54647683D01*
X26736450Y54647685D01*
X26553954Y54745232D01*
X26355934Y54805300D01*
X26355932Y54805301D01*
X26355934Y54805301D01*
X26150000Y54825583D01*
X25944067Y54805301D01*
X25746043Y54745231D01*
X25635898Y54686357D01*
X25563550Y54647685D01*
X25563548Y54647684D01*
X25563547Y54647683D01*
X25403589Y54516411D01*
X25272317Y54356453D01*
X25174769Y54173957D01*
X25114699Y53975933D01*
X25094417Y53770000D01*
X24665583Y53770000D01*
X24645300Y53975934D01*
X24585232Y54173954D01*
X24487685Y54356450D01*
X24435702Y54419791D01*
X24356410Y54516411D01*
X24196452Y54647683D01*
X24196453Y54647683D01*
X24196450Y54647685D01*
X24013954Y54745232D01*
X23815934Y54805300D01*
X23815932Y54805301D01*
X23815934Y54805301D01*
X23610000Y54825583D01*
X23404067Y54805301D01*
X23206043Y54745231D01*
X23095898Y54686357D01*
X23023550Y54647685D01*
X23023548Y54647684D01*
X23023547Y54647683D01*
X22863589Y54516411D01*
X22732317Y54356453D01*
X22634769Y54173957D01*
X22574699Y53975933D01*
X22554417Y53770000D01*
X22125583Y53770000D01*
X22105300Y53975934D01*
X22045232Y54173954D01*
X21947685Y54356450D01*
X21895702Y54419791D01*
X21816410Y54516411D01*
X21656452Y54647683D01*
X21656453Y54647683D01*
X21656450Y54647685D01*
X21473954Y54745232D01*
X21275934Y54805300D01*
X21275932Y54805301D01*
X21275934Y54805301D01*
X21070000Y54825583D01*
X20864067Y54805301D01*
X20666043Y54745231D01*
X20555898Y54686357D01*
X20483550Y54647685D01*
X20483548Y54647684D01*
X20483547Y54647683D01*
X20323589Y54516411D01*
X20192317Y54356453D01*
X20094769Y54173957D01*
X20034699Y53975933D01*
X20014417Y53770000D01*
X19585583Y53770000D01*
X19565300Y53975934D01*
X19505232Y54173954D01*
X19407685Y54356450D01*
X19355702Y54419791D01*
X19276410Y54516411D01*
X19116452Y54647683D01*
X19116453Y54647683D01*
X19116450Y54647685D01*
X18933954Y54745232D01*
X18735934Y54805300D01*
X18735932Y54805301D01*
X18735934Y54805301D01*
X18530000Y54825583D01*
X18324067Y54805301D01*
X18126043Y54745231D01*
X18015898Y54686357D01*
X17943550Y54647685D01*
X17943548Y54647684D01*
X17943547Y54647683D01*
X17783589Y54516411D01*
X17652317Y54356453D01*
X17554769Y54173957D01*
X17494699Y53975933D01*
X17474417Y53770000D01*
X17045583Y53770000D01*
X17025300Y53975934D01*
X16965232Y54173954D01*
X16867685Y54356450D01*
X16815702Y54419791D01*
X16736410Y54516411D01*
X16576452Y54647683D01*
X16576453Y54647683D01*
X16576450Y54647685D01*
X16393954Y54745232D01*
X16195934Y54805300D01*
X16195932Y54805301D01*
X16195934Y54805301D01*
X15990000Y54825583D01*
X15784067Y54805301D01*
X15586043Y54745231D01*
X15475898Y54686357D01*
X15403550Y54647685D01*
X15403548Y54647684D01*
X15403547Y54647683D01*
X15243589Y54516411D01*
X15112317Y54356453D01*
X15014769Y54173957D01*
X14954699Y53975933D01*
X14934417Y53770000D01*
X14505583Y53770000D01*
X14485300Y53975934D01*
X14425232Y54173954D01*
X14327685Y54356450D01*
X14275702Y54419791D01*
X14196410Y54516411D01*
X14036452Y54647683D01*
X14036453Y54647683D01*
X14036450Y54647685D01*
X13853954Y54745232D01*
X13655934Y54805300D01*
X13655932Y54805301D01*
X13655934Y54805301D01*
X13450000Y54825583D01*
X13244067Y54805301D01*
X13046043Y54745231D01*
X12935898Y54686357D01*
X12863550Y54647685D01*
X12863548Y54647684D01*
X12863547Y54647683D01*
X12703589Y54516411D01*
X12572317Y54356453D01*
X12474769Y54173957D01*
X12414699Y53975933D01*
X12394417Y53770000D01*
X11965583Y53770000D01*
X11945300Y53975934D01*
X11885232Y54173954D01*
X11787685Y54356450D01*
X11735702Y54419791D01*
X11656410Y54516411D01*
X11496452Y54647683D01*
X11496453Y54647683D01*
X11496450Y54647685D01*
X11313954Y54745232D01*
X11115934Y54805300D01*
X11115932Y54805301D01*
X11115934Y54805301D01*
X10910000Y54825583D01*
X10704067Y54805301D01*
X10506043Y54745231D01*
X10395898Y54686357D01*
X10323550Y54647685D01*
X10323548Y54647684D01*
X10323547Y54647683D01*
X10163589Y54516411D01*
X10032317Y54356453D01*
X9934769Y54173957D01*
X9874699Y53975933D01*
X9854417Y53770000D01*
X9425583Y53770000D01*
X9405300Y53975934D01*
X9345232Y54173954D01*
X9247685Y54356450D01*
X9195702Y54419791D01*
X9116410Y54516411D01*
X8956452Y54647683D01*
X8956453Y54647683D01*
X8956450Y54647685D01*
X8773954Y54745232D01*
X8575934Y54805300D01*
X8575932Y54805301D01*
X8575934Y54805301D01*
X8370000Y54825583D01*
X8164067Y54805301D01*
X7966043Y54745231D01*
X7855898Y54686357D01*
X7783550Y54647685D01*
X7783548Y54647684D01*
X7783547Y54647683D01*
X7623589Y54516411D01*
X7492317Y54356453D01*
X7394769Y54173957D01*
X7334699Y53975933D01*
X7314417Y53770000D01*
X7334699Y53564068D01*
X7334700Y53564066D01*
X7394768Y53366046D01*
X7492315Y53183550D01*
X7492317Y53183548D01*
X7623589Y53023590D01*
X7720209Y52944298D01*
X7783550Y52892315D01*
X7931267Y52813358D01*
X7981111Y52764395D01*
X7996571Y52696257D01*
X7972739Y52630578D01*
X7917181Y52588209D01*
X7872813Y52580000D01*
X7472155Y52580000D01*
X7412627Y52573599D01*
X7412620Y52573597D01*
X7277913Y52523355D01*
X7277906Y52523351D01*
X7162812Y52437191D01*
X7162809Y52437188D01*
X7076649Y52322094D01*
X7076645Y52322087D01*
X7026403Y52187380D01*
X7026401Y52187373D01*
X7020000Y52127845D01*
X7020000Y51480000D01*
X7936988Y51480000D01*
X7904075Y51422993D01*
X7870000Y51295826D01*
X7870000Y51164174D01*
X7904075Y51037007D01*
X7936988Y50980000D01*
X7020000Y50980000D01*
X7020000Y50332156D01*
X7026401Y50272628D01*
X7026403Y50272621D01*
X7076645Y50137914D01*
X7076649Y50137907D01*
X7162809Y50022813D01*
X7162812Y50022810D01*
X7277906Y49936650D01*
X7277913Y49936646D01*
X7412620Y49886404D01*
X7412627Y49886402D01*
X7472155Y49880001D01*
X7472172Y49880000D01*
X8120000Y49880000D01*
X8120000Y50796988D01*
X8177007Y50764075D01*
X8304174Y50730000D01*
X8435826Y50730000D01*
X8562993Y50764075D01*
X8620000Y50796988D01*
X8620000Y49880000D01*
X8835666Y49880000D01*
X8902705Y49860315D01*
X8948460Y49807511D01*
X8958404Y49738353D01*
X8929379Y49674797D01*
X8923347Y49668319D01*
X4965489Y45710460D01*
X4909541Y45654513D01*
X4909535Y45654505D01*
X4869982Y45585996D01*
X4869979Y45585991D01*
X4849500Y45509561D01*
X4849500Y36639385D01*
X4829815Y36572346D01*
X4777011Y36526591D01*
X4707853Y36516647D01*
X4684551Y36522341D01*
X4682969Y36522895D01*
X4562027Y36550500D01*
X4562026Y36550500D01*
X4520918Y36550500D01*
X508126Y36550500D01*
X491941Y36551561D01*
X481410Y36552948D01*
X399846Y36563686D01*
X368579Y36572064D01*
X290334Y36604474D01*
X262300Y36620660D01*
X195107Y36672220D01*
X172219Y36695108D01*
X120659Y36762301D01*
X104473Y36790335D01*
X72063Y36868580D01*
X63685Y36899848D01*
X51561Y36991941D01*
X50500Y37008126D01*
X50500Y52996520D01*
X50695Y53003473D01*
X60808Y53183550D01*
X68656Y53323300D01*
X70210Y53337093D01*
X123283Y53649463D01*
X126377Y53663015D01*
X214089Y53967470D01*
X218682Y53980594D01*
X298775Y54173957D01*
X339929Y54273314D01*
X345951Y54285820D01*
X499227Y54563150D01*
X506605Y54574893D01*
X689972Y54833324D01*
X698619Y54844166D01*
X909750Y55080421D01*
X919581Y55090251D01*
X1155834Y55301381D01*
X1166676Y55310028D01*
X1425107Y55493395D01*
X1436850Y55500773D01*
X1714180Y55654049D01*
X1726686Y55660071D01*
X2019406Y55781318D01*
X2032526Y55785910D01*
X2336990Y55873625D01*
X2350537Y55876717D01*
X2662907Y55929790D01*
X2676700Y55931344D01*
X2996528Y55949305D01*
X3003481Y55949500D01*
X3016408Y55949500D01*
X61983592Y55949500D01*
X61996519Y55949500D01*
X62003472Y55949305D01*
G37*
%TD.AperFunction*%
%TD*%
M02*
